<svg version="1.1" class="highcharts-root" style="font-family:Yandex Sans Text Web;font-size:12px;" xmlns="http://www.w3.org/2000/svg" width="472" viewBox="0 0 472 400" height="400"><desc>Created with Highstock 5.0.2</desc><defs><clipPath id="highcharts-13"><rect x="0" y="0" width="462" height="270" fill="none"></rect></clipPath><clipPath id="highcharts-14"><rect x="0" y="0" width="462" height="270" fill="none"></rect></clipPath><clipPath id="highcharts-15"><rect x="0" y="0" width="462" height="270" fill="none"></rect></clipPath></defs><rect fill="#ffffff" class="highcharts-background" x="0" y="0" width="472" height="400" rx="0" ry="0"></rect><rect fill="none" class="highcharts-plot-background" x="5" y="41" width="462" height="270"></rect><g class="highcharts-grid highcharts-xaxis-grid "><path fill="none" class="highcharts-grid-line" d="M 27.5 41 L 27.5 311 M 27.5 41 L 27.5 311" opacity="1"></path><path fill="none" class="highcharts-grid-line" d="M 254.5 41 L 254.5 311 M 254.5 41 L 254.5 311" opacity="1"></path><path fill="none" opacity="1" class="highcharts-grid-line" d="M 140.5 41 L 140.5 311 M 140.5 41 L 140.5 311"></path><path fill="none" opacity="1" class="highcharts-grid-line" d="M 368.5 41 L 368.5 311 M 368.5 41 L 368.5 311"></path></g><g class="highcharts-grid highcharts-yaxis-grid "><path fill="none" class="highcharts-grid-line" d="M 5 311.5 L 467 311.5" opacity="1"></path><path fill="none" class="highcharts-grid-line" d="M 5 266.5 L 467 266.5" opacity="1"></path><path fill="none" class="highcharts-grid-line" d="M 5 221.5 L 467 221.5" opacity="1"></path><path fill="none" class="highcharts-grid-line" d="M 5 176.5 L 467 176.5" opacity="1"></path><path fill="none" class="highcharts-grid-line" d="M 5 131.5 L 467 131.5" opacity="1"></path><path fill="none" class="highcharts-grid-line" d="M 5 86.5 L 467 86.5" opacity="1"></path><path fill="none" class="highcharts-grid-line" d="M 5 41.5 L 467 41.5" opacity="1"></path></g><g class="highcharts-grid highcharts-yaxis-grid "><path fill="none" stroke="#e6e6e6" stroke-width="1" class="highcharts-grid-line" d="M 5 311.5 L 467 311.5" opacity="1"></path><path fill="none" stroke="#e6e6e6" stroke-width="1" class="highcharts-grid-line" d="M 5 244.5 L 467 244.5" opacity="1"></path><path fill="none" stroke="#e6e6e6" stroke-width="1" class="highcharts-grid-line" d="M 5 176.5 L 467 176.5" opacity="1"></path><path fill="none" stroke="#e6e6e6" stroke-width="1" class="highcharts-grid-line" d="M 5 109.5 L 467 109.5" opacity="1"></path><path fill="none" stroke="#e6e6e6" stroke-width="1" class="highcharts-grid-line" d="M 5 40.5 L 467 40.5" opacity="1"></path></g><rect fill="none" class="highcharts-plot-border" x="5" y="41" width="462" height="270"></rect><g class="highcharts-axis highcharts-xaxis "><path fill="none" class="highcharts-tick" stroke="#ccd6eb" stroke-width="1" d="M 27.5 311 L 27.5 321" opacity="1"></path><path fill="none" class="highcharts-tick" stroke="#ccd6eb" stroke-width="1" d="M 254.5 311 L 254.5 321" opacity="1"></path><path fill="none" class="highcharts-tick" stroke="#ccd6eb" stroke-width="1" d="M 140.5 311 L 140.5 321" opacity="1"></path><path fill="none" class="highcharts-tick" stroke="#ccd6eb" stroke-width="1" d="M 368.5 311 L 368.5 321" opacity="1"></path><path fill="none" class="highcharts-axis-line" stroke="#ccd6eb" stroke-width="1" d="M 5 311.5 L 467 311.5"></path></g><g class="highcharts-axis highcharts-yaxis "><text x="477" text-anchor="middle" transform="translate(0,0) rotate(90 477 176)" class="highcharts-axis-title" style="color:#666666;fill:#666666;" y="176">TITLE</text><path fill="none" class="highcharts-axis-line" d="M 467 41 L 467 311"></path></g><g class="highcharts-axis highcharts-yaxis "><text x="-5" text-anchor="middle" transform="translate(0,0) rotate(270 -5 176)" class="highcharts-axis-title" style="color:#666666;fill:#666666;" y="176">TITLE</text><path fill="none" class="highcharts-axis-line" d="M 5 41 L 5 311"></path></g><g class="highcharts-series-group "><g class="highcharts-series highcharts-series-4 highcharts-area-series highcharts-color-undefined " transform="translate(5,41) scale(1 1)" width="270" height="462" clip-path="url(#highcharts-15)"><path fill="rgb(102,175,95)" d="M 0 221.48397 L 7.5737704918033 134.48078999999998 L 15.147540983607 131.18976 L 22.72131147541 127.53611999999998 L 30.295081967213 74.90663999999998 L 37.868852459016 59.643405 L 45.44262295082 126.421155 L 53.016393442623 133.892055 L 60.590163934426 132.55434 L 68.16393442623 133.49110499999998 L 75.737704918033 134.23833 L 83.311475409836 133.64784 L 90.885245901639 133.372575 L 98.459016393443 132.523155 L 106.03278688525 133.66485 L 113.60655737705 132.935445 L 121.18032786885 133.26686999999998 L 128.75409836066 133.92189 L 136.32786885246 133.643925 L 143.90163934426 134.11656 L 151.47540983607 123.119595 L 159.04918032787 132.870645 L 166.62295081967 134.09766 L 174.19672131148 132.84161999999998 L 181.77049180328 132.461595 L 189.34426229508 132.820695 L 196.91803278689 134.158275 L 204.49180327869 133.164675 L 212.06557377049 133.14266999999998 L 219.6393442623 133.87518 L 227.2131147541 133.975485 L 234.7868852459 134.16651 L 242.3606557377 133.989525 L 249.93442622951 132.316065 L 257.50819672131 134.05041 L 265.08196721311 133.97373 L 272.65573770492 134.213085 L 280.22950819672 132.89373 L 287.80327868852 134.080785 L 295.37704918033 134.12627999999998 L 302.95081967213 133.82738999999998 L 310.52459016393 123.76691999999997 L 318.09836065574 133.78284 L 325.67213114754 134.1306 L 333.24590163934 133.87976999999998 L 340.81967213115 133.75340999999997 L 348.39344262295 134.008425 L 355.96721311475 134.28490499999998 L 363.54098360656 133.72411499999998 L 371.11475409836 133.642845 L 378.68852459016 128.22029999999998 L 386.26229508197 132.81516 L 393.83606557377 134.218485 L 401.40983606557 133.89299999999997 L 408.98360655738 134.011125 L 416.55737704918 134.187705 L 424.13114754098 127.96677 L 431.70491803279 133.343415 L 439.27868852459 133.89974999999998 L 446.85245901639 134.37036 L 454.4262295082 133.38216 L 462 134.528715 L 462 270 L 454.4262295082 270 L 446.85245901639 270 L 439.27868852459 270 L 431.70491803279 270 L 424.13114754098 270 L 416.55737704918 270 L 408.98360655738 270 L 401.40983606557 270 L 393.83606557377 270 L 386.26229508197 270 L 378.68852459016 270 L 371.11475409836 270 L 363.54098360656 270 L 355.96721311475 270 L 348.39344262295 270 L 340.81967213115 270 L 333.24590163934 270 L 325.67213114754 270 L 318.09836065574 270 L 310.52459016393 270 L 302.95081967213 270 L 295.37704918033 270 L 287.80327868852 270 L 280.22950819672 270 L 272.65573770492 270 L 265.08196721311 270 L 257.50819672131 270 L 249.93442622951 270 L 242.3606557377 270 L 234.7868852459 270 L 227.2131147541 270 L 219.6393442623 270 L 212.06557377049 270 L 204.49180327869 270 L 196.91803278689 270 L 189.34426229508 270 L 181.77049180328 270 L 174.19672131148 270 L 166.62295081967 270 L 159.04918032787 270 L 151.47540983607 270 L 143.90163934426 270 L 136.32786885246 270 L 128.75409836066 270 L 121.18032786885 270 L 113.60655737705 270 L 106.03278688525 270 L 98.459016393443 270 L 90.885245901639 270 L 83.311475409836 270 L 75.737704918033 270 L 68.16393442623 270 L 60.590163934426 270 L 53.016393442623 270 L 45.44262295082 270 L 37.868852459016 270 L 30.295081967213 270 L 22.72131147541 270 L 15.147540983607 270 L 7.5737704918033 270 L 0 270" class="highcharts-area"></path><path fill="none" d="M 0 221.48397 L 7.5737704918033 134.48078999999998 L 15.147540983607 131.18976 L 22.72131147541 127.53611999999998 L 30.295081967213 74.90663999999998 L 37.868852459016 59.643405 L 45.44262295082 126.421155 L 53.016393442623 133.892055 L 60.590163934426 132.55434 L 68.16393442623 133.49110499999998 L 75.737704918033 134.23833 L 83.311475409836 133.64784 L 90.885245901639 133.372575 L 98.459016393443 132.523155 L 106.03278688525 133.66485 L 113.60655737705 132.935445 L 121.18032786885 133.26686999999998 L 128.75409836066 133.92189 L 136.32786885246 133.643925 L 143.90163934426 134.11656 L 151.47540983607 123.119595 L 159.04918032787 132.870645 L 166.62295081967 134.09766 L 174.19672131148 132.84161999999998 L 181.77049180328 132.461595 L 189.34426229508 132.820695 L 196.91803278689 134.158275 L 204.49180327869 133.164675 L 212.06557377049 133.14266999999998 L 219.6393442623 133.87518 L 227.2131147541 133.975485 L 234.7868852459 134.16651 L 242.3606557377 133.989525 L 249.93442622951 132.316065 L 257.50819672131 134.05041 L 265.08196721311 133.97373 L 272.65573770492 134.213085 L 280.22950819672 132.89373 L 287.80327868852 134.080785 L 295.37704918033 134.12627999999998 L 302.95081967213 133.82738999999998 L 310.52459016393 123.76691999999997 L 318.09836065574 133.78284 L 325.67213114754 134.1306 L 333.24590163934 133.87976999999998 L 340.81967213115 133.75340999999997 L 348.39344262295 134.008425 L 355.96721311475 134.28490499999998 L 363.54098360656 133.72411499999998 L 371.11475409836 133.642845 L 378.68852459016 128.22029999999998 L 386.26229508197 132.81516 L 393.83606557377 134.218485 L 401.40983606557 133.89299999999997 L 408.98360655738 134.011125 L 416.55737704918 134.187705 L 424.13114754098 127.96677 L 431.70491803279 133.343415 L 439.27868852459 133.89974999999998 L 446.85245901639 134.37036 L 454.4262295082 133.38216 L 462 134.528715" class="highcharts-graph" stroke-linejoin="round" stroke-linecap="round"></path><path fill="none" d="M -10 221.48397 L 0 221.48397 L 7.5737704918033 134.48078999999998 L 15.147540983607 131.18976 L 22.72131147541 127.53611999999998 L 30.295081967213 74.90663999999998 L 37.868852459016 59.643405 L 45.44262295082 126.421155 L 53.016393442623 133.892055 L 60.590163934426 132.55434 L 68.16393442623 133.49110499999998 L 75.737704918033 134.23833 L 83.311475409836 133.64784 L 90.885245901639 133.372575 L 98.459016393443 132.523155 L 106.03278688525 133.66485 L 113.60655737705 132.935445 L 121.18032786885 133.26686999999998 L 128.75409836066 133.92189 L 136.32786885246 133.643925 L 143.90163934426 134.11656 L 151.47540983607 123.119595 L 159.04918032787 132.870645 L 166.62295081967 134.09766 L 174.19672131148 132.84161999999998 L 181.77049180328 132.461595 L 189.34426229508 132.820695 L 196.91803278689 134.158275 L 204.49180327869 133.164675 L 212.06557377049 133.14266999999998 L 219.6393442623 133.87518 L 227.2131147541 133.975485 L 234.7868852459 134.16651 L 242.3606557377 133.989525 L 249.93442622951 132.316065 L 257.50819672131 134.05041 L 265.08196721311 133.97373 L 272.65573770492 134.213085 L 280.22950819672 132.89373 L 287.80327868852 134.080785 L 295.37704918033 134.12627999999998 L 302.95081967213 133.82738999999998 L 310.52459016393 123.76691999999997 L 318.09836065574 133.78284 L 325.67213114754 134.1306 L 333.24590163934 133.87976999999998 L 340.81967213115 133.75340999999997 L 348.39344262295 134.008425 L 355.96721311475 134.28490499999998 L 363.54098360656 133.72411499999998 L 371.11475409836 133.642845 L 378.68852459016 128.22029999999998 L 386.26229508197 132.81516 L 393.83606557377 134.218485 L 401.40983606557 133.89299999999997 L 408.98360655738 134.011125 L 416.55737704918 134.187705 L 424.13114754098 127.96677 L 431.70491803279 133.343415 L 439.27868852459 133.89974999999998 L 446.85245901639 134.37036 L 454.4262295082 133.38216 L 462 134.528715 L 472 134.528715" stroke-linejoin="round" visibility="visible" stroke="rgba(192,192,192,0.0001)" stroke-width="20" class="highcharts-tracker"></path></g><g class="highcharts-markers highcharts-series-4 highcharts-area-series highcharts-color-undefined highcharts-tracker " transform="translate(5,41) scale(1 1)" width="270" height="462" clip-path="none"></g><g class="highcharts-series highcharts-series-5 highcharts-area-series highcharts-color-undefined " transform="translate(5,41) scale(1 1)" width="270" height="462" clip-path="url(#highcharts-15)" visibility="hidden"><path fill="rgb(184,225,61)" d="M 0 238.908527 L 14.737704918033 148.17946 L 29.475409836066 140.144433 L 44.213114754098 136.123559 L 58.950819672131 83.14749300000003 L 73.688524590164 71.84148400000001 L 88.426229508197 135.392686 L 103.16393442623 142.185901 L 117.90163934426 141.54597600000002 L 132.6393442623 142.11154100000002 L 147.37704918033 142.454741 L 162.11475409836 141.85785900000002 L 176.85245901639 141.986702 L 191.59016393443 141.54569 L 206.32786885246 142.032319 L 221.06557377049 141.78321300000002 L 235.80327868852 141.79822800000002 L 250.54098360656 142.19634000000002 L 265.27868852459 142.025741 L 280.01639344262 142.25697200000002 L 294.75409836066 134.475627 L 309.49180327869 141.86458000000002 L 324.22950819672 142.171172 L 338.96721311475 141.72015000000002 L 353.70491803279 141.42642800000002 L 368.44262295082 141.51837700000002 L 383.18032786885 142.34663300000003 L 397.91803278689 142.03517900000003 L 412.65573770492 141.74102800000003 L 427.39344262295 142.230231 L 442.13114754098 142.20706500000003 L 456.86885245902 142.48963300000003 L 471.60655737705 142.39654000000002 L 486.34426229508 141.70284700000002 L 501.08196721311 142.297584 L 515.81967213115 142.181182 L 530.55737704918 142.37151500000002 L 545.29508196721 141.918777 L 560.03278688525 142.392107 L 574.77049180328 142.37966600000001 L 589.50819672131 142.238954 L 604.24590163934 135.326763 L 618.98360655738 142.19533900000002 L 633.72131147541 142.363507 L 648.45901639344 142.21493 L 663.19672131148 142.27727800000002 L 677.93442622951 142.17317400000002 L 692.67213114754 142.424425 L 707.40983606557 142.23108900000003 L 722.14754098361 142.12555500000002 L 736.88524590164 139.414418 L 751.62295081967 141.115689 L 766.3606557377 142.357358 L 781.09836065574 142.261548 L 795.83606557377 142.328472 L 810.5737704918 142.488775 L 825.31147540984 138.118409 L 840.04918032787 142.223367 L 854.7868852459 142.27341700000002 L 869.52459016393 142.53811000000002 L 884.26229508197 142.138854 L 899 142.547119 L 899 286 L 884.26229508197 286 L 869.52459016393 286 L 854.7868852459 286 L 840.04918032787 286 L 825.31147540984 286 L 810.5737704918 286 L 795.83606557377 286 L 781.09836065574 286 L 766.3606557377 286 L 751.62295081967 286 L 736.88524590164 286 L 722.14754098361 286 L 707.40983606557 286 L 692.67213114754 286 L 677.93442622951 286 L 663.19672131148 286 L 648.45901639344 286 L 633.72131147541 286 L 618.98360655738 286 L 604.24590163934 286 L 589.50819672131 286 L 574.77049180328 286 L 560.03278688525 286 L 545.29508196721 286 L 530.55737704918 286 L 515.81967213115 286 L 501.08196721311 286 L 486.34426229508 286 L 471.60655737705 286 L 456.86885245902 286 L 442.13114754098 286 L 427.39344262295 286 L 412.65573770492 286 L 397.91803278689 286 L 383.18032786885 286 L 368.44262295082 286 L 353.70491803279 286 L 338.96721311475 286 L 324.22950819672 286 L 309.49180327869 286 L 294.75409836066 286 L 280.01639344262 286 L 265.27868852459 286 L 250.54098360656 286 L 235.80327868852 286 L 221.06557377049 286 L 206.32786885246 286 L 191.59016393443 286 L 176.85245901639 286 L 162.11475409836 286 L 147.37704918033 286 L 132.6393442623 286 L 117.90163934426 286 L 103.16393442623 286 L 88.426229508197 286 L 73.688524590164 286 L 58.950819672131 286 L 44.213114754098 286 L 29.475409836066 286 L 14.737704918033 286 L 0 286" class="highcharts-area"></path><path fill="none" d="M 0 238.908527 L 14.737704918033 148.17946 L 29.475409836066 140.144433 L 44.213114754098 136.123559 L 58.950819672131 83.14749300000003 L 73.688524590164 71.84148400000001 L 88.426229508197 135.392686 L 103.16393442623 142.185901 L 117.90163934426 141.54597600000002 L 132.6393442623 142.11154100000002 L 147.37704918033 142.454741 L 162.11475409836 141.85785900000002 L 176.85245901639 141.986702 L 191.59016393443 141.54569 L 206.32786885246 142.032319 L 221.06557377049 141.78321300000002 L 235.80327868852 141.79822800000002 L 250.54098360656 142.19634000000002 L 265.27868852459 142.025741 L 280.01639344262 142.25697200000002 L 294.75409836066 134.475627 L 309.49180327869 141.86458000000002 L 324.22950819672 142.171172 L 338.96721311475 141.72015000000002 L 353.70491803279 141.42642800000002 L 368.44262295082 141.51837700000002 L 383.18032786885 142.34663300000003 L 397.91803278689 142.03517900000003 L 412.65573770492 141.74102800000003 L 427.39344262295 142.230231 L 442.13114754098 142.20706500000003 L 456.86885245902 142.48963300000003 L 471.60655737705 142.39654000000002 L 486.34426229508 141.70284700000002 L 501.08196721311 142.297584 L 515.81967213115 142.181182 L 530.55737704918 142.37151500000002 L 545.29508196721 141.918777 L 560.03278688525 142.392107 L 574.77049180328 142.37966600000001 L 589.50819672131 142.238954 L 604.24590163934 135.326763 L 618.98360655738 142.19533900000002 L 633.72131147541 142.363507 L 648.45901639344 142.21493 L 663.19672131148 142.27727800000002 L 677.93442622951 142.17317400000002 L 692.67213114754 142.424425 L 707.40983606557 142.23108900000003 L 722.14754098361 142.12555500000002 L 736.88524590164 139.414418 L 751.62295081967 141.115689 L 766.3606557377 142.357358 L 781.09836065574 142.261548 L 795.83606557377 142.328472 L 810.5737704918 142.488775 L 825.31147540984 138.118409 L 840.04918032787 142.223367 L 854.7868852459 142.27341700000002 L 869.52459016393 142.53811000000002 L 884.26229508197 142.138854 L 899 142.547119" class="highcharts-graph" stroke-linejoin="round" stroke-linecap="round"></path><path fill="none" d="M -10 238.908527 L 0 238.908527 L 14.737704918033 148.17946 L 29.475409836066 140.144433 L 44.213114754098 136.123559 L 58.950819672131 83.14749300000003 L 73.688524590164 71.84148400000001 L 88.426229508197 135.392686 L 103.16393442623 142.185901 L 117.90163934426 141.54597600000002 L 132.6393442623 142.11154100000002 L 147.37704918033 142.454741 L 162.11475409836 141.85785900000002 L 176.85245901639 141.986702 L 191.59016393443 141.54569 L 206.32786885246 142.032319 L 221.06557377049 141.78321300000002 L 235.80327868852 141.79822800000002 L 250.54098360656 142.19634000000002 L 265.27868852459 142.025741 L 280.01639344262 142.25697200000002 L 294.75409836066 134.475627 L 309.49180327869 141.86458000000002 L 324.22950819672 142.171172 L 338.96721311475 141.72015000000002 L 353.70491803279 141.42642800000002 L 368.44262295082 141.51837700000002 L 383.18032786885 142.34663300000003 L 397.91803278689 142.03517900000003 L 412.65573770492 141.74102800000003 L 427.39344262295 142.230231 L 442.13114754098 142.20706500000003 L 456.86885245902 142.48963300000003 L 471.60655737705 142.39654000000002 L 486.34426229508 141.70284700000002 L 501.08196721311 142.297584 L 515.81967213115 142.181182 L 530.55737704918 142.37151500000002 L 545.29508196721 141.918777 L 560.03278688525 142.392107 L 574.77049180328 142.37966600000001 L 589.50819672131 142.238954 L 604.24590163934 135.326763 L 618.98360655738 142.19533900000002 L 633.72131147541 142.363507 L 648.45901639344 142.21493 L 663.19672131148 142.27727800000002 L 677.93442622951 142.17317400000002 L 692.67213114754 142.424425 L 707.40983606557 142.23108900000003 L 722.14754098361 142.12555500000002 L 736.88524590164 139.414418 L 751.62295081967 141.115689 L 766.3606557377 142.357358 L 781.09836065574 142.261548 L 795.83606557377 142.328472 L 810.5737704918 142.488775 L 825.31147540984 138.118409 L 840.04918032787 142.223367 L 854.7868852459 142.27341700000002 L 869.52459016393 142.53811000000002 L 884.26229508197 142.138854 L 899 142.547119 L 909 142.547119" stroke-linejoin="round" visibility="hidden" stroke="rgba(192,192,192,0.0001)" stroke-width="20" class="highcharts-tracker"></path></g><g class="highcharts-markers highcharts-series-5 highcharts-area-series highcharts-color-undefined highcharts-tracker " transform="translate(5,41) scale(1 1)" width="270" height="462" clip-path="none" visibility="hidden"></g><g class="highcharts-series highcharts-series-6 highcharts-area-series highcharts-color-undefined " transform="translate(5,41) scale(1 1)" width="270" height="462" clip-path="url(#highcharts-15)" visibility="hidden"><path fill="gold" d="M 0 245.474801 L 14.737704918033 168.925185 L 29.475409836066 141.225799 L 44.213114754098 137.04262 L 58.950819672131 87.33024300000002 L 73.688524590164 76.00736 L 88.426229508197 136.652087 L 103.16393442623 142.40154500000003 L 117.90163934426 142.11912 L 132.6393442623 142.36679600000002 L 147.37704918033 142.545546 L 162.11475409836 142.181182 L 176.85245901639 142.32389600000002 L 191.59016393443 142.14428800000002 L 206.32786885246 142.328472 L 221.06557377049 142.23380600000002 L 235.80327868852 142.295868 L 250.54098360656 142.42928700000002 L 265.27868852459 142.33833900000002 L 280.01639344262 142.377378 L 294.75409836066 141.886888 L 309.49180327869 142.259546 L 324.22950819672 142.38309800000002 L 338.96721311475 142.30087300000002 L 353.70491803279 142.21807600000002 L 368.44262295082 142.022309 L 383.18032786885 142.473045 L 397.91803278689 142.426284 L 412.65573770492 142.315459 L 427.39344262295 142.393537 L 442.13114754098 142.396683 L 456.86885245902 142.59645400000002 L 471.60655737705 142.492779 L 486.34426229508 142.29501000000002 L 501.08196721311 142.49735500000003 L 515.81967213115 142.52266600000002 L 530.55737704918 142.49449500000003 L 545.29508196721 142.254398 L 560.03278688525 142.54068400000003 L 574.77049180328 142.53181800000002 L 589.50819672131 142.44087000000002 L 604.24590163934 141.49106400000002 L 618.98360655738 142.42657000000003 L 633.72131147541 142.562563 L 648.45901639344 142.476191 L 663.19672131148 142.52195100000003 L 677.93442622951 142.36736800000003 L 692.67213114754 142.575433 L 707.40983606557 142.55455500000002 L 722.14754098361 142.34935000000002 L 736.88524590164 140.84027100000003 L 751.62295081967 141.59545400000002 L 766.3606557377 142.462606 L 781.09836065574 142.393966 L 795.83606557377 142.56099 L 810.5737704918 142.668812 L 825.31147540984 141.76848400000003 L 840.04918032787 142.47218700000002 L 854.7868852459 142.51952 L 869.52459016393 142.699128 L 884.26229508197 142.526384 L 899 142.683684 L 899 286 L 884.26229508197 286 L 869.52459016393 286 L 854.7868852459 286 L 840.04918032787 286 L 825.31147540984 286 L 810.5737704918 286 L 795.83606557377 286 L 781.09836065574 286 L 766.3606557377 286 L 751.62295081967 286 L 736.88524590164 286 L 722.14754098361 286 L 707.40983606557 286 L 692.67213114754 286 L 677.93442622951 286 L 663.19672131148 286 L 648.45901639344 286 L 633.72131147541 286 L 618.98360655738 286 L 604.24590163934 286 L 589.50819672131 286 L 574.77049180328 286 L 560.03278688525 286 L 545.29508196721 286 L 530.55737704918 286 L 515.81967213115 286 L 501.08196721311 286 L 486.34426229508 286 L 471.60655737705 286 L 456.86885245902 286 L 442.13114754098 286 L 427.39344262295 286 L 412.65573770492 286 L 397.91803278689 286 L 383.18032786885 286 L 368.44262295082 286 L 353.70491803279 286 L 338.96721311475 286 L 324.22950819672 286 L 309.49180327869 286 L 294.75409836066 286 L 280.01639344262 286 L 265.27868852459 286 L 250.54098360656 286 L 235.80327868852 286 L 221.06557377049 286 L 206.32786885246 286 L 191.59016393443 286 L 176.85245901639 286 L 162.11475409836 286 L 147.37704918033 286 L 132.6393442623 286 L 117.90163934426 286 L 103.16393442623 286 L 88.426229508197 286 L 73.688524590164 286 L 58.950819672131 286 L 44.213114754098 286 L 29.475409836066 286 L 14.737704918033 286 L 0 286" class="highcharts-area"></path><path fill="none" d="M 0 245.474801 L 14.737704918033 168.925185 L 29.475409836066 141.225799 L 44.213114754098 137.04262 L 58.950819672131 87.33024300000002 L 73.688524590164 76.00736 L 88.426229508197 136.652087 L 103.16393442623 142.40154500000003 L 117.90163934426 142.11912 L 132.6393442623 142.36679600000002 L 147.37704918033 142.545546 L 162.11475409836 142.181182 L 176.85245901639 142.32389600000002 L 191.59016393443 142.14428800000002 L 206.32786885246 142.328472 L 221.06557377049 142.23380600000002 L 235.80327868852 142.295868 L 250.54098360656 142.42928700000002 L 265.27868852459 142.33833900000002 L 280.01639344262 142.377378 L 294.75409836066 141.886888 L 309.49180327869 142.259546 L 324.22950819672 142.38309800000002 L 338.96721311475 142.30087300000002 L 353.70491803279 142.21807600000002 L 368.44262295082 142.022309 L 383.18032786885 142.473045 L 397.91803278689 142.426284 L 412.65573770492 142.315459 L 427.39344262295 142.393537 L 442.13114754098 142.396683 L 456.86885245902 142.59645400000002 L 471.60655737705 142.492779 L 486.34426229508 142.29501000000002 L 501.08196721311 142.49735500000003 L 515.81967213115 142.52266600000002 L 530.55737704918 142.49449500000003 L 545.29508196721 142.254398 L 560.03278688525 142.54068400000003 L 574.77049180328 142.53181800000002 L 589.50819672131 142.44087000000002 L 604.24590163934 141.49106400000002 L 618.98360655738 142.42657000000003 L 633.72131147541 142.562563 L 648.45901639344 142.476191 L 663.19672131148 142.52195100000003 L 677.93442622951 142.36736800000003 L 692.67213114754 142.575433 L 707.40983606557 142.55455500000002 L 722.14754098361 142.34935000000002 L 736.88524590164 140.84027100000003 L 751.62295081967 141.59545400000002 L 766.3606557377 142.462606 L 781.09836065574 142.393966 L 795.83606557377 142.56099 L 810.5737704918 142.668812 L 825.31147540984 141.76848400000003 L 840.04918032787 142.47218700000002 L 854.7868852459 142.51952 L 869.52459016393 142.699128 L 884.26229508197 142.526384 L 899 142.683684" class="highcharts-graph" stroke-linejoin="round" stroke-linecap="round"></path><path fill="none" d="M -10 245.474801 L 0 245.474801 L 14.737704918033 168.925185 L 29.475409836066 141.225799 L 44.213114754098 137.04262 L 58.950819672131 87.33024300000002 L 73.688524590164 76.00736 L 88.426229508197 136.652087 L 103.16393442623 142.40154500000003 L 117.90163934426 142.11912 L 132.6393442623 142.36679600000002 L 147.37704918033 142.545546 L 162.11475409836 142.181182 L 176.85245901639 142.32389600000002 L 191.59016393443 142.14428800000002 L 206.32786885246 142.328472 L 221.06557377049 142.23380600000002 L 235.80327868852 142.295868 L 250.54098360656 142.42928700000002 L 265.27868852459 142.33833900000002 L 280.01639344262 142.377378 L 294.75409836066 141.886888 L 309.49180327869 142.259546 L 324.22950819672 142.38309800000002 L 338.96721311475 142.30087300000002 L 353.70491803279 142.21807600000002 L 368.44262295082 142.022309 L 383.18032786885 142.473045 L 397.91803278689 142.426284 L 412.65573770492 142.315459 L 427.39344262295 142.393537 L 442.13114754098 142.396683 L 456.86885245902 142.59645400000002 L 471.60655737705 142.492779 L 486.34426229508 142.29501000000002 L 501.08196721311 142.49735500000003 L 515.81967213115 142.52266600000002 L 530.55737704918 142.49449500000003 L 545.29508196721 142.254398 L 560.03278688525 142.54068400000003 L 574.77049180328 142.53181800000002 L 589.50819672131 142.44087000000002 L 604.24590163934 141.49106400000002 L 618.98360655738 142.42657000000003 L 633.72131147541 142.562563 L 648.45901639344 142.476191 L 663.19672131148 142.52195100000003 L 677.93442622951 142.36736800000003 L 692.67213114754 142.575433 L 707.40983606557 142.55455500000002 L 722.14754098361 142.34935000000002 L 736.88524590164 140.84027100000003 L 751.62295081967 141.59545400000002 L 766.3606557377 142.462606 L 781.09836065574 142.393966 L 795.83606557377 142.56099 L 810.5737704918 142.668812 L 825.31147540984 141.76848400000003 L 840.04918032787 142.47218700000002 L 854.7868852459 142.51952 L 869.52459016393 142.699128 L 884.26229508197 142.526384 L 899 142.683684 L 909 142.683684" stroke-linejoin="round" visibility="hidden" stroke="rgba(192,192,192,0.0001)" stroke-width="20" class="highcharts-tracker"></path></g><g class="highcharts-markers highcharts-series-6 highcharts-area-series highcharts-color-undefined highcharts-tracker " transform="translate(5,41) scale(1 1)" width="270" height="462" clip-path="none" visibility="hidden"></g><g class="highcharts-series highcharts-series-7 highcharts-area-series highcharts-color-undefined " transform="translate(5,41) scale(1 1)" width="270" height="462" clip-path="url(#highcharts-15)" visibility="hidden"><path fill="Orange" d="M 0 246.795263 L 14.737704918033 182.06645600000002 L 29.475409836066 142.182898 L 44.213114754098 137.72630300000003 L 58.950819672131 95.35726200000002 L 73.688524590164 81.409614 L 88.426229508197 137.635355 L 103.16393442623 142.47504700000002 L 117.90163934426 142.37966600000001 L 132.6393442623 142.500358 L 147.37704918033 142.618762 L 162.11475409836 142.44616100000002 L 176.85245901639 142.49807 L 191.59016393443 142.369942 L 206.32786885246 142.451595 L 221.06557377049 142.45531300000002 L 235.80327868852 142.43944000000002 L 250.54098360656 142.538253 L 265.27868852459 142.44916400000002 L 280.01639344262 142.47747800000002 L 294.75409836066 142.230231 L 309.49180327869 142.423853 L 324.22950819672 142.478193 L 338.96721311475 142.43843900000002 L 353.70491803279 142.40226 L 368.44262295082 142.239812 L 383.18032786885 142.539826 L 397.91803278689 142.56456500000002 L 412.65573770492 142.45531300000002 L 427.39344262295 142.505935 L 442.13114754098 142.51165500000002 L 456.86885245902 142.700701 L 471.60655737705 142.630488 L 486.34426229508 142.454598 L 501.08196721311 142.614329 L 515.81967213115 142.62591200000003 L 530.55737704918 142.60789400000002 L 545.29508196721 142.496354 L 560.03278688525 142.62305200000003 L 574.77049180328 142.693408 L 589.50819672131 142.56070400000002 L 604.24590163934 142.246533 L 618.98360655738 142.576005 L 633.72131147541 142.68983300000002 L 648.45901639344 142.578722 L 663.19672131148 142.606321 L 677.93442622951 142.52280900000002 L 692.67213114754 142.692836 L 707.40983606557 142.742171 L 722.14754098361 142.51565900000003 L 736.88524590164 141.83426400000002 L 751.62295081967 141.93965500000002 L 766.3606557377 142.55298200000001 L 781.09836065574 142.53811000000002 L 795.83606557377 142.64021200000002 L 810.5737704918 142.717575 L 825.31147540984 142.115688 L 840.04918032787 142.571715 L 854.7868852459 142.62248000000002 L 869.52459016393 142.803518 L 884.26229508197 142.71042500000001 L 899 142.78178200000002 L 899 286 L 884.26229508197 286 L 869.52459016393 286 L 854.7868852459 286 L 840.04918032787 286 L 825.31147540984 286 L 810.5737704918 286 L 795.83606557377 286 L 781.09836065574 286 L 766.3606557377 286 L 751.62295081967 286 L 736.88524590164 286 L 722.14754098361 286 L 707.40983606557 286 L 692.67213114754 286 L 677.93442622951 286 L 663.19672131148 286 L 648.45901639344 286 L 633.72131147541 286 L 618.98360655738 286 L 604.24590163934 286 L 589.50819672131 286 L 574.77049180328 286 L 560.03278688525 286 L 545.29508196721 286 L 530.55737704918 286 L 515.81967213115 286 L 501.08196721311 286 L 486.34426229508 286 L 471.60655737705 286 L 456.86885245902 286 L 442.13114754098 286 L 427.39344262295 286 L 412.65573770492 286 L 397.91803278689 286 L 383.18032786885 286 L 368.44262295082 286 L 353.70491803279 286 L 338.96721311475 286 L 324.22950819672 286 L 309.49180327869 286 L 294.75409836066 286 L 280.01639344262 286 L 265.27868852459 286 L 250.54098360656 286 L 235.80327868852 286 L 221.06557377049 286 L 206.32786885246 286 L 191.59016393443 286 L 176.85245901639 286 L 162.11475409836 286 L 147.37704918033 286 L 132.6393442623 286 L 117.90163934426 286 L 103.16393442623 286 L 88.426229508197 286 L 73.688524590164 286 L 58.950819672131 286 L 44.213114754098 286 L 29.475409836066 286 L 14.737704918033 286 L 0 286" class="highcharts-area"></path><path fill="none" d="M 0 246.795263 L 14.737704918033 182.06645600000002 L 29.475409836066 142.182898 L 44.213114754098 137.72630300000003 L 58.950819672131 95.35726200000002 L 73.688524590164 81.409614 L 88.426229508197 137.635355 L 103.16393442623 142.47504700000002 L 117.90163934426 142.37966600000001 L 132.6393442623 142.500358 L 147.37704918033 142.618762 L 162.11475409836 142.44616100000002 L 176.85245901639 142.49807 L 191.59016393443 142.369942 L 206.32786885246 142.451595 L 221.06557377049 142.45531300000002 L 235.80327868852 142.43944000000002 L 250.54098360656 142.538253 L 265.27868852459 142.44916400000002 L 280.01639344262 142.47747800000002 L 294.75409836066 142.230231 L 309.49180327869 142.423853 L 324.22950819672 142.478193 L 338.96721311475 142.43843900000002 L 353.70491803279 142.40226 L 368.44262295082 142.239812 L 383.18032786885 142.539826 L 397.91803278689 142.56456500000002 L 412.65573770492 142.45531300000002 L 427.39344262295 142.505935 L 442.13114754098 142.51165500000002 L 456.86885245902 142.700701 L 471.60655737705 142.630488 L 486.34426229508 142.454598 L 501.08196721311 142.614329 L 515.81967213115 142.62591200000003 L 530.55737704918 142.60789400000002 L 545.29508196721 142.496354 L 560.03278688525 142.62305200000003 L 574.77049180328 142.693408 L 589.50819672131 142.56070400000002 L 604.24590163934 142.246533 L 618.98360655738 142.576005 L 633.72131147541 142.68983300000002 L 648.45901639344 142.578722 L 663.19672131148 142.606321 L 677.93442622951 142.52280900000002 L 692.67213114754 142.692836 L 707.40983606557 142.742171 L 722.14754098361 142.51565900000003 L 736.88524590164 141.83426400000002 L 751.62295081967 141.93965500000002 L 766.3606557377 142.55298200000001 L 781.09836065574 142.53811000000002 L 795.83606557377 142.64021200000002 L 810.5737704918 142.717575 L 825.31147540984 142.115688 L 840.04918032787 142.571715 L 854.7868852459 142.62248000000002 L 869.52459016393 142.803518 L 884.26229508197 142.71042500000001 L 899 142.78178200000002" class="highcharts-graph" stroke-linejoin="round" stroke-linecap="round"></path><path fill="none" d="M -10 246.795263 L 0 246.795263 L 14.737704918033 182.06645600000002 L 29.475409836066 142.182898 L 44.213114754098 137.72630300000003 L 58.950819672131 95.35726200000002 L 73.688524590164 81.409614 L 88.426229508197 137.635355 L 103.16393442623 142.47504700000002 L 117.90163934426 142.37966600000001 L 132.6393442623 142.500358 L 147.37704918033 142.618762 L 162.11475409836 142.44616100000002 L 176.85245901639 142.49807 L 191.59016393443 142.369942 L 206.32786885246 142.451595 L 221.06557377049 142.45531300000002 L 235.80327868852 142.43944000000002 L 250.54098360656 142.538253 L 265.27868852459 142.44916400000002 L 280.01639344262 142.47747800000002 L 294.75409836066 142.230231 L 309.49180327869 142.423853 L 324.22950819672 142.478193 L 338.96721311475 142.43843900000002 L 353.70491803279 142.40226 L 368.44262295082 142.239812 L 383.18032786885 142.539826 L 397.91803278689 142.56456500000002 L 412.65573770492 142.45531300000002 L 427.39344262295 142.505935 L 442.13114754098 142.51165500000002 L 456.86885245902 142.700701 L 471.60655737705 142.630488 L 486.34426229508 142.454598 L 501.08196721311 142.614329 L 515.81967213115 142.62591200000003 L 530.55737704918 142.60789400000002 L 545.29508196721 142.496354 L 560.03278688525 142.62305200000003 L 574.77049180328 142.693408 L 589.50819672131 142.56070400000002 L 604.24590163934 142.246533 L 618.98360655738 142.576005 L 633.72131147541 142.68983300000002 L 648.45901639344 142.578722 L 663.19672131148 142.606321 L 677.93442622951 142.52280900000002 L 692.67213114754 142.692836 L 707.40983606557 142.742171 L 722.14754098361 142.51565900000003 L 736.88524590164 141.83426400000002 L 751.62295081967 141.93965500000002 L 766.3606557377 142.55298200000001 L 781.09836065574 142.53811000000002 L 795.83606557377 142.64021200000002 L 810.5737704918 142.717575 L 825.31147540984 142.115688 L 840.04918032787 142.571715 L 854.7868852459 142.62248000000002 L 869.52459016393 142.803518 L 884.26229508197 142.71042500000001 L 899 142.78178200000002 L 909 142.78178200000002" stroke-linejoin="round" visibility="hidden" stroke="rgba(192,192,192,0.0001)" stroke-width="20" class="highcharts-tracker"></path></g><g class="highcharts-markers highcharts-series-7 highcharts-area-series highcharts-color-undefined highcharts-tracker " transform="translate(5,41) scale(1 1)" width="270" height="462" clip-path="none" visibility="hidden"></g><g class="highcharts-series highcharts-series-8 highcharts-area-series highcharts-color-undefined " transform="translate(5,41) scale(1 1)" width="270" height="462" clip-path="url(#highcharts-15)" visibility="hidden"><path fill="DarkOrange" d="M 0 247.883064 L 14.737704918033 189.092475 L 29.475409836066 142.36908400000002 L 44.213114754098 138.639644 L 58.950819672131 99.331804 L 73.688524590164 82.61825000000002 L 88.426229508197 138.99971800000003 L 103.16393442623 142.54197100000002 L 117.90163934426 142.495496 L 132.6393442623 142.577006 L 147.37704918033 142.670385 L 162.11475409836 142.532533 L 176.85245901639 142.589447 L 191.59016393443 142.478193 L 206.32786885246 142.52381 L 221.06557377049 142.565137 L 235.80327868852 142.52652700000002 L 250.54098360656 142.588589 L 265.27868852459 142.543115 L 280.01639344262 142.56041800000003 L 294.75409836066 142.52123600000002 L 309.49180327869 142.496068 L 324.22950819672 142.55884500000002 L 338.96721311475 142.554269 L 353.70491803279 142.48620100000002 L 368.44262295082 142.42399600000002 L 383.18032786885 142.591163 L 397.91803278689 142.61804700000002 L 412.65573770492 142.55512700000003 L 427.39344262295 142.586444 L 442.13114754098 142.564994 L 456.86885245902 145.258685 L 471.60655737705 142.69512400000002 L 486.34426229508 142.561133 L 501.08196721311 142.673674 L 515.81967213115 142.74517400000002 L 530.55737704918 142.655942 L 545.29508196721 142.638496 L 560.03278688525 142.66623800000002 L 574.77049180328 142.77263000000002 L 589.50819672131 142.631918 L 604.24590163934 142.464322 L 618.98360655738 142.632776 L 633.72131147541 142.74946400000002 L 648.45901639344 142.68926100000002 L 663.19672131148 142.67653400000003 L 677.93442622951 142.647648 L 692.67213114754 142.771343 L 707.40983606557 144.526811 L 722.14754098361 142.636494 L 736.88524590164 142.034178 L 751.62295081967 142.15058 L 766.3606557377 142.61461500000001 L 781.09836065574 142.585014 L 795.83606557377 142.688689 L 810.5737704918 142.77120000000002 L 825.31147540984 142.40583500000002 L 840.04918032787 142.63821000000002 L 854.7868852459 142.70284600000002 L 869.52459016393 153.85126900000003 L 884.26229508197 145.01758700000002 L 899 155.949079 L 899 286 L 884.26229508197 286 L 869.52459016393 286 L 854.7868852459 286 L 840.04918032787 286 L 825.31147540984 286 L 810.5737704918 286 L 795.83606557377 286 L 781.09836065574 286 L 766.3606557377 286 L 751.62295081967 286 L 736.88524590164 286 L 722.14754098361 286 L 707.40983606557 286 L 692.67213114754 286 L 677.93442622951 286 L 663.19672131148 286 L 648.45901639344 286 L 633.72131147541 286 L 618.98360655738 286 L 604.24590163934 286 L 589.50819672131 286 L 574.77049180328 286 L 560.03278688525 286 L 545.29508196721 286 L 530.55737704918 286 L 515.81967213115 286 L 501.08196721311 286 L 486.34426229508 286 L 471.60655737705 286 L 456.86885245902 286 L 442.13114754098 286 L 427.39344262295 286 L 412.65573770492 286 L 397.91803278689 286 L 383.18032786885 286 L 368.44262295082 286 L 353.70491803279 286 L 338.96721311475 286 L 324.22950819672 286 L 309.49180327869 286 L 294.75409836066 286 L 280.01639344262 286 L 265.27868852459 286 L 250.54098360656 286 L 235.80327868852 286 L 221.06557377049 286 L 206.32786885246 286 L 191.59016393443 286 L 176.85245901639 286 L 162.11475409836 286 L 147.37704918033 286 L 132.6393442623 286 L 117.90163934426 286 L 103.16393442623 286 L 88.426229508197 286 L 73.688524590164 286 L 58.950819672131 286 L 44.213114754098 286 L 29.475409836066 286 L 14.737704918033 286 L 0 286" class="highcharts-area"></path><path fill="none" d="M 0 247.883064 L 14.737704918033 189.092475 L 29.475409836066 142.36908400000002 L 44.213114754098 138.639644 L 58.950819672131 99.331804 L 73.688524590164 82.61825000000002 L 88.426229508197 138.99971800000003 L 103.16393442623 142.54197100000002 L 117.90163934426 142.495496 L 132.6393442623 142.577006 L 147.37704918033 142.670385 L 162.11475409836 142.532533 L 176.85245901639 142.589447 L 191.59016393443 142.478193 L 206.32786885246 142.52381 L 221.06557377049 142.565137 L 235.80327868852 142.52652700000002 L 250.54098360656 142.588589 L 265.27868852459 142.543115 L 280.01639344262 142.56041800000003 L 294.75409836066 142.52123600000002 L 309.49180327869 142.496068 L 324.22950819672 142.55884500000002 L 338.96721311475 142.554269 L 353.70491803279 142.48620100000002 L 368.44262295082 142.42399600000002 L 383.18032786885 142.591163 L 397.91803278689 142.61804700000002 L 412.65573770492 142.55512700000003 L 427.39344262295 142.586444 L 442.13114754098 142.564994 L 456.86885245902 145.258685 L 471.60655737705 142.69512400000002 L 486.34426229508 142.561133 L 501.08196721311 142.673674 L 515.81967213115 142.74517400000002 L 530.55737704918 142.655942 L 545.29508196721 142.638496 L 560.03278688525 142.66623800000002 L 574.77049180328 142.77263000000002 L 589.50819672131 142.631918 L 604.24590163934 142.464322 L 618.98360655738 142.632776 L 633.72131147541 142.74946400000002 L 648.45901639344 142.68926100000002 L 663.19672131148 142.67653400000003 L 677.93442622951 142.647648 L 692.67213114754 142.771343 L 707.40983606557 144.526811 L 722.14754098361 142.636494 L 736.88524590164 142.034178 L 751.62295081967 142.15058 L 766.3606557377 142.61461500000001 L 781.09836065574 142.585014 L 795.83606557377 142.688689 L 810.5737704918 142.77120000000002 L 825.31147540984 142.40583500000002 L 840.04918032787 142.63821000000002 L 854.7868852459 142.70284600000002 L 869.52459016393 153.85126900000003 L 884.26229508197 145.01758700000002 L 899 155.949079" class="highcharts-graph" stroke-linejoin="round" stroke-linecap="round"></path><path fill="none" d="M -10 247.883064 L 0 247.883064 L 14.737704918033 189.092475 L 29.475409836066 142.36908400000002 L 44.213114754098 138.639644 L 58.950819672131 99.331804 L 73.688524590164 82.61825000000002 L 88.426229508197 138.99971800000003 L 103.16393442623 142.54197100000002 L 117.90163934426 142.495496 L 132.6393442623 142.577006 L 147.37704918033 142.670385 L 162.11475409836 142.532533 L 176.85245901639 142.589447 L 191.59016393443 142.478193 L 206.32786885246 142.52381 L 221.06557377049 142.565137 L 235.80327868852 142.52652700000002 L 250.54098360656 142.588589 L 265.27868852459 142.543115 L 280.01639344262 142.56041800000003 L 294.75409836066 142.52123600000002 L 309.49180327869 142.496068 L 324.22950819672 142.55884500000002 L 338.96721311475 142.554269 L 353.70491803279 142.48620100000002 L 368.44262295082 142.42399600000002 L 383.18032786885 142.591163 L 397.91803278689 142.61804700000002 L 412.65573770492 142.55512700000003 L 427.39344262295 142.586444 L 442.13114754098 142.564994 L 456.86885245902 145.258685 L 471.60655737705 142.69512400000002 L 486.34426229508 142.561133 L 501.08196721311 142.673674 L 515.81967213115 142.74517400000002 L 530.55737704918 142.655942 L 545.29508196721 142.638496 L 560.03278688525 142.66623800000002 L 574.77049180328 142.77263000000002 L 589.50819672131 142.631918 L 604.24590163934 142.464322 L 618.98360655738 142.632776 L 633.72131147541 142.74946400000002 L 648.45901639344 142.68926100000002 L 663.19672131148 142.67653400000003 L 677.93442622951 142.647648 L 692.67213114754 142.771343 L 707.40983606557 144.526811 L 722.14754098361 142.636494 L 736.88524590164 142.034178 L 751.62295081967 142.15058 L 766.3606557377 142.61461500000001 L 781.09836065574 142.585014 L 795.83606557377 142.688689 L 810.5737704918 142.77120000000002 L 825.31147540984 142.40583500000002 L 840.04918032787 142.63821000000002 L 854.7868852459 142.70284600000002 L 869.52459016393 153.85126900000003 L 884.26229508197 145.01758700000002 L 899 155.949079 L 909 155.949079" stroke-linejoin="round" visibility="hidden" stroke="rgba(192,192,192,0.0001)" stroke-width="20" class="highcharts-tracker"></path></g><g class="highcharts-markers highcharts-series-8 highcharts-area-series highcharts-color-undefined highcharts-tracker " transform="translate(5,41) scale(1 1)" width="270" height="462" clip-path="none" visibility="hidden"></g><g class="highcharts-series highcharts-series-9 highcharts-area-series highcharts-color-undefined " transform="translate(5,41) scale(1 1)" width="270" height="462" clip-path="url(#highcharts-15)" visibility="hidden"><path fill="Coral" d="M 0 248.17049400000002 L 14.737704918033 196.91414600000002 L 29.475409836066 142.518948 L 44.213114754098 139.23681200000001 L 58.950819672131 103.37169700000001 L 73.688524590164 84.15764500000003 L 88.426229508197 139.824971 L 103.16393442623 142.61104 L 117.90163934426 142.586587 L 132.6393442623 142.660804 L 147.37704918033 142.71299900000002 L 162.11475409836 142.57328800000002 L 176.85245901639 142.66008900000003 L 191.59016393443 142.567282 L 206.32786885246 142.56671000000003 L 221.06557377049 142.607751 L 235.80327868852 142.60246 L 250.54098360656 142.640927 L 265.27868852459 142.615044 L 280.01639344262 142.63392000000002 L 294.75409836066 142.618762 L 309.49180327869 142.594023 L 324.22950819672 142.62019200000003 L 338.96721311475 142.610611 L 353.70491803279 142.56899800000002 L 368.44262295082 142.52953000000002 L 383.18032786885 142.63692300000002 L 397.91803278689 142.679966 L 412.65573770492 142.62190800000002 L 427.39344262295 142.656228 L 442.13114754098 142.665523 L 456.86885245902 152.73687 L 471.60655737705 142.777778 L 486.34426229508 142.635636 L 501.08196721311 142.700129 L 515.81967213115 146.63391600000003 L 530.55737704918 142.727156 L 545.29508196721 142.71686 L 560.03278688525 142.70198800000003 L 574.77049180328 150.570706 L 589.50819672131 142.710282 L 604.24590163934 142.637066 L 618.98360655738 142.70127300000001 L 633.72131147541 143.34606 L 648.45901639344 142.730588 L 663.19672131148 142.74174200000002 L 677.93442622951 142.75775800000002 L 692.67213114754 147.06706300000002 L 707.40983606557 153.18717700000002 L 722.14754098361 142.741599 L 736.88524590164 142.37294500000002 L 751.62295081967 142.299157 L 766.3606557377 142.658802 L 781.09836065574 142.64550300000002 L 795.83606557377 142.732876 L 810.5737704918 142.818819 L 825.31147540984 142.551838 L 840.04918032787 142.697269 L 854.7868852459 142.777778 L 869.52459016393 159.47431500000002 L 884.26229508197 154.27426300000002 L 899 163.230925 L 899 286 L 884.26229508197 286 L 869.52459016393 286 L 854.7868852459 286 L 840.04918032787 286 L 825.31147540984 286 L 810.5737704918 286 L 795.83606557377 286 L 781.09836065574 286 L 766.3606557377 286 L 751.62295081967 286 L 736.88524590164 286 L 722.14754098361 286 L 707.40983606557 286 L 692.67213114754 286 L 677.93442622951 286 L 663.19672131148 286 L 648.45901639344 286 L 633.72131147541 286 L 618.98360655738 286 L 604.24590163934 286 L 589.50819672131 286 L 574.77049180328 286 L 560.03278688525 286 L 545.29508196721 286 L 530.55737704918 286 L 515.81967213115 286 L 501.08196721311 286 L 486.34426229508 286 L 471.60655737705 286 L 456.86885245902 286 L 442.13114754098 286 L 427.39344262295 286 L 412.65573770492 286 L 397.91803278689 286 L 383.18032786885 286 L 368.44262295082 286 L 353.70491803279 286 L 338.96721311475 286 L 324.22950819672 286 L 309.49180327869 286 L 294.75409836066 286 L 280.01639344262 286 L 265.27868852459 286 L 250.54098360656 286 L 235.80327868852 286 L 221.06557377049 286 L 206.32786885246 286 L 191.59016393443 286 L 176.85245901639 286 L 162.11475409836 286 L 147.37704918033 286 L 132.6393442623 286 L 117.90163934426 286 L 103.16393442623 286 L 88.426229508197 286 L 73.688524590164 286 L 58.950819672131 286 L 44.213114754098 286 L 29.475409836066 286 L 14.737704918033 286 L 0 286" class="highcharts-area"></path><path fill="none" d="M 0 248.17049400000002 L 14.737704918033 196.91414600000002 L 29.475409836066 142.518948 L 44.213114754098 139.23681200000001 L 58.950819672131 103.37169700000001 L 73.688524590164 84.15764500000003 L 88.426229508197 139.824971 L 103.16393442623 142.61104 L 117.90163934426 142.586587 L 132.6393442623 142.660804 L 147.37704918033 142.71299900000002 L 162.11475409836 142.57328800000002 L 176.85245901639 142.66008900000003 L 191.59016393443 142.567282 L 206.32786885246 142.56671000000003 L 221.06557377049 142.607751 L 235.80327868852 142.60246 L 250.54098360656 142.640927 L 265.27868852459 142.615044 L 280.01639344262 142.63392000000002 L 294.75409836066 142.618762 L 309.49180327869 142.594023 L 324.22950819672 142.62019200000003 L 338.96721311475 142.610611 L 353.70491803279 142.56899800000002 L 368.44262295082 142.52953000000002 L 383.18032786885 142.63692300000002 L 397.91803278689 142.679966 L 412.65573770492 142.62190800000002 L 427.39344262295 142.656228 L 442.13114754098 142.665523 L 456.86885245902 152.73687 L 471.60655737705 142.777778 L 486.34426229508 142.635636 L 501.08196721311 142.700129 L 515.81967213115 146.63391600000003 L 530.55737704918 142.727156 L 545.29508196721 142.71686 L 560.03278688525 142.70198800000003 L 574.77049180328 150.570706 L 589.50819672131 142.710282 L 604.24590163934 142.637066 L 618.98360655738 142.70127300000001 L 633.72131147541 143.34606 L 648.45901639344 142.730588 L 663.19672131148 142.74174200000002 L 677.93442622951 142.75775800000002 L 692.67213114754 147.06706300000002 L 707.40983606557 153.18717700000002 L 722.14754098361 142.741599 L 736.88524590164 142.37294500000002 L 751.62295081967 142.299157 L 766.3606557377 142.658802 L 781.09836065574 142.64550300000002 L 795.83606557377 142.732876 L 810.5737704918 142.818819 L 825.31147540984 142.551838 L 840.04918032787 142.697269 L 854.7868852459 142.777778 L 869.52459016393 159.47431500000002 L 884.26229508197 154.27426300000002 L 899 163.230925" class="highcharts-graph" stroke-linejoin="round" stroke-linecap="round"></path><path fill="none" d="M -10 248.17049400000002 L 0 248.17049400000002 L 14.737704918033 196.91414600000002 L 29.475409836066 142.518948 L 44.213114754098 139.23681200000001 L 58.950819672131 103.37169700000001 L 73.688524590164 84.15764500000003 L 88.426229508197 139.824971 L 103.16393442623 142.61104 L 117.90163934426 142.586587 L 132.6393442623 142.660804 L 147.37704918033 142.71299900000002 L 162.11475409836 142.57328800000002 L 176.85245901639 142.66008900000003 L 191.59016393443 142.567282 L 206.32786885246 142.56671000000003 L 221.06557377049 142.607751 L 235.80327868852 142.60246 L 250.54098360656 142.640927 L 265.27868852459 142.615044 L 280.01639344262 142.63392000000002 L 294.75409836066 142.618762 L 309.49180327869 142.594023 L 324.22950819672 142.62019200000003 L 338.96721311475 142.610611 L 353.70491803279 142.56899800000002 L 368.44262295082 142.52953000000002 L 383.18032786885 142.63692300000002 L 397.91803278689 142.679966 L 412.65573770492 142.62190800000002 L 427.39344262295 142.656228 L 442.13114754098 142.665523 L 456.86885245902 152.73687 L 471.60655737705 142.777778 L 486.34426229508 142.635636 L 501.08196721311 142.700129 L 515.81967213115 146.63391600000003 L 530.55737704918 142.727156 L 545.29508196721 142.71686 L 560.03278688525 142.70198800000003 L 574.77049180328 150.570706 L 589.50819672131 142.710282 L 604.24590163934 142.637066 L 618.98360655738 142.70127300000001 L 633.72131147541 143.34606 L 648.45901639344 142.730588 L 663.19672131148 142.74174200000002 L 677.93442622951 142.75775800000002 L 692.67213114754 147.06706300000002 L 707.40983606557 153.18717700000002 L 722.14754098361 142.741599 L 736.88524590164 142.37294500000002 L 751.62295081967 142.299157 L 766.3606557377 142.658802 L 781.09836065574 142.64550300000002 L 795.83606557377 142.732876 L 810.5737704918 142.818819 L 825.31147540984 142.551838 L 840.04918032787 142.697269 L 854.7868852459 142.777778 L 869.52459016393 159.47431500000002 L 884.26229508197 154.27426300000002 L 899 163.230925 L 909 163.230925" stroke-linejoin="round" visibility="hidden" stroke="rgba(192,192,192,0.0001)" stroke-width="20" class="highcharts-tracker"></path></g><g class="highcharts-markers highcharts-series-9 highcharts-area-series highcharts-color-undefined highcharts-tracker " transform="translate(5,41) scale(1 1)" width="270" height="462" clip-path="none" visibility="hidden"></g><g class="highcharts-series highcharts-series-10 highcharts-area-series highcharts-color-undefined " transform="translate(5,41) scale(1 1)" width="270" height="462" clip-path="url(#highcharts-15)" visibility="hidden"><path fill="rgb(248,87,80)" d="M 0 256.31177 L 14.737704918033 213.318534 L 29.475409836066 167.282258 L 44.213114754098 141.36965700000002 L 58.950819672131 118.94454000000002 L 73.688524590164 108.45920799999999 L 88.426229508197 142.030889 L 103.16393442623 142.756614 L 117.90163934426 142.84098400000002 L 132.6393442623 147.587154 L 147.37704918033 163.139262 L 162.11475409836 144.12398000000002 L 176.85245901639 153.785346 L 191.59016393443 142.78035200000002 L 206.32786885246 142.76605200000003 L 221.06557377049 142.807522 L 235.80327868852 142.801802 L 250.54098360656 142.83841 L 265.27868852459 142.82468200000002 L 280.01639344262 158.196467 L 294.75409836066 142.75289600000002 L 309.49180327869 142.966395 L 324.22950819672 155.81065500000003 L 338.96721311475 142.820106 L 353.70491803279 142.767053 L 368.44262295082 142.74546 L 383.18032786885 143.61747400000002 L 397.91803278689 159.97395699999998 L 412.65573770492 158.84182600000003 L 427.39344262295 153.22664500000002 L 442.13114754098 171.70653500000003 L 456.86885245902 194.54463600000003 L 471.60655737705 176.74571200000003 L 486.34426229508 153.45930600000003 L 501.08196721311 160.89845200000002 L 515.81967213115 180.384347 L 530.55737704918 176.741422 L 545.29508196721 184.17427600000002 L 560.03278688525 170.127815 L 574.77049180328 181.19673 L 589.50819672131 170.888575 L 604.24590163934 161.14298200000002 L 618.98360655738 168.548523 L 633.72131147541 181.756718 L 648.45901639344 185.254212 L 663.19672131148 177.97079300000001 L 677.93442622951 181.568101 L 692.67213114754 192.10233900000003 L 707.40983606557 191.479288 L 722.14754098361 192.979644 L 736.88524590164 147.064489 L 751.62295081967 142.66294900000003 L 766.3606557377 142.77835000000002 L 781.09836065574 150.937501 L 795.83606557377 171.098642 L 810.5737704918 182.073034 L 825.31147540984 175.204315 L 840.04918032787 160.55653900000001 L 854.7868852459 173.25737 L 869.52459016393 191.47914500000002 L 884.26229508197 191.876399 L 899 180.67935599999998 L 899 286 L 884.26229508197 286 L 869.52459016393 286 L 854.7868852459 286 L 840.04918032787 286 L 825.31147540984 286 L 810.5737704918 286 L 795.83606557377 286 L 781.09836065574 286 L 766.3606557377 286 L 751.62295081967 286 L 736.88524590164 286 L 722.14754098361 286 L 707.40983606557 286 L 692.67213114754 286 L 677.93442622951 286 L 663.19672131148 286 L 648.45901639344 286 L 633.72131147541 286 L 618.98360655738 286 L 604.24590163934 286 L 589.50819672131 286 L 574.77049180328 286 L 560.03278688525 286 L 545.29508196721 286 L 530.55737704918 286 L 515.81967213115 286 L 501.08196721311 286 L 486.34426229508 286 L 471.60655737705 286 L 456.86885245902 286 L 442.13114754098 286 L 427.39344262295 286 L 412.65573770492 286 L 397.91803278689 286 L 383.18032786885 286 L 368.44262295082 286 L 353.70491803279 286 L 338.96721311475 286 L 324.22950819672 286 L 309.49180327869 286 L 294.75409836066 286 L 280.01639344262 286 L 265.27868852459 286 L 250.54098360656 286 L 235.80327868852 286 L 221.06557377049 286 L 206.32786885246 286 L 191.59016393443 286 L 176.85245901639 286 L 162.11475409836 286 L 147.37704918033 286 L 132.6393442623 286 L 117.90163934426 286 L 103.16393442623 286 L 88.426229508197 286 L 73.688524590164 286 L 58.950819672131 286 L 44.213114754098 286 L 29.475409836066 286 L 14.737704918033 286 L 0 286" class="highcharts-area"></path><path fill="none" d="M 0 256.31177 L 14.737704918033 213.318534 L 29.475409836066 167.282258 L 44.213114754098 141.36965700000002 L 58.950819672131 118.94454000000002 L 73.688524590164 108.45920799999999 L 88.426229508197 142.030889 L 103.16393442623 142.756614 L 117.90163934426 142.84098400000002 L 132.6393442623 147.587154 L 147.37704918033 163.139262 L 162.11475409836 144.12398000000002 L 176.85245901639 153.785346 L 191.59016393443 142.78035200000002 L 206.32786885246 142.76605200000003 L 221.06557377049 142.807522 L 235.80327868852 142.801802 L 250.54098360656 142.83841 L 265.27868852459 142.82468200000002 L 280.01639344262 158.196467 L 294.75409836066 142.75289600000002 L 309.49180327869 142.966395 L 324.22950819672 155.81065500000003 L 338.96721311475 142.820106 L 353.70491803279 142.767053 L 368.44262295082 142.74546 L 383.18032786885 143.61747400000002 L 397.91803278689 159.97395699999998 L 412.65573770492 158.84182600000003 L 427.39344262295 153.22664500000002 L 442.13114754098 171.70653500000003 L 456.86885245902 194.54463600000003 L 471.60655737705 176.74571200000003 L 486.34426229508 153.45930600000003 L 501.08196721311 160.89845200000002 L 515.81967213115 180.384347 L 530.55737704918 176.741422 L 545.29508196721 184.17427600000002 L 560.03278688525 170.127815 L 574.77049180328 181.19673 L 589.50819672131 170.888575 L 604.24590163934 161.14298200000002 L 618.98360655738 168.548523 L 633.72131147541 181.756718 L 648.45901639344 185.254212 L 663.19672131148 177.97079300000001 L 677.93442622951 181.568101 L 692.67213114754 192.10233900000003 L 707.40983606557 191.479288 L 722.14754098361 192.979644 L 736.88524590164 147.064489 L 751.62295081967 142.66294900000003 L 766.3606557377 142.77835000000002 L 781.09836065574 150.937501 L 795.83606557377 171.098642 L 810.5737704918 182.073034 L 825.31147540984 175.204315 L 840.04918032787 160.55653900000001 L 854.7868852459 173.25737 L 869.52459016393 191.47914500000002 L 884.26229508197 191.876399 L 899 180.67935599999998" class="highcharts-graph" stroke-linejoin="round" stroke-linecap="round"></path><path fill="none" d="M -10 256.31177 L 0 256.31177 L 14.737704918033 213.318534 L 29.475409836066 167.282258 L 44.213114754098 141.36965700000002 L 58.950819672131 118.94454000000002 L 73.688524590164 108.45920799999999 L 88.426229508197 142.030889 L 103.16393442623 142.756614 L 117.90163934426 142.84098400000002 L 132.6393442623 147.587154 L 147.37704918033 163.139262 L 162.11475409836 144.12398000000002 L 176.85245901639 153.785346 L 191.59016393443 142.78035200000002 L 206.32786885246 142.76605200000003 L 221.06557377049 142.807522 L 235.80327868852 142.801802 L 250.54098360656 142.83841 L 265.27868852459 142.82468200000002 L 280.01639344262 158.196467 L 294.75409836066 142.75289600000002 L 309.49180327869 142.966395 L 324.22950819672 155.81065500000003 L 338.96721311475 142.820106 L 353.70491803279 142.767053 L 368.44262295082 142.74546 L 383.18032786885 143.61747400000002 L 397.91803278689 159.97395699999998 L 412.65573770492 158.84182600000003 L 427.39344262295 153.22664500000002 L 442.13114754098 171.70653500000003 L 456.86885245902 194.54463600000003 L 471.60655737705 176.74571200000003 L 486.34426229508 153.45930600000003 L 501.08196721311 160.89845200000002 L 515.81967213115 180.384347 L 530.55737704918 176.741422 L 545.29508196721 184.17427600000002 L 560.03278688525 170.127815 L 574.77049180328 181.19673 L 589.50819672131 170.888575 L 604.24590163934 161.14298200000002 L 618.98360655738 168.548523 L 633.72131147541 181.756718 L 648.45901639344 185.254212 L 663.19672131148 177.97079300000001 L 677.93442622951 181.568101 L 692.67213114754 192.10233900000003 L 707.40983606557 191.479288 L 722.14754098361 192.979644 L 736.88524590164 147.064489 L 751.62295081967 142.66294900000003 L 766.3606557377 142.77835000000002 L 781.09836065574 150.937501 L 795.83606557377 171.098642 L 810.5737704918 182.073034 L 825.31147540984 175.204315 L 840.04918032787 160.55653900000001 L 854.7868852459 173.25737 L 869.52459016393 191.47914500000002 L 884.26229508197 191.876399 L 899 180.67935599999998 L 909 180.67935599999998" stroke-linejoin="round" visibility="hidden" stroke="rgba(192,192,192,0.0001)" stroke-width="20" class="highcharts-tracker"></path></g><g class="highcharts-markers highcharts-series-10 highcharts-area-series highcharts-color-undefined highcharts-tracker " transform="translate(5,41) scale(1 1)" width="270" height="462" clip-path="none" visibility="hidden"></g><g class="highcharts-series highcharts-series-1 highcharts-line-series highcharts-color-undefined " transform="translate(5,41) scale(1 1)" width="270" height="462" clip-path="url(#highcharts-15)"><path fill="none" d="M 0 242.80992 L 7.5737704918033 200.31219 L 15.147540983607 165.939435 L 22.72131147541 136.93508999999997 L 30.295081967213 110.63560499999997 L 37.868852459016 109.30571999999998 L 45.44262295082 137.338875 L 53.016393442623 153.62622 L 60.590163934426 157.52326499999998 L 68.16393442623 166.078215 L 75.737704918033 166.31176499999998 L 83.311475409836 158.11753499999998 L 90.885245901639 158.93361 L 98.459016393443 157.85118 L 106.03278688525 153.576945 L 113.60655737705 162.16496999999998 L 121.18032786885 155.62516499999998 L 128.75409836066 158.9085 L 136.32786885246 158.54170499999998 L 143.90163934426 166.708935 L 151.47540983607 151.489575 L 159.04918032787 158.84450999999999 L 166.62295081967 169.26894 L 174.19672131148 157.24881 L 181.77049180328 152.42296499999998 L 189.34426229508 148.54995 L 196.91803278689 156.94830000000002 L 204.49180327869 163.433565 L 212.06557377049 163.315035 L 219.6393442623 165.108915 L 227.2131147541 172.039005 L 234.7868852459 184.34924999999998 L 242.3606557377 172.04913 L 249.93442622951 162.999405 L 257.50819672131 162.75127500000002 L 265.08196721311 173.83544999999998 L 272.65573770492 173.00358 L 280.22950819672 178.79332499999998 L 287.80327868852 167.62734 L 295.37704918033 177.894225 L 302.95081967213 174.689595 L 310.52459016393 159.27596999999997 L 318.09836065574 173.635785 L 325.67213114754 173.515095 L 333.24590163934 178.978815 L 340.81967213115 171.41436 L 348.39344262295 176.3397 L 355.96721311475 181.505205 L 363.54098360656 184.05535500000002 L 371.11475409836 179.31348 L 378.68852459016 159.812865 L 386.26229508197 146.21283 L 393.83606557377 155.44858499999998 L 401.40983606557 161.88822 L 408.98360655738 174.512205 L 416.55737704918 174.512745 L 424.13114754098 172.890045 L 431.70491803279 164.15108999999998 L 439.27868852459 168.72759 L 446.85245901639 184.34560499999998 L 454.4262295082 178.93439999999998 L 462 165.52647" class="highcharts-graph" stroke="#303030" stroke-width="2" stroke-linejoin="round" stroke-linecap="round"></path><path fill="none" d="M -10 242.80992 L 0 242.80992 L 7.5737704918033 200.31219 L 15.147540983607 165.939435 L 22.72131147541 136.93508999999997 L 30.295081967213 110.63560499999997 L 37.868852459016 109.30571999999998 L 45.44262295082 137.338875 L 53.016393442623 153.62622 L 60.590163934426 157.52326499999998 L 68.16393442623 166.078215 L 75.737704918033 166.31176499999998 L 83.311475409836 158.11753499999998 L 90.885245901639 158.93361 L 98.459016393443 157.85118 L 106.03278688525 153.576945 L 113.60655737705 162.16496999999998 L 121.18032786885 155.62516499999998 L 128.75409836066 158.9085 L 136.32786885246 158.54170499999998 L 143.90163934426 166.708935 L 151.47540983607 151.489575 L 159.04918032787 158.84450999999999 L 166.62295081967 169.26894 L 174.19672131148 157.24881 L 181.77049180328 152.42296499999998 L 189.34426229508 148.54995 L 196.91803278689 156.94830000000002 L 204.49180327869 163.433565 L 212.06557377049 163.315035 L 219.6393442623 165.108915 L 227.2131147541 172.039005 L 234.7868852459 184.34924999999998 L 242.3606557377 172.04913 L 249.93442622951 162.999405 L 257.50819672131 162.75127500000002 L 265.08196721311 173.83544999999998 L 272.65573770492 173.00358 L 280.22950819672 178.79332499999998 L 287.80327868852 167.62734 L 295.37704918033 177.894225 L 302.95081967213 174.689595 L 310.52459016393 159.27596999999997 L 318.09836065574 173.635785 L 325.67213114754 173.515095 L 333.24590163934 178.978815 L 340.81967213115 171.41436 L 348.39344262295 176.3397 L 355.96721311475 181.505205 L 363.54098360656 184.05535500000002 L 371.11475409836 179.31348 L 378.68852459016 159.812865 L 386.26229508197 146.21283 L 393.83606557377 155.44858499999998 L 401.40983606557 161.88822 L 408.98360655738 174.512205 L 416.55737704918 174.512745 L 424.13114754098 172.890045 L 431.70491803279 164.15108999999998 L 439.27868852459 168.72759 L 446.85245901639 184.34560499999998 L 454.4262295082 178.93439999999998 L 462 165.52647 L 472 165.52647" stroke-linejoin="round" visibility="visible" stroke="rgba(192,192,192,0.0001)" stroke-width="22" class="highcharts-tracker"></path></g><g class="highcharts-markers highcharts-series-1 highcharts-line-series highcharts-color-undefined highcharts-tracker " transform="translate(5,41) scale(1 1)" width="270" height="462" clip-path="none"></g><g class="highcharts-series highcharts-series-2 highcharts-line-series highcharts-color-undefined " transform="translate(5,41) scale(1 1)" width="270" height="462" clip-path="url(#highcharts-15)" visibility="hidden"><path fill="none" d="M 0 234.202683 L 13 141.90018700000002 L 26 137.808099 L 39 134.396977 L 52 77.83132500000002 L 65 57.01696000000001 L 78 131.569724 L 91 140.565425 L 104 139.86901500000002 L 117 139.03117800000004 L 130 141.15029500000003 L 143 141.151296 L 156 140.163023 L 169 137.87073300000003 L 182 140.80680900000002 L 195 139.191338 L 208 139.53997200000003 L 221 141.05977600000003 L 234 140.10139 L 247 135.358223 L 260 128.107694 L 273 140.261264 L 286 141.011728 L 299 139.14386200000004 L 312 138.985275 L 325 139.61719200000002 L 338 141.69769900000003 L 351 139.588592 L 364 139.641645 L 377 137.512661 L 390 140.49878700000002 L 403 140.64893700000002 L 416 141.56227800000002 L 429 139.246679 L 442 141.35106700000003 L 455 141.03646700000002 L 468 140.566426 L 481 139.95524400000002 L 494 140.628917 L 507 141.248965 L 520 140.231806 L 533 126.45818900000003 L 546 140.62062300000002 L 559 141.518234 L 572 140.29315300000002 L 585 140.103678 L 598 140.76405200000002 L 611 140.51666200000003 L 624 140.044047 L 637 140.902762 L 650 134.39654800000002 L 663 138.06192400000003 L 676 141.952382 L 689 141.074648 L 702 140.677966 L 715 140.07693700000002 L 728 130.163605 L 741 139.987848 L 754 139.09781600000002 L 767 141.959103 L 780 139.133566 L 793 142.434006" class="highcharts-graph" stroke="#b2b8c8" stroke-width="2" stroke-linejoin="round" stroke-linecap="round"></path><path fill="none" d="M -10 234.202683 L 0 234.202683 L 13 141.90018700000002 L 26 137.808099 L 39 134.396977 L 52 77.83132500000002 L 65 57.01696000000001 L 78 131.569724 L 91 140.565425 L 104 139.86901500000002 L 117 139.03117800000004 L 130 141.15029500000003 L 143 141.151296 L 156 140.163023 L 169 137.87073300000003 L 182 140.80680900000002 L 195 139.191338 L 208 139.53997200000003 L 221 141.05977600000003 L 234 140.10139 L 247 135.358223 L 260 128.107694 L 273 140.261264 L 286 141.011728 L 299 139.14386200000004 L 312 138.985275 L 325 139.61719200000002 L 338 141.69769900000003 L 351 139.588592 L 364 139.641645 L 377 137.512661 L 390 140.49878700000002 L 403 140.64893700000002 L 416 141.56227800000002 L 429 139.246679 L 442 141.35106700000003 L 455 141.03646700000002 L 468 140.566426 L 481 139.95524400000002 L 494 140.628917 L 507 141.248965 L 520 140.231806 L 533 126.45818900000003 L 546 140.62062300000002 L 559 141.518234 L 572 140.29315300000002 L 585 140.103678 L 598 140.76405200000002 L 611 140.51666200000003 L 624 140.044047 L 637 140.902762 L 650 134.39654800000002 L 663 138.06192400000003 L 676 141.952382 L 689 141.074648 L 702 140.677966 L 715 140.07693700000002 L 728 130.163605 L 741 139.987848 L 754 139.09781600000002 L 767 141.959103 L 780 139.133566 L 793 142.434006 L 803 142.434006" stroke-linejoin="round" visibility="hidden" stroke="rgba(192,192,192,0.0001)" stroke-width="22" class="highcharts-tracker"></path></g><g class="highcharts-markers highcharts-series-2 highcharts-line-series highcharts-color-undefined highcharts-tracker " transform="translate(5,41) scale(1 1)" width="270" height="462" clip-path="none" visibility="hidden"></g><g class="highcharts-series highcharts-series-3 highcharts-line-series highcharts-color-undefined " transform="translate(5,41) scale(1 1)" width="270" height="462" clip-path="url(#highcharts-15)" visibility="hidden"><path fill="none" d="M 0 234.405886 L 13 142.06878400000002 L 26 138.80295000000004 L 39 134.76906300000002 L 52 78.49055500000003 L 65 62.07386900000003 L 78 132.89175900000004 L 91 141.26827 L 104 140.103106 L 117 141.007724 L 130 141.851281 L 143 141.364652 L 156 140.794225 L 169 139.843275 L 182 141.25068100000001 L 195 140.437869 L 208 140.552555 L 221 141.639641 L 234 141.15673 L 247 140.92793 L 260 129.64237 L 273 140.51523200000003 L 286 141.616332 L 299 140.04004300000003 L 312 139.71357400000002 L 325 140.158018 L 338 141.977979 L 351 140.858146 L 364 140.724441 L 377 141.52323900000002 L 390 141.63363500000003 L 403 141.749751 L 416 141.81124100000002 L 429 140.028031 L 442 141.78750300000002 L 455 141.746462 L 468 141.87888 L 481 140.267842 L 494 141.773489 L 507 141.967969 L 520 140.643932 L 533 128.72559700000002 L 546 141.457173 L 559 141.617905 L 572 141.19362400000003 L 585 141.29758500000003 L 598 141.477193 L 611 142.062349 L 624 141.05148200000002 L 637 141.294296 L 650 134.999293 L 663 139.92592900000002 L 676 142.091235 L 689 141.595597 L 702 141.709711 L 715 142.015445 L 728 133.551275 L 741 140.597314 L 754 141.285001 L 767 142.21221300000002 L 780 140.923211 L 793 142.467468" class="highcharts-graph" stroke="#7cb3f1" stroke-width="2" stroke-linejoin="round" stroke-linecap="round"></path><path fill="none" d="M -10 234.405886 L 0 234.405886 L 13 142.06878400000002 L 26 138.80295000000004 L 39 134.76906300000002 L 52 78.49055500000003 L 65 62.07386900000003 L 78 132.89175900000004 L 91 141.26827 L 104 140.103106 L 117 141.007724 L 130 141.851281 L 143 141.364652 L 156 140.794225 L 169 139.843275 L 182 141.25068100000001 L 195 140.437869 L 208 140.552555 L 221 141.639641 L 234 141.15673 L 247 140.92793 L 260 129.64237 L 273 140.51523200000003 L 286 141.616332 L 299 140.04004300000003 L 312 139.71357400000002 L 325 140.158018 L 338 141.977979 L 351 140.858146 L 364 140.724441 L 377 141.52323900000002 L 390 141.63363500000003 L 403 141.749751 L 416 141.81124100000002 L 429 140.028031 L 442 141.78750300000002 L 455 141.746462 L 468 141.87888 L 481 140.267842 L 494 141.773489 L 507 141.967969 L 520 140.643932 L 533 128.72559700000002 L 546 141.457173 L 559 141.617905 L 572 141.19362400000003 L 585 141.29758500000003 L 598 141.477193 L 611 142.062349 L 624 141.05148200000002 L 637 141.294296 L 650 134.999293 L 663 139.92592900000002 L 676 142.091235 L 689 141.595597 L 702 141.709711 L 715 142.015445 L 728 133.551275 L 741 140.597314 L 754 141.285001 L 767 142.21221300000002 L 780 140.923211 L 793 142.467468 L 803 142.467468" stroke-linejoin="round" visibility="hidden" stroke="rgba(192,192,192,0.0001)" stroke-width="22" class="highcharts-tracker"></path></g><g class="highcharts-markers highcharts-series-3 highcharts-line-series highcharts-color-undefined highcharts-tracker" transform="translate(5,41) scale(1 1)" width="270" height="462" clip-path="none" visibility="hidden"></g><g class="highcharts-series highcharts-series-0 highcharts-line-series highcharts-color-undefined " transform="translate(5,41) scale(1 1)" width="270" height="462" clip-path="url(#highcharts-14)"><path fill="none" d="M 0 45 L 7.5737704918033 45 L 15.147540983607 45 L 22.72131147541 45 L 30.295081967213 45 L 37.868852459016 45 L 45.44262295082 45 L 53.016393442623 45 L 60.590163934426 45 L 68.16393442623 45 L 75.737704918033 45 L 83.311475409836 45 L 90.885245901639 45 L 98.459016393443 45 L 106.03278688525 45 L 113.60655737705 45 L 121.18032786885 45 L 128.75409836066 45 L 136.32786885246 45 L 143.90163934426 45 L 151.47540983607 45 L 159.04918032787 45 L 166.62295081967 45 L 174.19672131148 45 L 181.77049180328 45 L 189.34426229508 45 L 196.91803278689 45 L 204.49180327869 45 L 212.06557377049 45 L 219.6393442623 45 L 227.2131147541 45 L 234.7868852459 45 L 242.3606557377 45 L 249.93442622951 45 L 257.50819672131 45 L 265.08196721311 45 L 272.65573770492 45 L 280.22950819672 45 L 287.80327868852 45 L 295.37704918033 45 L 302.95081967213 45 L 310.52459016393 45 L 318.09836065574 45 L 325.67213114754 45 L 333.24590163934 45 L 340.81967213115 45 L 348.39344262295 45 L 355.96721311475 45 L 363.54098360656 45 L 371.11475409836 45 L 378.68852459016 45 L 386.26229508197 45 L 393.83606557377 45 L 401.40983606557 45 L 408.98360655738 45 L 416.55737704918 45 L 424.13114754098 45 L 431.70491803279 45 L 439.27868852459 45 L 446.85245901639 270 L 454.4262295082 270 L 462 270" class="highcharts-graph" stroke="#800000" stroke-width="2" stroke-linejoin="round" stroke-linecap="round"></path><path fill="none" d="M -10 45 L 0 45 L 7.5737704918033 45 L 15.147540983607 45 L 22.72131147541 45 L 30.295081967213 45 L 37.868852459016 45 L 45.44262295082 45 L 53.016393442623 45 L 60.590163934426 45 L 68.16393442623 45 L 75.737704918033 45 L 83.311475409836 45 L 90.885245901639 45 L 98.459016393443 45 L 106.03278688525 45 L 113.60655737705 45 L 121.18032786885 45 L 128.75409836066 45 L 136.32786885246 45 L 143.90163934426 45 L 151.47540983607 45 L 159.04918032787 45 L 166.62295081967 45 L 174.19672131148 45 L 181.77049180328 45 L 189.34426229508 45 L 196.91803278689 45 L 204.49180327869 45 L 212.06557377049 45 L 219.6393442623 45 L 227.2131147541 45 L 234.7868852459 45 L 242.3606557377 45 L 249.93442622951 45 L 257.50819672131 45 L 265.08196721311 45 L 272.65573770492 45 L 280.22950819672 45 L 287.80327868852 45 L 295.37704918033 45 L 302.95081967213 45 L 310.52459016393 45 L 318.09836065574 45 L 325.67213114754 45 L 333.24590163934 45 L 340.81967213115 45 L 348.39344262295 45 L 355.96721311475 45 L 363.54098360656 45 L 371.11475409836 45 L 378.68852459016 45 L 386.26229508197 45 L 393.83606557377 45 L 401.40983606557 45 L 408.98360655738 45 L 416.55737704918 45 L 424.13114754098 45 L 431.70491803279 45 L 439.27868852459 45 L 446.85245901639 270 L 454.4262295082 270 L 462 270 L 472 270" stroke-linejoin="round" visibility="visible" stroke="rgba(192,192,192,0.0001)" stroke-width="22" class="highcharts-tracker"></path></g><g class="highcharts-markers highcharts-series-0 highcharts-line-series highcharts-color-undefined highcharts-tracker " transform="translate(5,41) scale(1 1)" width="270" height="462" clip-path="none"></g></g><text x="236" text-anchor="middle" class="highcharts-title" style="color:#2a52be;font-size:16px;font-family:&quot;Yandex Sans Text Web&quot;,&quot;Lucida Grande&quot;, &quot;Lucida Sans Unicode&quot;, Verdana, Arial, Helvetica, sans-serif;;fill:#2a52be;width:408px;" y="22"><tspan>Quantiles</tspan></text><g class="highcharts-legend" transform="translate(18,341)"><rect fill="none" class="highcharts-legend-box" rx="0" ry="0" x="0" y="0" width="435" height="44" visibility="visible"></rect><g><g><g class="highcharts-legend-item highcharts-line-series highcharts-color-undefined highcharts-series-0" transform="translate(8,3)"><path fill="none" d="M 0 11 L 16 11" class="highcharts-graph" stroke="#800000" stroke-width="2"></path><text x="21" style="color:#333;font-size:12px;font-weight:bold;cursor:pointer;fill:#333;" text-anchor="start" y="15">rps</text></g><g class="highcharts-legend-item highcharts-line-series highcharts-color-undefined highcharts-series-1 " transform="translate(67.15625,3)"><path fill="none" d="M 0 11 L 16 11" class="highcharts-graph" stroke="#303030" stroke-width="2"></path><text x="21" y="15" style="color:#333;font-size:12px;font-weight:bold;cursor:pointer;fill:#333;" text-anchor="start">avg</text></g><g class="highcharts-legend-item highcharts-line-series highcharts-color-undefined highcharts-series-2 highcharts-legend-item-hidden" transform="translate(128.5,3)"><path fill="none" d="M 0 11 L 16 11" class="highcharts-graph" stroke="#cccccc" stroke-width="2"></path><text x="21" y="15" style="color:#cccccc;font-size:12px;font-weight:bold;cursor:pointer;fill:#cccccc;" text-anchor="start">100%</text></g><g class="highcharts-legend-item highcharts-line-series highcharts-color-undefined highcharts-series-3 highcharts-legend-item-hidden" transform="translate(197.5625,3)"><path fill="none" d="M 0 11 L 16 11" class="highcharts-graph" stroke="#cccccc" stroke-width="2"></path><text x="21" y="15" style="color:#cccccc;font-size:12px;font-weight:bold;cursor:pointer;fill:#cccccc;" text-anchor="start">99%</text></g><g class="highcharts-legend-item highcharts-area-series highcharts-color-undefined highcharts-series-4" transform="translate(259.953125,3)"><text x="21" y="15" style="color:#333;font-size:12px;font-weight:bold;cursor:pointer;fill:#333;" text-anchor="start">98%</text><rect x="2" y="4" width="12" height="12" fill="#66af5f" rx="6" ry="6" class="highcharts-point"></rect></g><g class="highcharts-legend-item highcharts-area-series highcharts-color-undefined highcharts-series-5 highcharts-legend-item-hidden" transform="translate(322.34375,3)"><text x="21" y="15" style="color:#cccccc;font-size:12px;font-weight:bold;cursor:pointer;fill:#cccccc;" text-anchor="start">95%</text><rect x="2" y="4" width="12" height="12" fill="#cccccc" rx="6" ry="6" class="highcharts-point"></rect></g><g class="highcharts-legend-item highcharts-area-series highcharts-color-undefined highcharts-series-6 highcharts-legend-item-hidden" transform="translate(384.734375,3)"><text x="21" y="15" style="color:#cccccc;font-size:12px;font-weight:bold;cursor:pointer;fill:#cccccc;" text-anchor="start">90%</text><rect x="2" y="4" width="12" height="12" fill="#cccccc" rx="6" ry="6" class="highcharts-point"></rect></g><g class="highcharts-legend-item highcharts-area-series highcharts-color-undefined highcharts-series-7 highcharts-legend-item-hidden" transform="translate(8,20)"><text x="21" y="15" style="color:#cccccc;font-size:12px;font-weight:bold;cursor:pointer;fill:#cccccc;" text-anchor="start">85%</text><rect x="2" y="4" width="12" height="12" fill="#cccccc" rx="6" ry="6" class="highcharts-point"></rect></g><g class="highcharts-legend-item highcharts-area-series highcharts-color-undefined highcharts-series-8 highcharts-legend-item-hidden" transform="translate(70.390625,20)"><text x="21" y="15" style="color:#cccccc;font-size:12px;font-weight:bold;cursor:pointer;fill:#cccccc;" text-anchor="start">80%</text><rect x="2" y="4" width="12" height="12" fill="#cccccc" rx="6" ry="6" class="highcharts-point"></rect></g><g class="highcharts-legend-item highcharts-area-series highcharts-color-undefined highcharts-series-9 highcharts-legend-item-hidden" transform="translate(132.78125,20)"><text x="21" y="15" style="color:#cccccc;font-size:12px;font-weight:bold;cursor:pointer;fill:#cccccc;" text-anchor="start">75%</text><rect x="2" y="4" width="12" height="12" fill="#cccccc" rx="6" ry="6" class="highcharts-point"></rect></g><g class="highcharts-legend-item highcharts-area-series highcharts-color-undefined highcharts-series-10 highcharts-legend-item-hidden" transform="translate(195.171875,20)"><text x="21" y="15" style="color:#cccccc;font-size:12px;font-weight:bold;cursor:pointer;fill:#cccccc;" text-anchor="start">50%</text><rect x="2" y="4" width="12" height="12" fill="#cccccc" rx="6" ry="6" class="highcharts-point"></rect></g></g></g></g><g class="highcharts-axis-labels highcharts-xaxis-labels "><text x="27.721311475409834" style="color:#666666;cursor:default;font-size:11px;fill:#666666;width:144px;text-overflow:clip;" text-anchor="middle" transform="translate(0,0)" y="330" opacity="1"><tspan>12:49:00</tspan></text><text x="254.93442622950818" style="color:#666666;cursor:default;font-size:11px;fill:#666666;width:144px;text-overflow:clip;" text-anchor="middle" transform="translate(0,0)" y="330" opacity="1"><tspan>12:49:30</tspan></text><text x="141.327868852459" style="color:#666666;cursor:default;font-size:11px;fill:#666666;width:144px;text-overflow:clip;" text-anchor="middle" transform="translate(0,0)" y="330" opacity="1"><tspan>12:49:15</tspan></text><text x="368.54098360655735" style="color:#666666;cursor:default;font-size:11px;fill:#666666;width:144px;text-overflow:clip;" text-anchor="middle" transform="translate(0,0)" y="330" opacity="1"><tspan>12:49:45</tspan></text></g><g class="highcharts-axis-labels highcharts-yaxis-labels "><text x="0" style="color:#666666;cursor:default;font-size:11px;fill:#666666;width:1px;text-overflow:clip;" text-anchor="end" transform="translate(0,0)" y="-9999"></text><text x="455" style="color:#666666;cursor:default;font-size:11px;fill:#666666;width:1px;text-overflow:clip;" text-anchor="end" transform="translate(0,0)" y="262" opacity="1"><tspan>50</tspan><tspan dy="14" x="455">rps</tspan><title>50 rps</title></text><text x="455" style="color:#666666;cursor:default;font-size:11px;fill:#666666;width:1px;text-overflow:clip;" text-anchor="end" transform="translate(0,0)" y="217" opacity="1"><tspan>100</tspan><tspan dy="14" x="455">rps</tspan><title>100 rps</title></text><text x="455" style="color:#666666;cursor:default;font-size:11px;fill:#666666;width:1px;text-overflow:clip;" text-anchor="end" transform="translate(0,0)" y="172" opacity="1"><tspan>150</tspan><tspan dy="14" x="455">rps</tspan><title>150 rps</title></text><text x="455" style="color:#666666;cursor:default;font-size:11px;fill:#666666;width:1px;text-overflow:clip;" text-anchor="end" transform="translate(0,0)" y="127" opacity="1"><tspan>200</tspan><tspan dy="14" x="455">rps</tspan><title>200 rps</title></text><text x="455" style="color:#666666;cursor:default;font-size:11px;fill:#666666;width:1px;text-overflow:clip;" text-anchor="end" transform="translate(0,0)" y="82" opacity="1"><tspan>250</tspan><tspan dy="14" x="455">rps</tspan><title>250 rps</title></text><text x="0" style="color:#666666;cursor:default;font-size:11px;fill:#666666;width:1px;text-overflow:clip;" text-anchor="end" transform="translate(0,0)" y="-9999"><tspan>300</tspan><tspan dy="14" x="0">rps</tspan><title>300 rps</title></text></g><g class="highcharts-axis-labels highcharts-yaxis-labels "><text x="0" style="color:#666666;cursor:default;font-size:11px;fill:#666666;width:1px;text-overflow:clip;" text-anchor="start" transform="translate(0,0)" y="-9999"></text><text x="17" style="color:#666666;cursor:default;font-size:11px;fill:#666666;width:1px;text-overflow:clip;" text-anchor="start" transform="translate(0,0)" y="240" opacity="1"><tspan>500</tspan><tspan dy="14" x="17">ms</tspan><title>500 ms</title></text><text x="17" style="color:#666666;cursor:default;font-size:11px;fill:#666666;width:1px;text-overflow:clip;" text-anchor="start" transform="translate(0,0)" y="172" opacity="1"><tspan>1000</tspan><tspan dy="14" x="17">ms</tspan><title>1000 ms</title></text><text x="17" style="color:#666666;cursor:default;font-size:11px;fill:#666666;width:1px;text-overflow:clip;" text-anchor="start" transform="translate(0,0)" y="105" opacity="1"><tspan>1500</tspan><tspan dy="14" x="17">ms</tspan><title>1500 ms</title></text><text x="0" style="color:#666666;cursor:default;font-size:11px;fill:#666666;width:1px;text-overflow:clip;" text-anchor="start" transform="translate(0,0)" y="-9999"><tspan>2000</tspan><tspan dy="14" x="0">ms</tspan><title>2000 ms</title></text></g><text x="462" class="highcharts-credits" text-anchor="end" style="cursor:pointer;color:#999999;font-size:9px;fill:#999999;" y="395">Highcharts.com</text><g class="highcharts-label highcharts-tooltip highcharts-color-undefined" style="cursor:default;pointer-events:none;white-space:nowrap;" transform="translate(225,26)" opacity="1" visibility="hidden"><path fill="rgba(247,247,247,0.85)" class="highcharts-label-box highcharts-tooltip-box" d="M 4.5 0.5 L 124.5 0.5 C 128.5 0.5 128.5 0.5 128.5 4.5 L 128.5 76.5 C 128.5 80.5 128.5 80.5 124.5 80.5 L 4.5 80.5 C 0.5 80.5 0.5 80.5 0.5 76.5 L 0.5 4.5 C 0.5 0.5 0.5 0.5 4.5 0.5" stroke="#999" stroke-width="1"></path></g><path fill="none" class="highcharts-crosshair highcharts-crosshair-thin undefined" stroke="#BBB" stroke-width="1" visibility="hidden" d="M 368.5 41 L 368.5 311 M 368.5 41 L 368.5 311"></path></svg>