<svg version="1.1" class="highcharts-root" style="font-family:Yandex Sans Text Web;font-size:12px;" xmlns="http://www.w3.org/2000/svg" width="472" viewBox="0 0 472 400" height="400"><desc>Created with Highstock 5.0.2</desc><defs><clipPath id="highcharts-8"><rect x="0" y="0" width="462" height="270" fill="none"></rect></clipPath><clipPath id="highcharts-9"><rect x="0" y="0" width="462" height="270" fill="none"></rect></clipPath><clipPath id="highcharts-10"><rect x="0" y="0" width="462" height="270" fill="none"></rect></clipPath></defs><rect fill="#ffffff" class="highcharts-background" x="0" y="0" width="472" height="400" rx="0" ry="0"></rect><rect fill="none" class="highcharts-plot-background" x="5" y="41" width="462" height="270"></rect><g class="highcharts-grid highcharts-xaxis-grid "><path fill="none" class="highcharts-grid-line" d="M 104.5 41 L 104.5 311 M 104.5 41 L 104.5 311" opacity="1"></path><path fill="none" class="highcharts-grid-line" d="M 220.5 41 L 220.5 311 M 220.5 41 L 220.5 311" opacity="1"></path><path fill="none" class="highcharts-grid-line" d="M 335.5 41 L 335.5 311 M 335.5 41 L 335.5 311" opacity="1"></path><path fill="none" class="highcharts-grid-line" d="M 451.5 41 L 451.5 311 M 451.5 41 L 451.5 311" opacity="1"></path></g><g class="highcharts-grid highcharts-yaxis-grid "><path fill="none" class="highcharts-grid-line" d="M 5 311.5 L 467 311.5" opacity="1"></path><path fill="none" class="highcharts-grid-line" d="M 5 266.5 L 467 266.5" opacity="1"></path><path fill="none" class="highcharts-grid-line" d="M 5 221.5 L 467 221.5" opacity="1"></path><path fill="none" class="highcharts-grid-line" d="M 5 176.5 L 467 176.5" opacity="1"></path><path fill="none" class="highcharts-grid-line" d="M 5 131.5 L 467 131.5" opacity="1"></path><path fill="none" class="highcharts-grid-line" d="M 5 86.5 L 467 86.5" opacity="1"></path><path fill="none" class="highcharts-grid-line" d="M 5 41.5 L 467 41.5" opacity="1"></path></g><g class="highcharts-grid highcharts-yaxis-grid "><path fill="none" stroke="#e6e6e6" stroke-width="1" class="highcharts-grid-line" d="M 5 311.5 L 467 311.5" opacity="1"></path><path fill="none" stroke="#e6e6e6" stroke-width="1" class="highcharts-grid-line" d="M 5 266.5 L 467 266.5" opacity="1"></path><path fill="none" stroke="#e6e6e6" stroke-width="1" class="highcharts-grid-line" d="M 5 221.5 L 467 221.5" opacity="1"></path><path fill="none" stroke="#e6e6e6" stroke-width="1" class="highcharts-grid-line" d="M 5 176.5 L 467 176.5" opacity="1"></path><path fill="none" stroke="#e6e6e6" stroke-width="1" class="highcharts-grid-line" d="M 5 131.5 L 467 131.5" opacity="1"></path><path fill="none" stroke="#e6e6e6" stroke-width="1" class="highcharts-grid-line" d="M 5 86.5 L 467 86.5" opacity="1"></path><path fill="none" stroke="#e6e6e6" stroke-width="1" class="highcharts-grid-line" d="M 5 40.5 L 467 40.5" opacity="1"></path></g><rect fill="none" class="highcharts-plot-border" x="5" y="41" width="462" height="270"></rect><g class="highcharts-axis highcharts-xaxis "><path fill="none" class="highcharts-tick" stroke="#ccd6eb" stroke-width="1" d="M 104.5 311 L 104.5 321" opacity="1"></path><path fill="none" class="highcharts-tick" stroke="#ccd6eb" stroke-width="1" d="M 220.5 311 L 220.5 321" opacity="1"></path><path fill="none" class="highcharts-tick" stroke="#ccd6eb" stroke-width="1" d="M 335.5 311 L 335.5 321" opacity="1"></path><path fill="none" class="highcharts-tick" stroke="#ccd6eb" stroke-width="1" d="M 451.5 311 L 451.5 321" opacity="1"></path><path fill="none" class="highcharts-axis-line" stroke="#ccd6eb" stroke-width="1" d="M 5 311.5 L 467 311.5"></path></g><g class="highcharts-axis highcharts-yaxis "><text x="477" text-anchor="middle" transform="translate(0,0) rotate(90 477 176)" class="highcharts-axis-title" style="color:#666666;fill:#666666;" y="176">TITLE</text><path fill="none" class="highcharts-axis-line" d="M 467 41 L 467 311"></path></g><g class="highcharts-axis highcharts-yaxis "><text x="-5" text-anchor="middle" transform="translate(0,0) rotate(270 -5 176)" class="highcharts-axis-title" style="color:#666666;fill:#666666;" y="176">TITLE</text><path fill="none" class="highcharts-axis-line" d="M 5 41 L 5 311"></path></g><g class="highcharts-series-group "><g class="highcharts-series highcharts-series-4 highcharts-area-series highcharts-color-undefined " transform="translate(5,41) scale(1 1)" width="270" height="462" clip-path="url(#highcharts-10)"><path fill="rgb(102,175,95)" d="M 0 47.809349999999995 L 7.7 257.14485 L 15.4 258.7716 L 23.1 253.35045 L 30.8 256.81275 L 38.5 256.76145 L 46.2 258.48945 L 53.9 258.1767 L 61.6 255.98565 L 69.3 259.57035 L 77 242.39475 L 84.7 252.6147 L 92.4 242.34345 L 100.1 255.04335 L 107.8 167.17634999999999 L 115.5 258.34455 L 123.2 257.42025 L 130.9 260.2737 L 138.6 238.69889999999998 L 146.3 255.60225 L 154 254.84085 L 161.7 258.7734 L 169.4 212.61374999999998 L 177.1 239.08545 L 184.8 258.89985 L 192.5 259.2306 L 200.2 224.5239 L 207.9 259.8858 L 215.6 257.02065 L 223.3 259.97355 L 231 259.13475 L 238.7 241.64595 L 246.4 259.13475 L 254.1 239.40585 L 261.8 251.71155 L 269.5 252.9216 L 277.2 253.40895 L 284.9 259.1136 L 292.6 254.3976 L 300.3 257.8923 L 308 249.17895 L 315.7 257.4369 L 323.4 260.22015 L 331.1 256.26645 L 338.8 259.54155 L 346.5 252.13049999999998 L 354.2 147.93255 L 361.9 259.2234 L 369.6 229.2363 L 377.3 257.06835 L 385 257.6619 L 392.7 259.72425 L 400.4 258.25905 L 408.1 253.0908 L 415.8 259.77015 L 423.5 257.9409 L 431.2 240.33015 L 438.9 243.57735 L 446.6 243.21195 L 454.3 248.9913 L 462 67.20975000000001 L 462 270 L 454.3 270 L 446.6 270 L 438.9 270 L 431.2 270 L 423.5 270 L 415.8 270 L 408.1 270 L 400.4 270 L 392.7 270 L 385 270 L 377.3 270 L 369.6 270 L 361.9 270 L 354.2 270 L 346.5 270 L 338.8 270 L 331.1 270 L 323.4 270 L 315.7 270 L 308 270 L 300.3 270 L 292.6 270 L 284.9 270 L 277.2 270 L 269.5 270 L 261.8 270 L 254.1 270 L 246.4 270 L 238.7 270 L 231 270 L 223.3 270 L 215.6 270 L 207.9 270 L 200.2 270 L 192.5 270 L 184.8 270 L 177.1 270 L 169.4 270 L 161.7 270 L 154 270 L 146.3 270 L 138.6 270 L 130.9 270 L 123.2 270 L 115.5 270 L 107.8 270 L 100.1 270 L 92.4 270 L 84.7 270 L 77 270 L 69.3 270 L 61.6 270 L 53.9 270 L 46.2 270 L 38.5 270 L 30.8 270 L 23.1 270 L 15.4 270 L 7.7 270 L 0 270" class="highcharts-area"></path><path fill="none" d="M 0 47.809349999999995 L 7.7 257.14485 L 15.4 258.7716 L 23.1 253.35045 L 30.8 256.81275 L 38.5 256.76145 L 46.2 258.48945 L 53.9 258.1767 L 61.6 255.98565 L 69.3 259.57035 L 77 242.39475 L 84.7 252.6147 L 92.4 242.34345 L 100.1 255.04335 L 107.8 167.17634999999999 L 115.5 258.34455 L 123.2 257.42025 L 130.9 260.2737 L 138.6 238.69889999999998 L 146.3 255.60225 L 154 254.84085 L 161.7 258.7734 L 169.4 212.61374999999998 L 177.1 239.08545 L 184.8 258.89985 L 192.5 259.2306 L 200.2 224.5239 L 207.9 259.8858 L 215.6 257.02065 L 223.3 259.97355 L 231 259.13475 L 238.7 241.64595 L 246.4 259.13475 L 254.1 239.40585 L 261.8 251.71155 L 269.5 252.9216 L 277.2 253.40895 L 284.9 259.1136 L 292.6 254.3976 L 300.3 257.8923 L 308 249.17895 L 315.7 257.4369 L 323.4 260.22015 L 331.1 256.26645 L 338.8 259.54155 L 346.5 252.13049999999998 L 354.2 147.93255 L 361.9 259.2234 L 369.6 229.2363 L 377.3 257.06835 L 385 257.6619 L 392.7 259.72425 L 400.4 258.25905 L 408.1 253.0908 L 415.8 259.77015 L 423.5 257.9409 L 431.2 240.33015 L 438.9 243.57735 L 446.6 243.21195 L 454.3 248.9913 L 462 67.20975000000001" class="highcharts-graph" stroke-linejoin="round" stroke-linecap="round"></path><path fill="none" d="M -10 47.809349999999995 L 0 47.809349999999995 L 7.7 257.14485 L 15.4 258.7716 L 23.1 253.35045 L 30.8 256.81275 L 38.5 256.76145 L 46.2 258.48945 L 53.9 258.1767 L 61.6 255.98565 L 69.3 259.57035 L 77 242.39475 L 84.7 252.6147 L 92.4 242.34345 L 100.1 255.04335 L 107.8 167.17634999999999 L 115.5 258.34455 L 123.2 257.42025 L 130.9 260.2737 L 138.6 238.69889999999998 L 146.3 255.60225 L 154 254.84085 L 161.7 258.7734 L 169.4 212.61374999999998 L 177.1 239.08545 L 184.8 258.89985 L 192.5 259.2306 L 200.2 224.5239 L 207.9 259.8858 L 215.6 257.02065 L 223.3 259.97355 L 231 259.13475 L 238.7 241.64595 L 246.4 259.13475 L 254.1 239.40585 L 261.8 251.71155 L 269.5 252.9216 L 277.2 253.40895 L 284.9 259.1136 L 292.6 254.3976 L 300.3 257.8923 L 308 249.17895 L 315.7 257.4369 L 323.4 260.22015 L 331.1 256.26645 L 338.8 259.54155 L 346.5 252.13049999999998 L 354.2 147.93255 L 361.9 259.2234 L 369.6 229.2363 L 377.3 257.06835 L 385 257.6619 L 392.7 259.72425 L 400.4 258.25905 L 408.1 253.0908 L 415.8 259.77015 L 423.5 257.9409 L 431.2 240.33015 L 438.9 243.57735 L 446.6 243.21195 L 454.3 248.9913 L 462 67.20975000000001 L 472 67.20975000000001" stroke-linejoin="round" visibility="visible" stroke="rgba(192,192,192,0.0001)" stroke-width="20" class="highcharts-tracker"></path></g><g class="highcharts-markers highcharts-series-4 highcharts-area-series highcharts-color-undefined highcharts-tracker " transform="translate(5,41) scale(1 1)" width="270" height="462" clip-path="none"></g><g class="highcharts-series highcharts-series-5 highcharts-area-series highcharts-color-undefined " transform="translate(5,41) scale(1 1)" width="270" height="462" clip-path="url(#highcharts-10)" visibility="hidden"><path fill="rgb(184,225,61)" d="M 0 210.04316666666665 L 14.983333333333 276.0062066666667 L 29.966666666667 276.1234666666667 L 44.95 273.70438333333334 L 59.933333333333 273.77683666666667 L 74.916666666667 273.7449 L 89.9 275.47806 L 104.88333333333 276.04529333333335 L 119.86666666667 273.3292466666667 L 134.85 276.19353666666666 L 149.83333333333 263.50085666666666 L 164.81666666667 271.07461333333333 L 179.8 262.76679 L 194.78333333333 273.0732766666667 L 209.76666666667 192.16626 L 224.75 275.20826666666665 L 239.73333333333 274.10859666666664 L 254.71666666667 277.0339 L 269.7 261.3801666666667 L 284.68333333333 275.08052 L 299.66666666667 273.15002 L 314.65 275.90134 L 329.63333333333 230.78293333333335 L 344.61666666667 258.9034066666667 L 359.6 276.77030333333335 L 374.58333333333 276.17780666666664 L 389.56666666667 249.02544333333333 L 404.55 277.6025633333333 L 419.53333333333 274.8421866666667 L 434.51666666667 276.52577333333335 L 449.5 276.8766 L 464.48333333333 260.6770833333333 L 479.46666666667 275.21494 L 494.45 261.23621333333335 L 509.43333333333 269.6655866666667 L 524.41666666667 271.4807333333333 L 539.4 271.73527333333334 L 554.38333333333 275.8975266666667 L 569.36666666667 271.0674633333333 L 584.35 274.0842866666667 L 599.33333333333 267.09015666666664 L 614.31666666667 274.97374666666667 L 629.3 277.0405733333333 L 644.28333333333 274.01564666666667 L 659.26666666667 275.91802333333334 L 674.25 271.99219666666664 L 689.23333333333 179.72335333333334 L 704.21666666667 275.98332666666664 L 719.2 251.40448666666666 L 734.18333333333 274.77497666666665 L 749.16666666667 274.8555333333333 L 764.15 276.59965666666665 L 779.13333333333 275.11388666666664 L 794.11666666667 272.61329333333333 L 809.1 276.83227 L 824.08333333333 275.2359133333333 L 839.06666666667 257.28131 L 854.05 265.26357 L 869.03333333333 259.93300666666664 L 884.01666666667 267.97723333333334 L 899 83.55299333333332 L 899 286 L 884.01666666667 286 L 869.03333333333 286 L 854.05 286 L 839.06666666667 286 L 824.08333333333 286 L 809.1 286 L 794.11666666667 286 L 779.13333333333 286 L 764.15 286 L 749.16666666667 286 L 734.18333333333 286 L 719.2 286 L 704.21666666667 286 L 689.23333333333 286 L 674.25 286 L 659.26666666667 286 L 644.28333333333 286 L 629.3 286 L 614.31666666667 286 L 599.33333333333 286 L 584.35 286 L 569.36666666667 286 L 554.38333333333 286 L 539.4 286 L 524.41666666667 286 L 509.43333333333 286 L 494.45 286 L 479.46666666667 286 L 464.48333333333 286 L 449.5 286 L 434.51666666667 286 L 419.53333333333 286 L 404.55 286 L 389.56666666667 286 L 374.58333333333 286 L 359.6 286 L 344.61666666667 286 L 329.63333333333 286 L 314.65 286 L 299.66666666667 286 L 284.68333333333 286 L 269.7 286 L 254.71666666667 286 L 239.73333333333 286 L 224.75 286 L 209.76666666667 286 L 194.78333333333 286 L 179.8 286 L 164.81666666667 286 L 149.83333333333 286 L 134.85 286 L 119.86666666667 286 L 104.88333333333 286 L 89.9 286 L 74.916666666667 286 L 59.933333333333 286 L 44.95 286 L 29.966666666667 286 L 14.983333333333 286 L 0 286" class="highcharts-area"></path><path fill="none" d="M 0 210.04316666666665 L 14.983333333333 276.0062066666667 L 29.966666666667 276.1234666666667 L 44.95 273.70438333333334 L 59.933333333333 273.77683666666667 L 74.916666666667 273.7449 L 89.9 275.47806 L 104.88333333333 276.04529333333335 L 119.86666666667 273.3292466666667 L 134.85 276.19353666666666 L 149.83333333333 263.50085666666666 L 164.81666666667 271.07461333333333 L 179.8 262.76679 L 194.78333333333 273.0732766666667 L 209.76666666667 192.16626 L 224.75 275.20826666666665 L 239.73333333333 274.10859666666664 L 254.71666666667 277.0339 L 269.7 261.3801666666667 L 284.68333333333 275.08052 L 299.66666666667 273.15002 L 314.65 275.90134 L 329.63333333333 230.78293333333335 L 344.61666666667 258.9034066666667 L 359.6 276.77030333333335 L 374.58333333333 276.17780666666664 L 389.56666666667 249.02544333333333 L 404.55 277.6025633333333 L 419.53333333333 274.8421866666667 L 434.51666666667 276.52577333333335 L 449.5 276.8766 L 464.48333333333 260.6770833333333 L 479.46666666667 275.21494 L 494.45 261.23621333333335 L 509.43333333333 269.6655866666667 L 524.41666666667 271.4807333333333 L 539.4 271.73527333333334 L 554.38333333333 275.8975266666667 L 569.36666666667 271.0674633333333 L 584.35 274.0842866666667 L 599.33333333333 267.09015666666664 L 614.31666666667 274.97374666666667 L 629.3 277.0405733333333 L 644.28333333333 274.01564666666667 L 659.26666666667 275.91802333333334 L 674.25 271.99219666666664 L 689.23333333333 179.72335333333334 L 704.21666666667 275.98332666666664 L 719.2 251.40448666666666 L 734.18333333333 274.77497666666665 L 749.16666666667 274.8555333333333 L 764.15 276.59965666666665 L 779.13333333333 275.11388666666664 L 794.11666666667 272.61329333333333 L 809.1 276.83227 L 824.08333333333 275.2359133333333 L 839.06666666667 257.28131 L 854.05 265.26357 L 869.03333333333 259.93300666666664 L 884.01666666667 267.97723333333334 L 899 83.55299333333332" class="highcharts-graph" stroke-linejoin="round" stroke-linecap="round"></path><path fill="none" d="M -10 210.04316666666665 L 0 210.04316666666665 L 14.983333333333 276.0062066666667 L 29.966666666667 276.1234666666667 L 44.95 273.70438333333334 L 59.933333333333 273.77683666666667 L 74.916666666667 273.7449 L 89.9 275.47806 L 104.88333333333 276.04529333333335 L 119.86666666667 273.3292466666667 L 134.85 276.19353666666666 L 149.83333333333 263.50085666666666 L 164.81666666667 271.07461333333333 L 179.8 262.76679 L 194.78333333333 273.0732766666667 L 209.76666666667 192.16626 L 224.75 275.20826666666665 L 239.73333333333 274.10859666666664 L 254.71666666667 277.0339 L 269.7 261.3801666666667 L 284.68333333333 275.08052 L 299.66666666667 273.15002 L 314.65 275.90134 L 329.63333333333 230.78293333333335 L 344.61666666667 258.9034066666667 L 359.6 276.77030333333335 L 374.58333333333 276.17780666666664 L 389.56666666667 249.02544333333333 L 404.55 277.6025633333333 L 419.53333333333 274.8421866666667 L 434.51666666667 276.52577333333335 L 449.5 276.8766 L 464.48333333333 260.6770833333333 L 479.46666666667 275.21494 L 494.45 261.23621333333335 L 509.43333333333 269.6655866666667 L 524.41666666667 271.4807333333333 L 539.4 271.73527333333334 L 554.38333333333 275.8975266666667 L 569.36666666667 271.0674633333333 L 584.35 274.0842866666667 L 599.33333333333 267.09015666666664 L 614.31666666667 274.97374666666667 L 629.3 277.0405733333333 L 644.28333333333 274.01564666666667 L 659.26666666667 275.91802333333334 L 674.25 271.99219666666664 L 689.23333333333 179.72335333333334 L 704.21666666667 275.98332666666664 L 719.2 251.40448666666666 L 734.18333333333 274.77497666666665 L 749.16666666667 274.8555333333333 L 764.15 276.59965666666665 L 779.13333333333 275.11388666666664 L 794.11666666667 272.61329333333333 L 809.1 276.83227 L 824.08333333333 275.2359133333333 L 839.06666666667 257.28131 L 854.05 265.26357 L 869.03333333333 259.93300666666664 L 884.01666666667 267.97723333333334 L 899 83.55299333333332 L 909 83.55299333333332" stroke-linejoin="round" visibility="hidden" stroke="rgba(192,192,192,0.0001)" stroke-width="20" class="highcharts-tracker"></path></g><g class="highcharts-markers highcharts-series-5 highcharts-area-series highcharts-color-undefined highcharts-tracker " transform="translate(5,41) scale(1 1)" width="270" height="462" clip-path="none" visibility="hidden"></g><g class="highcharts-series highcharts-series-6 highcharts-area-series highcharts-color-undefined " transform="translate(5,41) scale(1 1)" width="270" height="462" clip-path="url(#highcharts-10)" visibility="hidden"><path fill="gold" d="M 0 218.35623333333334 L 14.983333333333 277.71458 L 29.966666666667 277.85948666666667 L 44.95 276.3865866666667 L 59.933333333333 276.05387333333334 L 74.916666666667 275.9790366666667 L 89.9 277.8423266666667 L 104.88333333333 277.7250666666667 L 119.86666666667 275.7616766666667 L 134.85 277.44049666666666 L 149.83333333333 272.61949 L 164.81666666667 274.23539 L 179.8 265.7273666666667 L 194.78333333333 275.55814 L 209.76666666667 199.27097666666666 L 224.75 277.06393 L 239.73333333333 275.79552 L 254.71666666667 278.43863666666664 L 269.7 266.56391666666667 L 284.68333333333 277.0076833333333 L 299.66666666667 275.3641366666667 L 314.65 276.5686733333333 L 329.63333333333 239.59173333333334 L 344.61666666667 266.32081666666664 L 359.6 278.16741333333334 L 374.58333333333 277.6864566666667 L 389.56666666667 256.91952 L 404.55 278.5048933333333 L 419.53333333333 277.59446 L 434.51666666667 277.55156 L 449.5 278.2284266666667 L 464.48333333333 266.30079666666666 L 479.46666666667 276.0724633333333 L 494.45 268.69747666666666 L 509.43333333333 272.11565333333334 L 524.41666666667 274.62959333333333 L 539.4 272.6042366666667 L 554.38333333333 277.88427333333334 L 569.36666666667 272.89357333333334 L 584.35 275.7049533333333 L 599.33333333333 271.6394633333333 L 614.31666666667 276.51147333333336 L 629.3 278.1197466666667 L 644.28333333333 276.32080666666667 L 659.26666666667 278.00105666666667 L 674.25 274.76258333333334 L 689.23333333333 189.96358333333333 L 704.21666666667 276.76553666666666 L 719.2 258.30614333333335 L 734.18333333333 277.40474666666665 L 749.16666666667 276.80605333333335 L 764.15 277.75223666666665 L 779.13333333333 278.09019333333333 L 794.11666666667 275.8722633333333 L 809.1 278.17599333333334 L 824.08333333333 277.0992033333333 L 839.06666666667 263.1891166666667 L 854.05 268.92341666666664 L 869.03333333333 263.7744633333333 L 884.01666666667 270.07838 L 899 99.07993333333334 L 899 286 L 884.01666666667 286 L 869.03333333333 286 L 854.05 286 L 839.06666666667 286 L 824.08333333333 286 L 809.1 286 L 794.11666666667 286 L 779.13333333333 286 L 764.15 286 L 749.16666666667 286 L 734.18333333333 286 L 719.2 286 L 704.21666666667 286 L 689.23333333333 286 L 674.25 286 L 659.26666666667 286 L 644.28333333333 286 L 629.3 286 L 614.31666666667 286 L 599.33333333333 286 L 584.35 286 L 569.36666666667 286 L 554.38333333333 286 L 539.4 286 L 524.41666666667 286 L 509.43333333333 286 L 494.45 286 L 479.46666666667 286 L 464.48333333333 286 L 449.5 286 L 434.51666666667 286 L 419.53333333333 286 L 404.55 286 L 389.56666666667 286 L 374.58333333333 286 L 359.6 286 L 344.61666666667 286 L 329.63333333333 286 L 314.65 286 L 299.66666666667 286 L 284.68333333333 286 L 269.7 286 L 254.71666666667 286 L 239.73333333333 286 L 224.75 286 L 209.76666666667 286 L 194.78333333333 286 L 179.8 286 L 164.81666666667 286 L 149.83333333333 286 L 134.85 286 L 119.86666666667 286 L 104.88333333333 286 L 89.9 286 L 74.916666666667 286 L 59.933333333333 286 L 44.95 286 L 29.966666666667 286 L 14.983333333333 286 L 0 286" class="highcharts-area"></path><path fill="none" d="M 0 218.35623333333334 L 14.983333333333 277.71458 L 29.966666666667 277.85948666666667 L 44.95 276.3865866666667 L 59.933333333333 276.05387333333334 L 74.916666666667 275.9790366666667 L 89.9 277.8423266666667 L 104.88333333333 277.7250666666667 L 119.86666666667 275.7616766666667 L 134.85 277.44049666666666 L 149.83333333333 272.61949 L 164.81666666667 274.23539 L 179.8 265.7273666666667 L 194.78333333333 275.55814 L 209.76666666667 199.27097666666666 L 224.75 277.06393 L 239.73333333333 275.79552 L 254.71666666667 278.43863666666664 L 269.7 266.56391666666667 L 284.68333333333 277.0076833333333 L 299.66666666667 275.3641366666667 L 314.65 276.5686733333333 L 329.63333333333 239.59173333333334 L 344.61666666667 266.32081666666664 L 359.6 278.16741333333334 L 374.58333333333 277.6864566666667 L 389.56666666667 256.91952 L 404.55 278.5048933333333 L 419.53333333333 277.59446 L 434.51666666667 277.55156 L 449.5 278.2284266666667 L 464.48333333333 266.30079666666666 L 479.46666666667 276.0724633333333 L 494.45 268.69747666666666 L 509.43333333333 272.11565333333334 L 524.41666666667 274.62959333333333 L 539.4 272.6042366666667 L 554.38333333333 277.88427333333334 L 569.36666666667 272.89357333333334 L 584.35 275.7049533333333 L 599.33333333333 271.6394633333333 L 614.31666666667 276.51147333333336 L 629.3 278.1197466666667 L 644.28333333333 276.32080666666667 L 659.26666666667 278.00105666666667 L 674.25 274.76258333333334 L 689.23333333333 189.96358333333333 L 704.21666666667 276.76553666666666 L 719.2 258.30614333333335 L 734.18333333333 277.40474666666665 L 749.16666666667 276.80605333333335 L 764.15 277.75223666666665 L 779.13333333333 278.09019333333333 L 794.11666666667 275.8722633333333 L 809.1 278.17599333333334 L 824.08333333333 277.0992033333333 L 839.06666666667 263.1891166666667 L 854.05 268.92341666666664 L 869.03333333333 263.7744633333333 L 884.01666666667 270.07838 L 899 99.07993333333334" class="highcharts-graph" stroke-linejoin="round" stroke-linecap="round"></path><path fill="none" d="M -10 218.35623333333334 L 0 218.35623333333334 L 14.983333333333 277.71458 L 29.966666666667 277.85948666666667 L 44.95 276.3865866666667 L 59.933333333333 276.05387333333334 L 74.916666666667 275.9790366666667 L 89.9 277.8423266666667 L 104.88333333333 277.7250666666667 L 119.86666666667 275.7616766666667 L 134.85 277.44049666666666 L 149.83333333333 272.61949 L 164.81666666667 274.23539 L 179.8 265.7273666666667 L 194.78333333333 275.55814 L 209.76666666667 199.27097666666666 L 224.75 277.06393 L 239.73333333333 275.79552 L 254.71666666667 278.43863666666664 L 269.7 266.56391666666667 L 284.68333333333 277.0076833333333 L 299.66666666667 275.3641366666667 L 314.65 276.5686733333333 L 329.63333333333 239.59173333333334 L 344.61666666667 266.32081666666664 L 359.6 278.16741333333334 L 374.58333333333 277.6864566666667 L 389.56666666667 256.91952 L 404.55 278.5048933333333 L 419.53333333333 277.59446 L 434.51666666667 277.55156 L 449.5 278.2284266666667 L 464.48333333333 266.30079666666666 L 479.46666666667 276.0724633333333 L 494.45 268.69747666666666 L 509.43333333333 272.11565333333334 L 524.41666666667 274.62959333333333 L 539.4 272.6042366666667 L 554.38333333333 277.88427333333334 L 569.36666666667 272.89357333333334 L 584.35 275.7049533333333 L 599.33333333333 271.6394633333333 L 614.31666666667 276.51147333333336 L 629.3 278.1197466666667 L 644.28333333333 276.32080666666667 L 659.26666666667 278.00105666666667 L 674.25 274.76258333333334 L 689.23333333333 189.96358333333333 L 704.21666666667 276.76553666666666 L 719.2 258.30614333333335 L 734.18333333333 277.40474666666665 L 749.16666666667 276.80605333333335 L 764.15 277.75223666666665 L 779.13333333333 278.09019333333333 L 794.11666666667 275.8722633333333 L 809.1 278.17599333333334 L 824.08333333333 277.0992033333333 L 839.06666666667 263.1891166666667 L 854.05 268.92341666666664 L 869.03333333333 263.7744633333333 L 884.01666666667 270.07838 L 899 99.07993333333334 L 909 99.07993333333334" stroke-linejoin="round" visibility="hidden" stroke="rgba(192,192,192,0.0001)" stroke-width="20" class="highcharts-tracker"></path></g><g class="highcharts-markers highcharts-series-6 highcharts-area-series highcharts-color-undefined highcharts-tracker " transform="translate(5,41) scale(1 1)" width="270" height="462" clip-path="none" visibility="hidden"></g><g class="highcharts-series highcharts-series-7 highcharts-area-series highcharts-color-undefined " transform="translate(5,41) scale(1 1)" width="270" height="462" clip-path="url(#highcharts-10)" visibility="hidden"><path fill="Orange" d="M 0 223.01183666666668 L 14.983333333333 278.50823 L 29.966666666667 278.3547433333333 L 44.95 277.0405733333333 L 59.933333333333 277.2617466666667 L 74.916666666667 276.8103433333333 L 89.9 278.64408 L 104.88333333333 278.5497 L 119.86666666667 277.10063333333335 L 134.85 278.5973666666667 L 149.83333333333 275.4466 L 164.81666666667 275.55671 L 179.8 269.0935866666667 L 194.78333333333 277.77178 L 209.76666666667 203.86127666666667 L 224.75 278.25130666666666 L 239.73333333333 276.46952666666664 L 254.71666666667 278.9977666666667 L 269.7 269.92298666666665 L 284.68333333333 278.06731333333335 L 299.66666666667 276.43425333333334 L 314.65 277.29225333333335 L 329.63333333333 247.04060333333334 L 344.61666666667 269.73518 L 359.6 279.01588 L 374.58333333333 278.7236833333333 L 389.56666666667 262.67479333333335 L 404.55 279.20464 L 419.53333333333 278.2932533333333 L 434.51666666667 278.3576033333333 L 449.5 279.3042633333333 L 464.48333333333 269.68656 L 479.46666666667 277.03819 L 494.45 272.52558666666664 L 509.43333333333 273.52706333333333 L 524.41666666667 275.54336333333333 L 539.4 274.17819 L 554.38333333333 278.53683 L 569.36666666667 274.09620333333334 L 584.35 276.65399666666667 L 599.33333333333 272.9250333333333 L 614.31666666667 277.13638333333336 L 629.3 278.6793533333333 L 644.28333333333 277.81992333333335 L 659.26666666667 278.42719666666665 L 674.25 276.1449166666667 L 689.23333333333 198.90394333333333 L 704.21666666667 277.79370666666665 L 719.2 261.40161666666665 L 734.18333333333 278.1311866666667 L 749.16666666667 278.0196466666667 L 764.15 278.6231066666667 L 779.13333333333 278.73846 L 794.11666666667 277.59064666666666 L 809.1 278.85429 L 824.08333333333 277.7307866666667 L 839.06666666667 266.84467333333333 L 854.05 272.02032 L 869.03333333333 268.3271066666667 L 884.01666666667 272.24101666666667 L 899 106.61984666666666 L 899 286 L 884.01666666667 286 L 869.03333333333 286 L 854.05 286 L 839.06666666667 286 L 824.08333333333 286 L 809.1 286 L 794.11666666667 286 L 779.13333333333 286 L 764.15 286 L 749.16666666667 286 L 734.18333333333 286 L 719.2 286 L 704.21666666667 286 L 689.23333333333 286 L 674.25 286 L 659.26666666667 286 L 644.28333333333 286 L 629.3 286 L 614.31666666667 286 L 599.33333333333 286 L 584.35 286 L 569.36666666667 286 L 554.38333333333 286 L 539.4 286 L 524.41666666667 286 L 509.43333333333 286 L 494.45 286 L 479.46666666667 286 L 464.48333333333 286 L 449.5 286 L 434.51666666667 286 L 419.53333333333 286 L 404.55 286 L 389.56666666667 286 L 374.58333333333 286 L 359.6 286 L 344.61666666667 286 L 329.63333333333 286 L 314.65 286 L 299.66666666667 286 L 284.68333333333 286 L 269.7 286 L 254.71666666667 286 L 239.73333333333 286 L 224.75 286 L 209.76666666667 286 L 194.78333333333 286 L 179.8 286 L 164.81666666667 286 L 149.83333333333 286 L 134.85 286 L 119.86666666667 286 L 104.88333333333 286 L 89.9 286 L 74.916666666667 286 L 59.933333333333 286 L 44.95 286 L 29.966666666667 286 L 14.983333333333 286 L 0 286" class="highcharts-area"></path><path fill="none" d="M 0 223.01183666666668 L 14.983333333333 278.50823 L 29.966666666667 278.3547433333333 L 44.95 277.0405733333333 L 59.933333333333 277.2617466666667 L 74.916666666667 276.8103433333333 L 89.9 278.64408 L 104.88333333333 278.5497 L 119.86666666667 277.10063333333335 L 134.85 278.5973666666667 L 149.83333333333 275.4466 L 164.81666666667 275.55671 L 179.8 269.0935866666667 L 194.78333333333 277.77178 L 209.76666666667 203.86127666666667 L 224.75 278.25130666666666 L 239.73333333333 276.46952666666664 L 254.71666666667 278.9977666666667 L 269.7 269.92298666666665 L 284.68333333333 278.06731333333335 L 299.66666666667 276.43425333333334 L 314.65 277.29225333333335 L 329.63333333333 247.04060333333334 L 344.61666666667 269.73518 L 359.6 279.01588 L 374.58333333333 278.7236833333333 L 389.56666666667 262.67479333333335 L 404.55 279.20464 L 419.53333333333 278.2932533333333 L 434.51666666667 278.3576033333333 L 449.5 279.3042633333333 L 464.48333333333 269.68656 L 479.46666666667 277.03819 L 494.45 272.52558666666664 L 509.43333333333 273.52706333333333 L 524.41666666667 275.54336333333333 L 539.4 274.17819 L 554.38333333333 278.53683 L 569.36666666667 274.09620333333334 L 584.35 276.65399666666667 L 599.33333333333 272.9250333333333 L 614.31666666667 277.13638333333336 L 629.3 278.6793533333333 L 644.28333333333 277.81992333333335 L 659.26666666667 278.42719666666665 L 674.25 276.1449166666667 L 689.23333333333 198.90394333333333 L 704.21666666667 277.79370666666665 L 719.2 261.40161666666665 L 734.18333333333 278.1311866666667 L 749.16666666667 278.0196466666667 L 764.15 278.6231066666667 L 779.13333333333 278.73846 L 794.11666666667 277.59064666666666 L 809.1 278.85429 L 824.08333333333 277.7307866666667 L 839.06666666667 266.84467333333333 L 854.05 272.02032 L 869.03333333333 268.3271066666667 L 884.01666666667 272.24101666666667 L 899 106.61984666666666" class="highcharts-graph" stroke-linejoin="round" stroke-linecap="round"></path><path fill="none" d="M -10 223.01183666666668 L 0 223.01183666666668 L 14.983333333333 278.50823 L 29.966666666667 278.3547433333333 L 44.95 277.0405733333333 L 59.933333333333 277.2617466666667 L 74.916666666667 276.8103433333333 L 89.9 278.64408 L 104.88333333333 278.5497 L 119.86666666667 277.10063333333335 L 134.85 278.5973666666667 L 149.83333333333 275.4466 L 164.81666666667 275.55671 L 179.8 269.0935866666667 L 194.78333333333 277.77178 L 209.76666666667 203.86127666666667 L 224.75 278.25130666666666 L 239.73333333333 276.46952666666664 L 254.71666666667 278.9977666666667 L 269.7 269.92298666666665 L 284.68333333333 278.06731333333335 L 299.66666666667 276.43425333333334 L 314.65 277.29225333333335 L 329.63333333333 247.04060333333334 L 344.61666666667 269.73518 L 359.6 279.01588 L 374.58333333333 278.7236833333333 L 389.56666666667 262.67479333333335 L 404.55 279.20464 L 419.53333333333 278.2932533333333 L 434.51666666667 278.3576033333333 L 449.5 279.3042633333333 L 464.48333333333 269.68656 L 479.46666666667 277.03819 L 494.45 272.52558666666664 L 509.43333333333 273.52706333333333 L 524.41666666667 275.54336333333333 L 539.4 274.17819 L 554.38333333333 278.53683 L 569.36666666667 274.09620333333334 L 584.35 276.65399666666667 L 599.33333333333 272.9250333333333 L 614.31666666667 277.13638333333336 L 629.3 278.6793533333333 L 644.28333333333 277.81992333333335 L 659.26666666667 278.42719666666665 L 674.25 276.1449166666667 L 689.23333333333 198.90394333333333 L 704.21666666667 277.79370666666665 L 719.2 261.40161666666665 L 734.18333333333 278.1311866666667 L 749.16666666667 278.0196466666667 L 764.15 278.6231066666667 L 779.13333333333 278.73846 L 794.11666666667 277.59064666666666 L 809.1 278.85429 L 824.08333333333 277.7307866666667 L 839.06666666667 266.84467333333333 L 854.05 272.02032 L 869.03333333333 268.3271066666667 L 884.01666666667 272.24101666666667 L 899 106.61984666666666 L 909 106.61984666666666" stroke-linejoin="round" visibility="hidden" stroke="rgba(192,192,192,0.0001)" stroke-width="20" class="highcharts-tracker"></path></g><g class="highcharts-markers highcharts-series-7 highcharts-area-series highcharts-color-undefined highcharts-tracker " transform="translate(5,41) scale(1 1)" width="270" height="462" clip-path="none" visibility="hidden"></g><g class="highcharts-series highcharts-series-8 highcharts-area-series highcharts-color-undefined " transform="translate(5,41) scale(1 1)" width="270" height="462" clip-path="url(#highcharts-10)" visibility="hidden"><path fill="DarkOrange" d="M 0 229.86201333333332 L 14.983333333333 278.8380833333333 L 29.966666666667 278.9591566666667 L 44.95 278.20221 L 59.933333333333 278.0396666666667 L 74.916666666667 277.90191 L 89.9 279.06021 L 104.88333333333 278.86668333333336 L 119.86666666667 278.1302333333333 L 134.85 279.16698333333335 L 149.83333333333 277.01388 L 164.81666666667 276.72597333333334 L 179.8 271.28196333333335 L 194.78333333333 278.5230066666667 L 209.76666666667 209.63847666666666 L 224.75 279.0306566666667 L 239.73333333333 277.71982333333335 L 254.71666666667 279.3505 L 269.7 273.94891333333334 L 284.68333333333 278.59784333333334 L 299.66666666667 277.18548 L 314.65 278.2517833333333 L 329.63333333333 254.23398 L 344.61666666667 272.6009 L 359.6 279.51495 L 374.58333333333 279.24849333333333 L 389.56666666667 269.02447 L 404.55 279.75805 L 419.53333333333 279.1646 L 434.51666666667 278.95677333333333 L 449.5 279.7604333333333 L 464.48333333333 272.2066966666667 L 479.46666666667 277.72649666666666 L 494.45 274.1371966666667 L 509.43333333333 275.0743233333333 L 524.41666666667 276.3046 L 539.4 275.1658433333333 L 554.38333333333 279.09262333333334 L 569.36666666667 275.18205 L 584.35 277.38663333333335 L 599.33333333333 274.22824 L 614.31666666667 277.91430333333335 L 629.3 279.1393366666667 L 644.28333333333 278.3104133333333 L 659.26666666667 279.08452 L 674.25 277.74318 L 689.23333333333 206.51774 L 704.21666666667 278.37095 L 719.2 265.21876333333336 L 734.18333333333 278.66028666666665 L 749.16666666667 278.75943333333333 L 764.15 279.15602 L 779.13333333333 279.2251366666667 L 794.11666666667 278.19649 L 809.1 279.48873333333336 L 824.08333333333 278.4991733333333 L 839.06666666667 269.28949666666665 L 854.05 273.07137 L 869.03333333333 271.72764666666666 L 884.01666666667 273.12428 L 899 112.62536999999998 L 899 286 L 884.01666666667 286 L 869.03333333333 286 L 854.05 286 L 839.06666666667 286 L 824.08333333333 286 L 809.1 286 L 794.11666666667 286 L 779.13333333333 286 L 764.15 286 L 749.16666666667 286 L 734.18333333333 286 L 719.2 286 L 704.21666666667 286 L 689.23333333333 286 L 674.25 286 L 659.26666666667 286 L 644.28333333333 286 L 629.3 286 L 614.31666666667 286 L 599.33333333333 286 L 584.35 286 L 569.36666666667 286 L 554.38333333333 286 L 539.4 286 L 524.41666666667 286 L 509.43333333333 286 L 494.45 286 L 479.46666666667 286 L 464.48333333333 286 L 449.5 286 L 434.51666666667 286 L 419.53333333333 286 L 404.55 286 L 389.56666666667 286 L 374.58333333333 286 L 359.6 286 L 344.61666666667 286 L 329.63333333333 286 L 314.65 286 L 299.66666666667 286 L 284.68333333333 286 L 269.7 286 L 254.71666666667 286 L 239.73333333333 286 L 224.75 286 L 209.76666666667 286 L 194.78333333333 286 L 179.8 286 L 164.81666666667 286 L 149.83333333333 286 L 134.85 286 L 119.86666666667 286 L 104.88333333333 286 L 89.9 286 L 74.916666666667 286 L 59.933333333333 286 L 44.95 286 L 29.966666666667 286 L 14.983333333333 286 L 0 286" class="highcharts-area"></path><path fill="none" d="M 0 229.86201333333332 L 14.983333333333 278.8380833333333 L 29.966666666667 278.9591566666667 L 44.95 278.20221 L 59.933333333333 278.0396666666667 L 74.916666666667 277.90191 L 89.9 279.06021 L 104.88333333333 278.86668333333336 L 119.86666666667 278.1302333333333 L 134.85 279.16698333333335 L 149.83333333333 277.01388 L 164.81666666667 276.72597333333334 L 179.8 271.28196333333335 L 194.78333333333 278.5230066666667 L 209.76666666667 209.63847666666666 L 224.75 279.0306566666667 L 239.73333333333 277.71982333333335 L 254.71666666667 279.3505 L 269.7 273.94891333333334 L 284.68333333333 278.59784333333334 L 299.66666666667 277.18548 L 314.65 278.2517833333333 L 329.63333333333 254.23398 L 344.61666666667 272.6009 L 359.6 279.51495 L 374.58333333333 279.24849333333333 L 389.56666666667 269.02447 L 404.55 279.75805 L 419.53333333333 279.1646 L 434.51666666667 278.95677333333333 L 449.5 279.7604333333333 L 464.48333333333 272.2066966666667 L 479.46666666667 277.72649666666666 L 494.45 274.1371966666667 L 509.43333333333 275.0743233333333 L 524.41666666667 276.3046 L 539.4 275.1658433333333 L 554.38333333333 279.09262333333334 L 569.36666666667 275.18205 L 584.35 277.38663333333335 L 599.33333333333 274.22824 L 614.31666666667 277.91430333333335 L 629.3 279.1393366666667 L 644.28333333333 278.3104133333333 L 659.26666666667 279.08452 L 674.25 277.74318 L 689.23333333333 206.51774 L 704.21666666667 278.37095 L 719.2 265.21876333333336 L 734.18333333333 278.66028666666665 L 749.16666666667 278.75943333333333 L 764.15 279.15602 L 779.13333333333 279.2251366666667 L 794.11666666667 278.19649 L 809.1 279.48873333333336 L 824.08333333333 278.4991733333333 L 839.06666666667 269.28949666666665 L 854.05 273.07137 L 869.03333333333 271.72764666666666 L 884.01666666667 273.12428 L 899 112.62536999999998" class="highcharts-graph" stroke-linejoin="round" stroke-linecap="round"></path><path fill="none" d="M -10 229.86201333333332 L 0 229.86201333333332 L 14.983333333333 278.8380833333333 L 29.966666666667 278.9591566666667 L 44.95 278.20221 L 59.933333333333 278.0396666666667 L 74.916666666667 277.90191 L 89.9 279.06021 L 104.88333333333 278.86668333333336 L 119.86666666667 278.1302333333333 L 134.85 279.16698333333335 L 149.83333333333 277.01388 L 164.81666666667 276.72597333333334 L 179.8 271.28196333333335 L 194.78333333333 278.5230066666667 L 209.76666666667 209.63847666666666 L 224.75 279.0306566666667 L 239.73333333333 277.71982333333335 L 254.71666666667 279.3505 L 269.7 273.94891333333334 L 284.68333333333 278.59784333333334 L 299.66666666667 277.18548 L 314.65 278.2517833333333 L 329.63333333333 254.23398 L 344.61666666667 272.6009 L 359.6 279.51495 L 374.58333333333 279.24849333333333 L 389.56666666667 269.02447 L 404.55 279.75805 L 419.53333333333 279.1646 L 434.51666666667 278.95677333333333 L 449.5 279.7604333333333 L 464.48333333333 272.2066966666667 L 479.46666666667 277.72649666666666 L 494.45 274.1371966666667 L 509.43333333333 275.0743233333333 L 524.41666666667 276.3046 L 539.4 275.1658433333333 L 554.38333333333 279.09262333333334 L 569.36666666667 275.18205 L 584.35 277.38663333333335 L 599.33333333333 274.22824 L 614.31666666667 277.91430333333335 L 629.3 279.1393366666667 L 644.28333333333 278.3104133333333 L 659.26666666667 279.08452 L 674.25 277.74318 L 689.23333333333 206.51774 L 704.21666666667 278.37095 L 719.2 265.21876333333336 L 734.18333333333 278.66028666666665 L 749.16666666667 278.75943333333333 L 764.15 279.15602 L 779.13333333333 279.2251366666667 L 794.11666666667 278.19649 L 809.1 279.48873333333336 L 824.08333333333 278.4991733333333 L 839.06666666667 269.28949666666665 L 854.05 273.07137 L 869.03333333333 271.72764666666666 L 884.01666666667 273.12428 L 899 112.62536999999998 L 909 112.62536999999998" stroke-linejoin="round" visibility="hidden" stroke="rgba(192,192,192,0.0001)" stroke-width="20" class="highcharts-tracker"></path></g><g class="highcharts-markers highcharts-series-8 highcharts-area-series highcharts-color-undefined highcharts-tracker " transform="translate(5,41) scale(1 1)" width="270" height="462" clip-path="none" visibility="hidden"></g><g class="highcharts-series highcharts-series-9 highcharts-area-series highcharts-color-undefined " transform="translate(5,41) scale(1 1)" width="270" height="462" clip-path="url(#highcharts-10)" visibility="hidden"><path fill="Coral" d="M 0 232.57091 L 14.983333333333 279.23419333333334 L 29.966666666667 279.30331 L 44.95 278.7608633333333 L 59.933333333333 278.55828 L 74.916666666667 278.38286666666664 L 89.9 279.29091666666665 L 104.88333333333 279.31761 L 119.86666666667 278.7551433333333 L 134.85 279.42486 L 149.83333333333 277.73507666666666 L 164.81666666667 277.2731866666667 L 179.8 272.9345666666667 L 194.78333333333 278.9238833333333 L 209.76666666667 215.3723 L 224.75 279.6498466666667 L 239.73333333333 278.54016666666666 L 254.71666666667 279.66462333333334 L 269.7 275.97284 L 284.68333333333 279.05306 L 299.66666666667 277.73317 L 314.65 278.86144 L 329.63333333333 262.01032 L 344.61666666667 275.9251733333333 L 359.6 279.7575733333333 L 374.58333333333 279.80714666666665 L 389.56666666667 275.0414333333333 L 404.55 280.15177666666665 L 419.53333333333 279.57787 L 434.51666666667 279.4839666666667 L 449.5 280.1350933333333 L 464.48333333333 273.62335 L 479.46666666667 278.0349 L 494.45 275.39512 L 509.43333333333 275.87703 L 524.41666666667 277.0134033333333 L 539.4 276.06531333333334 L 554.38333333333 279.44821666666667 L 569.36666666667 275.89037666666667 L 584.35 277.88713333333334 L 599.33333333333 275.65538 L 614.31666666667 278.25512 L 629.3 279.46776 L 644.28333333333 278.76706 L 659.26666666667 279.34954666666664 L 674.25 278.30993666666666 L 689.23333333333 210.80488 L 704.21666666667 278.66314666666665 L 719.2 267.0954 L 734.18333333333 279.01111333333336 L 749.16666666667 279.15602 L 764.15 279.6226766666667 L 779.13333333333 279.53878333333336 L 794.11666666667 278.64122 L 809.1 279.78998666666666 L 824.08333333333 278.85 L 839.06666666667 271.0360033333333 L 854.05 274.22109 L 869.03333333333 273.3016 L 884.01666666667 274.1543566666667 L 899 114.59733999999997 L 899 286 L 884.01666666667 286 L 869.03333333333 286 L 854.05 286 L 839.06666666667 286 L 824.08333333333 286 L 809.1 286 L 794.11666666667 286 L 779.13333333333 286 L 764.15 286 L 749.16666666667 286 L 734.18333333333 286 L 719.2 286 L 704.21666666667 286 L 689.23333333333 286 L 674.25 286 L 659.26666666667 286 L 644.28333333333 286 L 629.3 286 L 614.31666666667 286 L 599.33333333333 286 L 584.35 286 L 569.36666666667 286 L 554.38333333333 286 L 539.4 286 L 524.41666666667 286 L 509.43333333333 286 L 494.45 286 L 479.46666666667 286 L 464.48333333333 286 L 449.5 286 L 434.51666666667 286 L 419.53333333333 286 L 404.55 286 L 389.56666666667 286 L 374.58333333333 286 L 359.6 286 L 344.61666666667 286 L 329.63333333333 286 L 314.65 286 L 299.66666666667 286 L 284.68333333333 286 L 269.7 286 L 254.71666666667 286 L 239.73333333333 286 L 224.75 286 L 209.76666666667 286 L 194.78333333333 286 L 179.8 286 L 164.81666666667 286 L 149.83333333333 286 L 134.85 286 L 119.86666666667 286 L 104.88333333333 286 L 89.9 286 L 74.916666666667 286 L 59.933333333333 286 L 44.95 286 L 29.966666666667 286 L 14.983333333333 286 L 0 286" class="highcharts-area"></path><path fill="none" d="M 0 232.57091 L 14.983333333333 279.23419333333334 L 29.966666666667 279.30331 L 44.95 278.7608633333333 L 59.933333333333 278.55828 L 74.916666666667 278.38286666666664 L 89.9 279.29091666666665 L 104.88333333333 279.31761 L 119.86666666667 278.7551433333333 L 134.85 279.42486 L 149.83333333333 277.73507666666666 L 164.81666666667 277.2731866666667 L 179.8 272.9345666666667 L 194.78333333333 278.9238833333333 L 209.76666666667 215.3723 L 224.75 279.6498466666667 L 239.73333333333 278.54016666666666 L 254.71666666667 279.66462333333334 L 269.7 275.97284 L 284.68333333333 279.05306 L 299.66666666667 277.73317 L 314.65 278.86144 L 329.63333333333 262.01032 L 344.61666666667 275.9251733333333 L 359.6 279.7575733333333 L 374.58333333333 279.80714666666665 L 389.56666666667 275.0414333333333 L 404.55 280.15177666666665 L 419.53333333333 279.57787 L 434.51666666667 279.4839666666667 L 449.5 280.1350933333333 L 464.48333333333 273.62335 L 479.46666666667 278.0349 L 494.45 275.39512 L 509.43333333333 275.87703 L 524.41666666667 277.0134033333333 L 539.4 276.06531333333334 L 554.38333333333 279.44821666666667 L 569.36666666667 275.89037666666667 L 584.35 277.88713333333334 L 599.33333333333 275.65538 L 614.31666666667 278.25512 L 629.3 279.46776 L 644.28333333333 278.76706 L 659.26666666667 279.34954666666664 L 674.25 278.30993666666666 L 689.23333333333 210.80488 L 704.21666666667 278.66314666666665 L 719.2 267.0954 L 734.18333333333 279.01111333333336 L 749.16666666667 279.15602 L 764.15 279.6226766666667 L 779.13333333333 279.53878333333336 L 794.11666666667 278.64122 L 809.1 279.78998666666666 L 824.08333333333 278.85 L 839.06666666667 271.0360033333333 L 854.05 274.22109 L 869.03333333333 273.3016 L 884.01666666667 274.1543566666667 L 899 114.59733999999997" class="highcharts-graph" stroke-linejoin="round" stroke-linecap="round"></path><path fill="none" d="M -10 232.57091 L 0 232.57091 L 14.983333333333 279.23419333333334 L 29.966666666667 279.30331 L 44.95 278.7608633333333 L 59.933333333333 278.55828 L 74.916666666667 278.38286666666664 L 89.9 279.29091666666665 L 104.88333333333 279.31761 L 119.86666666667 278.7551433333333 L 134.85 279.42486 L 149.83333333333 277.73507666666666 L 164.81666666667 277.2731866666667 L 179.8 272.9345666666667 L 194.78333333333 278.9238833333333 L 209.76666666667 215.3723 L 224.75 279.6498466666667 L 239.73333333333 278.54016666666666 L 254.71666666667 279.66462333333334 L 269.7 275.97284 L 284.68333333333 279.05306 L 299.66666666667 277.73317 L 314.65 278.86144 L 329.63333333333 262.01032 L 344.61666666667 275.9251733333333 L 359.6 279.7575733333333 L 374.58333333333 279.80714666666665 L 389.56666666667 275.0414333333333 L 404.55 280.15177666666665 L 419.53333333333 279.57787 L 434.51666666667 279.4839666666667 L 449.5 280.1350933333333 L 464.48333333333 273.62335 L 479.46666666667 278.0349 L 494.45 275.39512 L 509.43333333333 275.87703 L 524.41666666667 277.0134033333333 L 539.4 276.06531333333334 L 554.38333333333 279.44821666666667 L 569.36666666667 275.89037666666667 L 584.35 277.88713333333334 L 599.33333333333 275.65538 L 614.31666666667 278.25512 L 629.3 279.46776 L 644.28333333333 278.76706 L 659.26666666667 279.34954666666664 L 674.25 278.30993666666666 L 689.23333333333 210.80488 L 704.21666666667 278.66314666666665 L 719.2 267.0954 L 734.18333333333 279.01111333333336 L 749.16666666667 279.15602 L 764.15 279.6226766666667 L 779.13333333333 279.53878333333336 L 794.11666666667 278.64122 L 809.1 279.78998666666666 L 824.08333333333 278.85 L 839.06666666667 271.0360033333333 L 854.05 274.22109 L 869.03333333333 273.3016 L 884.01666666667 274.1543566666667 L 899 114.59733999999997 L 909 114.59733999999997" stroke-linejoin="round" visibility="hidden" stroke="rgba(192,192,192,0.0001)" stroke-width="20" class="highcharts-tracker"></path></g><g class="highcharts-markers highcharts-series-9 highcharts-area-series highcharts-color-undefined highcharts-tracker " transform="translate(5,41) scale(1 1)" width="270" height="462" clip-path="none" visibility="hidden"></g><g class="highcharts-series highcharts-series-10 highcharts-area-series highcharts-color-undefined " transform="translate(5,41) scale(1 1)" width="270" height="462" clip-path="url(#highcharts-10)" visibility="hidden"><path fill="rgb(248,87,80)" d="M 0 255.83605666666668 L 14.983333333333 280.3438733333333 L 29.966666666667 280.5512233333333 L 44.95 280.36961333333335 L 59.933333333333 280.52596 L 74.916666666667 280.2947766666667 L 89.9 280.68707333333333 L 104.88333333333 280.6308266666667 L 119.86666666667 280.3248066666667 L 134.85 280.94924 L 149.83333333333 280.25712 L 164.81666666667 279.77425666666664 L 179.8 278.0425266666667 L 194.78333333333 280.3739033333333 L 209.76666666667 252.80159666666665 L 224.75 281.0903333333333 L 239.73333333333 280.41728 L 254.71666666667 280.76810666666665 L 269.7 280.01306666666665 L 284.68333333333 280.7376 L 299.66666666667 279.67654 L 314.65 280.30478666666664 L 329.63333333333 276.17304 L 344.61666666667 279.6460333333333 L 359.6 280.93684666666667 L 374.58333333333 280.76333999999997 L 389.56666666667 279.89580666666666 L 404.55 281.19806 L 419.53333333333 280.76238666666666 L 434.51666666667 280.53311 L 449.5 281.0931933333333 L 464.48333333333 278.73369333333335 L 479.46666666667 279.50637 L 494.45 278.74608666666666 L 509.43333333333 278.57639333333333 L 524.41666666667 279.16126333333335 L 539.4 279.2637466666667 L 554.38333333333 280.69041 L 569.36666666667 278.7708733333333 L 584.35 280.16941333333335 L 599.33333333333 279.21036 L 614.31666666667 279.60694666666666 L 629.3 280.82292333333334 L 644.28333333333 280.3438733333333 L 659.26666666667 280.65466 L 674.25 280.06407 L 689.23333333333 257.5639733333333 L 704.21666666667 279.9463333333333 L 719.2 274.95038999999997 L 734.18333333333 280.57839333333334 L 749.16666666667 280.39630666666665 L 764.15 280.9959533333333 L 779.13333333333 280.93398666666667 L 794.11666666667 279.98160666666666 L 809.1 280.96163333333334 L 824.08333333333 280.54741 L 839.06666666667 276.9285566666667 L 854.05 277.54917666666665 L 869.03333333333 276.8341766666667 L 884.01666666667 277.02627333333334 L 899 138.73049666666665 L 899 286 L 884.01666666667 286 L 869.03333333333 286 L 854.05 286 L 839.06666666667 286 L 824.08333333333 286 L 809.1 286 L 794.11666666667 286 L 779.13333333333 286 L 764.15 286 L 749.16666666667 286 L 734.18333333333 286 L 719.2 286 L 704.21666666667 286 L 689.23333333333 286 L 674.25 286 L 659.26666666667 286 L 644.28333333333 286 L 629.3 286 L 614.31666666667 286 L 599.33333333333 286 L 584.35 286 L 569.36666666667 286 L 554.38333333333 286 L 539.4 286 L 524.41666666667 286 L 509.43333333333 286 L 494.45 286 L 479.46666666667 286 L 464.48333333333 286 L 449.5 286 L 434.51666666667 286 L 419.53333333333 286 L 404.55 286 L 389.56666666667 286 L 374.58333333333 286 L 359.6 286 L 344.61666666667 286 L 329.63333333333 286 L 314.65 286 L 299.66666666667 286 L 284.68333333333 286 L 269.7 286 L 254.71666666667 286 L 239.73333333333 286 L 224.75 286 L 209.76666666667 286 L 194.78333333333 286 L 179.8 286 L 164.81666666667 286 L 149.83333333333 286 L 134.85 286 L 119.86666666667 286 L 104.88333333333 286 L 89.9 286 L 74.916666666667 286 L 59.933333333333 286 L 44.95 286 L 29.966666666667 286 L 14.983333333333 286 L 0 286" class="highcharts-area"></path><path fill="none" d="M 0 255.83605666666668 L 14.983333333333 280.3438733333333 L 29.966666666667 280.5512233333333 L 44.95 280.36961333333335 L 59.933333333333 280.52596 L 74.916666666667 280.2947766666667 L 89.9 280.68707333333333 L 104.88333333333 280.6308266666667 L 119.86666666667 280.3248066666667 L 134.85 280.94924 L 149.83333333333 280.25712 L 164.81666666667 279.77425666666664 L 179.8 278.0425266666667 L 194.78333333333 280.3739033333333 L 209.76666666667 252.80159666666665 L 224.75 281.0903333333333 L 239.73333333333 280.41728 L 254.71666666667 280.76810666666665 L 269.7 280.01306666666665 L 284.68333333333 280.7376 L 299.66666666667 279.67654 L 314.65 280.30478666666664 L 329.63333333333 276.17304 L 344.61666666667 279.6460333333333 L 359.6 280.93684666666667 L 374.58333333333 280.76333999999997 L 389.56666666667 279.89580666666666 L 404.55 281.19806 L 419.53333333333 280.76238666666666 L 434.51666666667 280.53311 L 449.5 281.0931933333333 L 464.48333333333 278.73369333333335 L 479.46666666667 279.50637 L 494.45 278.74608666666666 L 509.43333333333 278.57639333333333 L 524.41666666667 279.16126333333335 L 539.4 279.2637466666667 L 554.38333333333 280.69041 L 569.36666666667 278.7708733333333 L 584.35 280.16941333333335 L 599.33333333333 279.21036 L 614.31666666667 279.60694666666666 L 629.3 280.82292333333334 L 644.28333333333 280.3438733333333 L 659.26666666667 280.65466 L 674.25 280.06407 L 689.23333333333 257.5639733333333 L 704.21666666667 279.9463333333333 L 719.2 274.95038999999997 L 734.18333333333 280.57839333333334 L 749.16666666667 280.39630666666665 L 764.15 280.9959533333333 L 779.13333333333 280.93398666666667 L 794.11666666667 279.98160666666666 L 809.1 280.96163333333334 L 824.08333333333 280.54741 L 839.06666666667 276.9285566666667 L 854.05 277.54917666666665 L 869.03333333333 276.8341766666667 L 884.01666666667 277.02627333333334 L 899 138.73049666666665" class="highcharts-graph" stroke-linejoin="round" stroke-linecap="round"></path><path fill="none" d="M -10 255.83605666666668 L 0 255.83605666666668 L 14.983333333333 280.3438733333333 L 29.966666666667 280.5512233333333 L 44.95 280.36961333333335 L 59.933333333333 280.52596 L 74.916666666667 280.2947766666667 L 89.9 280.68707333333333 L 104.88333333333 280.6308266666667 L 119.86666666667 280.3248066666667 L 134.85 280.94924 L 149.83333333333 280.25712 L 164.81666666667 279.77425666666664 L 179.8 278.0425266666667 L 194.78333333333 280.3739033333333 L 209.76666666667 252.80159666666665 L 224.75 281.0903333333333 L 239.73333333333 280.41728 L 254.71666666667 280.76810666666665 L 269.7 280.01306666666665 L 284.68333333333 280.7376 L 299.66666666667 279.67654 L 314.65 280.30478666666664 L 329.63333333333 276.17304 L 344.61666666667 279.6460333333333 L 359.6 280.93684666666667 L 374.58333333333 280.76333999999997 L 389.56666666667 279.89580666666666 L 404.55 281.19806 L 419.53333333333 280.76238666666666 L 434.51666666667 280.53311 L 449.5 281.0931933333333 L 464.48333333333 278.73369333333335 L 479.46666666667 279.50637 L 494.45 278.74608666666666 L 509.43333333333 278.57639333333333 L 524.41666666667 279.16126333333335 L 539.4 279.2637466666667 L 554.38333333333 280.69041 L 569.36666666667 278.7708733333333 L 584.35 280.16941333333335 L 599.33333333333 279.21036 L 614.31666666667 279.60694666666666 L 629.3 280.82292333333334 L 644.28333333333 280.3438733333333 L 659.26666666667 280.65466 L 674.25 280.06407 L 689.23333333333 257.5639733333333 L 704.21666666667 279.9463333333333 L 719.2 274.95038999999997 L 734.18333333333 280.57839333333334 L 749.16666666667 280.39630666666665 L 764.15 280.9959533333333 L 779.13333333333 280.93398666666667 L 794.11666666667 279.98160666666666 L 809.1 280.96163333333334 L 824.08333333333 280.54741 L 839.06666666667 276.9285566666667 L 854.05 277.54917666666665 L 869.03333333333 276.8341766666667 L 884.01666666667 277.02627333333334 L 899 138.73049666666665 L 909 138.73049666666665" stroke-linejoin="round" visibility="hidden" stroke="rgba(192,192,192,0.0001)" stroke-width="20" class="highcharts-tracker"></path></g><g class="highcharts-markers highcharts-series-10 highcharts-area-series highcharts-color-undefined highcharts-tracker " transform="translate(5,41) scale(1 1)" width="270" height="462" clip-path="none" visibility="hidden"></g><g class="highcharts-series highcharts-series-1 highcharts-line-series highcharts-color-undefined " transform="translate(5,41) scale(1 1)" width="270" height="462" clip-path="url(#highcharts-10)"><path fill="none" d="M 0 233.46045 L 7.7 264.20805 L 15.4 264.3741 L 23.1 263.72835 L 30.8 263.98125 L 38.5 263.7333 L 46.2 264.4155 L 53.9 264.40155 L 61.6 263.799 L 69.3 264.66345 L 77 262.5597 L 84.7 263.0304 L 92.4 260.27864999999997 L 100.1 263.8602 L 107.8 231.9597 L 115.5 264.5352 L 123.2 263.86875 L 130.9 264.70755 L 138.6 261.35865 L 146.3 264.2364 L 154 263.33685 L 161.7 264.0285 L 169.4 252.97695 L 177.1 261.06345 L 184.8 264.71925 L 192.5 264.6189 L 200.2 259.22745 L 207.9 264.99375 L 215.6 264.31335 L 223.3 264.4029 L 231 264.88485 L 238.7 260.63955 L 246.4 263.49075 L 254.1 260.9091 L 261.8 262.0044 L 269.5 262.68705 L 277.2 262.54935 L 284.9 264.48075 L 292.6 262.38375 L 300.3 263.7297 L 308 262.01925 L 315.7 263.5461 L 323.4 264.6819 L 331.1 263.97675 L 338.8 264.5298 L 346.5 263.30985 L 354.2 229.0626 L 361.9 263.81205 L 369.6 256.65165 L 377.3 264.22785 L 385 264.11895 L 392.7 264.7224 L 400.4 264.5568 L 408.1 263.48085 L 415.8 264.78765 L 423.5 264.16485 L 431.2 258.82785 L 438.9 260.30025 L 446.6 259.2297 L 454.3 260.38935 L 462 128.35485" class="highcharts-graph" stroke="#303030" stroke-width="2" stroke-linejoin="round" stroke-linecap="round"></path><path fill="none" d="M -10 233.46045 L 0 233.46045 L 7.7 264.20805 L 15.4 264.3741 L 23.1 263.72835 L 30.8 263.98125 L 38.5 263.7333 L 46.2 264.4155 L 53.9 264.40155 L 61.6 263.799 L 69.3 264.66345 L 77 262.5597 L 84.7 263.0304 L 92.4 260.27864999999997 L 100.1 263.8602 L 107.8 231.9597 L 115.5 264.5352 L 123.2 263.86875 L 130.9 264.70755 L 138.6 261.35865 L 146.3 264.2364 L 154 263.33685 L 161.7 264.0285 L 169.4 252.97695 L 177.1 261.06345 L 184.8 264.71925 L 192.5 264.6189 L 200.2 259.22745 L 207.9 264.99375 L 215.6 264.31335 L 223.3 264.4029 L 231 264.88485 L 238.7 260.63955 L 246.4 263.49075 L 254.1 260.9091 L 261.8 262.0044 L 269.5 262.68705 L 277.2 262.54935 L 284.9 264.48075 L 292.6 262.38375 L 300.3 263.7297 L 308 262.01925 L 315.7 263.5461 L 323.4 264.6819 L 331.1 263.97675 L 338.8 264.5298 L 346.5 263.30985 L 354.2 229.0626 L 361.9 263.81205 L 369.6 256.65165 L 377.3 264.22785 L 385 264.11895 L 392.7 264.7224 L 400.4 264.5568 L 408.1 263.48085 L 415.8 264.78765 L 423.5 264.16485 L 431.2 258.82785 L 438.9 260.30025 L 446.6 259.2297 L 454.3 260.38935 L 462 128.35485 L 472 128.35485" stroke-linejoin="round" visibility="visible" stroke="rgba(192,192,192,0.0001)" stroke-width="22" class="highcharts-tracker"></path></g><g class="highcharts-markers highcharts-series-1 highcharts-line-series highcharts-color-undefined highcharts-tracker " transform="translate(5,41) scale(1 1)" width="270" height="462" clip-path="none"></g><g class="highcharts-series highcharts-series-2 highcharts-line-series highcharts-color-undefined " transform="translate(5,41) scale(1 1)" width="270" height="462" clip-path="url(#highcharts-10)" visibility="hidden"><path fill="none" d="M 0 27.508433333333357 L 14.983333333333 267.94482 L 29.966666666667 270.7971933333333 L 44.95 260.80959666666666 L 59.933333333333 266.75935 L 74.916666666667 262.6195 L 89.9 272.7920433333333 L 104.88333333333 271.22285666666664 L 119.86666666667 265.8293733333333 L 134.85 271.53793333333334 L 149.83333333333 249.59935000000002 L 164.81666666667 255.52002666666667 L 179.8 244.07144666666667 L 194.78333333333 263.2134266666667 L 209.76666666667 143.25549333333333 L 224.75 269.01493666666664 L 239.73333333333 268.77326666666664 L 254.71666666667 274.67011 L 269.7 242.53800999999999 L 284.68333333333 263.92556666666667 L 299.66666666667 261.54557 L 314.65 266.66783 L 329.63333333333 204.90327 L 344.61666666667 243.78211 L 359.6 269.0135066666667 L 374.58333333333 272.6724 L 389.56666666667 227.79661666666667 L 404.55 272.96030666666667 L 419.53333333333 254.15104 L 434.51666666667 270.29192666666665 L 449.5 269.69990666666666 L 464.48333333333 251.83301 L 479.46666666667 269.44965666666667 L 494.45 237.97011333333333 L 509.43333333333 261.59991 L 524.41666666667 261.07796 L 539.4 263.90364 L 554.38333333333 271.57416 L 569.36666666667 264.74162 L 584.35 270.02451666666667 L 599.33333333333 259.3714933333333 L 614.31666666667 269.6408 L 629.3 271.2514566666667 L 644.28333333333 266.37182 L 659.26666666667 271.11513 L 674.25 258.38527 L 689.23333333333 121.65963333333335 L 704.21666666667 261.55653333333333 L 719.2 225.06388666666666 L 734.18333333333 265.22543666666667 L 749.16666666667 262.68909333333335 L 764.15 274.1929666666667 L 779.13333333333 269.0640333333333 L 794.11666666667 259.51926 L 809.1 270.44684333333333 L 824.08333333333 267.11923333333334 L 839.06666666667 246.49291333333332 L 854.05 246.43333 L 869.03333333333 245.65398 L 884.01666666667 245.45902333333333 L 899 62.88901666666666" class="highcharts-graph" stroke="#b2b8c8" stroke-width="2" stroke-linejoin="round" stroke-linecap="round"></path><path fill="none" d="M -10 27.508433333333357 L 0 27.508433333333357 L 14.983333333333 267.94482 L 29.966666666667 270.7971933333333 L 44.95 260.80959666666666 L 59.933333333333 266.75935 L 74.916666666667 262.6195 L 89.9 272.7920433333333 L 104.88333333333 271.22285666666664 L 119.86666666667 265.8293733333333 L 134.85 271.53793333333334 L 149.83333333333 249.59935000000002 L 164.81666666667 255.52002666666667 L 179.8 244.07144666666667 L 194.78333333333 263.2134266666667 L 209.76666666667 143.25549333333333 L 224.75 269.01493666666664 L 239.73333333333 268.77326666666664 L 254.71666666667 274.67011 L 269.7 242.53800999999999 L 284.68333333333 263.92556666666667 L 299.66666666667 261.54557 L 314.65 266.66783 L 329.63333333333 204.90327 L 344.61666666667 243.78211 L 359.6 269.0135066666667 L 374.58333333333 272.6724 L 389.56666666667 227.79661666666667 L 404.55 272.96030666666667 L 419.53333333333 254.15104 L 434.51666666667 270.29192666666665 L 449.5 269.69990666666666 L 464.48333333333 251.83301 L 479.46666666667 269.44965666666667 L 494.45 237.97011333333333 L 509.43333333333 261.59991 L 524.41666666667 261.07796 L 539.4 263.90364 L 554.38333333333 271.57416 L 569.36666666667 264.74162 L 584.35 270.02451666666667 L 599.33333333333 259.3714933333333 L 614.31666666667 269.6408 L 629.3 271.2514566666667 L 644.28333333333 266.37182 L 659.26666666667 271.11513 L 674.25 258.38527 L 689.23333333333 121.65963333333335 L 704.21666666667 261.55653333333333 L 719.2 225.06388666666666 L 734.18333333333 265.22543666666667 L 749.16666666667 262.68909333333335 L 764.15 274.1929666666667 L 779.13333333333 269.0640333333333 L 794.11666666667 259.51926 L 809.1 270.44684333333333 L 824.08333333333 267.11923333333334 L 839.06666666667 246.49291333333332 L 854.05 246.43333 L 869.03333333333 245.65398 L 884.01666666667 245.45902333333333 L 899 62.88901666666666 L 909 62.88901666666666" stroke-linejoin="round" visibility="hidden" stroke="rgba(192,192,192,0.0001)" stroke-width="22" class="highcharts-tracker"></path></g><g class="highcharts-markers highcharts-series-2 highcharts-line-series highcharts-color-undefined highcharts-tracker " transform="translate(5,41) scale(1 1)" width="270" height="462" clip-path="none" visibility="hidden"></g><g class="highcharts-series highcharts-series-3 highcharts-line-series highcharts-color-undefined " transform="translate(5,41) scale(1 1)" width="270" height="462" clip-path="url(#highcharts-10)" visibility="hidden"><path fill="none" d="M 0 47.52462 L 14.983333333333 271.71048666666667 L 29.966666666667 273.34926666666667 L 44.95 266.25074666666666 L 59.933333333333 271.69380333333334 L 74.916666666667 267.85616 L 89.9 273.27109333333334 L 104.88333333333 272.91121 L 119.86666666667 268.9019666666667 L 134.85 274.4966033333333 L 149.83333333333 251.89783666666665 L 164.81666666667 265.9566433333333 L 179.8 252.65144666666666 L 194.78333333333 269.2547 L 209.76666666667 170.99367999999998 L 224.75 271.46119 L 239.73333333333 270.83437333333336 L 254.71666666667 275.11436333333336 L 269.7 248.43104 L 284.68333333333 269.72231 L 299.66666666667 268.25131666666664 L 314.65 271.6704466666667 L 329.63333333333 217.90625999999997 L 344.61666666667 249.28618 L 359.6 272.90692 L 374.58333333333 273.99610333333334 L 389.56666666667 234.03379999999999 L 404.55 274.3578933333333 L 419.53333333333 270.98833666666667 L 434.51666666667 273.2911133333333 L 449.5 272.39879333333334 L 464.48333333333 254.47517333333334 L 479.46666666667 273.48416333333336 L 494.45 247.41431 L 509.43333333333 266.4437966666667 L 524.41666666667 264.9222766666667 L 539.4 267.77465 L 554.38333333333 274.0504433333333 L 569.36666666667 267.67788666666667 L 584.35 271.1985466666667 L 599.33333333333 263.22343666666666 L 614.31666666667 272.11565333333334 L 629.3 274.58431 L 644.28333333333 268.6307433333333 L 659.26666666667 273.66339 L 674.25 263.98658 L 689.23333333333 137.94685666666666 L 704.21666666667 268.1588433333333 L 719.2 240.83440333333334 L 734.18333333333 270.86869333333334 L 749.16666666667 270.16656333333333 L 764.15 274.85410333333334 L 779.13333333333 272.14759 L 794.11666666667 266.65114666666665 L 809.1 274.0833333333333 L 824.08333333333 273.02704 L 839.06666666667 252.29251666666667 L 854.05 255.03811666666667 L 869.03333333333 255.03668666666667 L 884.01666666667 253.11142999999998 L 899 66.81817999999998" class="highcharts-graph" stroke="#7cb3f1" stroke-width="2" stroke-linejoin="round" stroke-linecap="round"></path><path fill="none" d="M -10 47.52462 L 0 47.52462 L 14.983333333333 271.71048666666667 L 29.966666666667 273.34926666666667 L 44.95 266.25074666666666 L 59.933333333333 271.69380333333334 L 74.916666666667 267.85616 L 89.9 273.27109333333334 L 104.88333333333 272.91121 L 119.86666666667 268.9019666666667 L 134.85 274.4966033333333 L 149.83333333333 251.89783666666665 L 164.81666666667 265.9566433333333 L 179.8 252.65144666666666 L 194.78333333333 269.2547 L 209.76666666667 170.99367999999998 L 224.75 271.46119 L 239.73333333333 270.83437333333336 L 254.71666666667 275.11436333333336 L 269.7 248.43104 L 284.68333333333 269.72231 L 299.66666666667 268.25131666666664 L 314.65 271.6704466666667 L 329.63333333333 217.90625999999997 L 344.61666666667 249.28618 L 359.6 272.90692 L 374.58333333333 273.99610333333334 L 389.56666666667 234.03379999999999 L 404.55 274.3578933333333 L 419.53333333333 270.98833666666667 L 434.51666666667 273.2911133333333 L 449.5 272.39879333333334 L 464.48333333333 254.47517333333334 L 479.46666666667 273.48416333333336 L 494.45 247.41431 L 509.43333333333 266.4437966666667 L 524.41666666667 264.9222766666667 L 539.4 267.77465 L 554.38333333333 274.0504433333333 L 569.36666666667 267.67788666666667 L 584.35 271.1985466666667 L 599.33333333333 263.22343666666666 L 614.31666666667 272.11565333333334 L 629.3 274.58431 L 644.28333333333 268.6307433333333 L 659.26666666667 273.66339 L 674.25 263.98658 L 689.23333333333 137.94685666666666 L 704.21666666667 268.1588433333333 L 719.2 240.83440333333334 L 734.18333333333 270.86869333333334 L 749.16666666667 270.16656333333333 L 764.15 274.85410333333334 L 779.13333333333 272.14759 L 794.11666666667 266.65114666666665 L 809.1 274.0833333333333 L 824.08333333333 273.02704 L 839.06666666667 252.29251666666667 L 854.05 255.03811666666667 L 869.03333333333 255.03668666666667 L 884.01666666667 253.11142999999998 L 899 66.81817999999998 L 909 66.81817999999998" stroke-linejoin="round" visibility="hidden" stroke="rgba(192,192,192,0.0001)" stroke-width="22" class="highcharts-tracker"></path></g><g class="highcharts-markers highcharts-series-3 highcharts-line-series highcharts-color-undefined highcharts-tracker " transform="translate(5,41) scale(1 1)" width="270" height="462" clip-path="none" visibility="hidden"></g><g class="highcharts-series highcharts-series-0 highcharts-line-series highcharts-color-undefined " transform="translate(5,41) scale(1 1)" width="270" height="462" clip-path="url(#highcharts-9)"><path fill="none" d="M 0 45 L 7.7 45 L 15.4 45 L 23.1 45 L 30.8 45 L 38.5 45 L 46.2 45 L 53.9 45 L 61.6 45 L 69.3 45 L 77 45 L 84.7 45 L 92.4 45 L 100.1 45 L 107.8 45 L 115.5 45 L 123.2 45 L 130.9 45 L 138.6 45 L 146.3 45 L 154 45 L 161.7 45 L 169.4 45 L 177.1 45 L 184.8 45 L 192.5 45 L 200.2 45 L 207.9 45 L 215.6 45 L 223.3 45 L 231 45 L 238.7 45 L 246.4 45 L 254.1 45 L 261.8 45 L 269.5 45 L 277.2 45 L 284.9 45 L 292.6 45 L 300.3 45 L 308 45 L 315.7 45 L 323.4 45 L 331.1 45 L 338.8 45 L 346.5 45 L 354.2 45 L 361.9 45 L 369.6 45 L 377.3 45 L 385 45 L 392.7 45 L 400.4 45 L 408.1 45 L 415.8 45 L 423.5 45 L 431.2 45 L 438.9 45 L 446.6 45 L 454.3 270 L 462 270" class="highcharts-graph" stroke="#800000" stroke-width="2" stroke-linejoin="round" stroke-linecap="round"></path><path fill="none" d="M -10 45 L 0 45 L 7.7 45 L 15.4 45 L 23.1 45 L 30.8 45 L 38.5 45 L 46.2 45 L 53.9 45 L 61.6 45 L 69.3 45 L 77 45 L 84.7 45 L 92.4 45 L 100.1 45 L 107.8 45 L 115.5 45 L 123.2 45 L 130.9 45 L 138.6 45 L 146.3 45 L 154 45 L 161.7 45 L 169.4 45 L 177.1 45 L 184.8 45 L 192.5 45 L 200.2 45 L 207.9 45 L 215.6 45 L 223.3 45 L 231 45 L 238.7 45 L 246.4 45 L 254.1 45 L 261.8 45 L 269.5 45 L 277.2 45 L 284.9 45 L 292.6 45 L 300.3 45 L 308 45 L 315.7 45 L 323.4 45 L 331.1 45 L 338.8 45 L 346.5 45 L 354.2 45 L 361.9 45 L 369.6 45 L 377.3 45 L 385 45 L 392.7 45 L 400.4 45 L 408.1 45 L 415.8 45 L 423.5 45 L 431.2 45 L 438.9 45 L 446.6 45 L 454.3 270 L 462 270 L 472 270" stroke-linejoin="round" visibility="visible" stroke="rgba(192,192,192,0.0001)" stroke-width="22" class="highcharts-tracker"></path></g><g class="highcharts-markers highcharts-series-0 highcharts-line-series highcharts-color-undefined highcharts-tracker " transform="translate(5,41) scale(1 1)" width="270" height="462" clip-path="none"></g></g><text x="236" text-anchor="middle" class="highcharts-title" style="color:#2a52be;font-size:16px;font-family:&quot;Yandex Sans Text Web&quot;,&quot;Lucida Grande&quot;, &quot;Lucida Sans Unicode&quot;, Verdana, Arial, Helvetica, sans-serif;;fill:#2a52be;width:408px;" y="22"><tspan>Quantiles</tspan></text><g class="highcharts-legend" transform="translate(18,341)"><rect fill="none" class="highcharts-legend-box" rx="0" ry="0" x="0" y="0" width="435" height="44" visibility="visible"></rect><g><g><g class="highcharts-legend-item highcharts-line-series highcharts-color-undefined highcharts-series-0" transform="translate(8,3)"><path fill="none" d="M 0 11 L 16 11" class="highcharts-graph" stroke="#800000" stroke-width="2"></path><text x="21" style="color:#333;font-size:12px;font-weight:bold;cursor:pointer;fill:#333;" text-anchor="start" y="15">rps</text></g><g class="highcharts-legend-item highcharts-line-series highcharts-color-undefined highcharts-series-1 " transform="translate(67.15625,3)"><path fill="none" d="M 0 11 L 16 11" class="highcharts-graph" stroke="#303030" stroke-width="2"></path><text x="21" y="15" style="color:#333;font-size:12px;font-weight:bold;cursor:pointer;fill:#333;" text-anchor="start">avg</text></g><g class="highcharts-legend-item highcharts-line-series highcharts-color-undefined highcharts-series-2 highcharts-legend-item-hidden" transform="translate(128.5,3)"><path fill="none" d="M 0 11 L 16 11" class="highcharts-graph" stroke="#cccccc" stroke-width="2"></path><text x="21" y="15" style="color:#cccccc;font-size:12px;font-weight:bold;cursor:pointer;fill:#cccccc;" text-anchor="start">100%</text></g><g class="highcharts-legend-item highcharts-line-series highcharts-color-undefined highcharts-series-3 highcharts-legend-item-hidden" transform="translate(197.5625,3)"><path fill="none" d="M 0 11 L 16 11" class="highcharts-graph" stroke="#cccccc" stroke-width="2"></path><text x="21" y="15" style="color:#cccccc;font-size:12px;font-weight:bold;cursor:pointer;fill:#cccccc;" text-anchor="start">99%</text></g><g class="highcharts-legend-item highcharts-area-series highcharts-color-undefined highcharts-series-4" transform="translate(259.953125,3)"><text x="21" y="15" style="color:#333;font-size:12px;font-weight:bold;cursor:pointer;fill:#333;" text-anchor="start">98%</text><rect x="2" y="4" width="12" height="12" fill="#66af5f" rx="6" ry="6" class="highcharts-point"></rect></g><g class="highcharts-legend-item highcharts-area-series highcharts-color-undefined highcharts-series-5 highcharts-legend-item-hidden" transform="translate(322.34375,3)"><text x="21" y="15" style="color:#cccccc;font-size:12px;font-weight:bold;cursor:pointer;fill:#cccccc;" text-anchor="start">95%</text><rect x="2" y="4" width="12" height="12" fill="#cccccc" rx="6" ry="6" class="highcharts-point"></rect></g><g class="highcharts-legend-item highcharts-area-series highcharts-color-undefined highcharts-series-6 highcharts-legend-item-hidden" transform="translate(384.734375,3)"><text x="21" y="15" style="color:#cccccc;font-size:12px;font-weight:bold;cursor:pointer;fill:#cccccc;" text-anchor="start">90%</text><rect x="2" y="4" width="12" height="12" fill="#cccccc" rx="6" ry="6" class="highcharts-point"></rect></g><g class="highcharts-legend-item highcharts-area-series highcharts-color-undefined highcharts-series-7 highcharts-legend-item-hidden" transform="translate(8,20)"><text x="21" y="15" style="color:#cccccc;font-size:12px;font-weight:bold;cursor:pointer;fill:#cccccc;" text-anchor="start">85%</text><rect x="2" y="4" width="12" height="12" fill="#cccccc" rx="6" ry="6" class="highcharts-point"></rect></g><g class="highcharts-legend-item highcharts-area-series highcharts-color-undefined highcharts-series-8 highcharts-legend-item-hidden" transform="translate(70.390625,20)"><text x="21" y="15" style="color:#cccccc;font-size:12px;font-weight:bold;cursor:pointer;fill:#cccccc;" text-anchor="start">80%</text><rect x="2" y="4" width="12" height="12" fill="#cccccc" rx="6" ry="6" class="highcharts-point"></rect></g><g class="highcharts-legend-item highcharts-area-series highcharts-color-undefined highcharts-series-9 highcharts-legend-item-hidden" transform="translate(132.78125,20)"><text x="21" y="15" style="color:#cccccc;font-size:12px;font-weight:bold;cursor:pointer;fill:#cccccc;" text-anchor="start">75%</text><rect x="2" y="4" width="12" height="12" fill="#cccccc" rx="6" ry="6" class="highcharts-point"></rect></g><g class="highcharts-legend-item highcharts-area-series highcharts-color-undefined highcharts-series-10 highcharts-legend-item-hidden" transform="translate(195.171875,20)"><text x="21" y="15" style="color:#cccccc;font-size:12px;font-weight:bold;cursor:pointer;fill:#cccccc;" text-anchor="start">50%</text><rect x="2" y="4" width="12" height="12" fill="#cccccc" rx="6" ry="6" class="highcharts-point"></rect></g></g></g></g><g class="highcharts-axis-labels highcharts-xaxis-labels "><text x="105.10000000000001" style="color:#666666;cursor:default;font-size:11px;fill:#666666;width:144px;text-overflow:clip;" text-anchor="middle" transform="translate(0,0)" y="330" opacity="1"><tspan>15:16:00</tspan></text><text x="220.6" style="color:#666666;cursor:default;font-size:11px;fill:#666666;width:144px;text-overflow:clip;" text-anchor="middle" transform="translate(0,0)" y="330" opacity="1"><tspan>15:16:15</tspan></text><text x="336.1" style="color:#666666;cursor:default;font-size:11px;fill:#666666;width:144px;text-overflow:clip;" text-anchor="middle" transform="translate(0,0)" y="330" opacity="1"><tspan>15:16:30</tspan></text><text x="445.48046875" style="color:#666666;cursor:default;font-size:11px;fill:#666666;width:144px;text-overflow:clip;" text-anchor="middle" transform="translate(0,0)" y="330" opacity="1"><tspan>15:16:45</tspan></text></g><g class="highcharts-axis-labels highcharts-yaxis-labels "><text x="0" style="color:#666666;cursor:default;font-size:11px;fill:#666666;width:1px;text-overflow:clip;" text-anchor="end" transform="translate(0,0)" y="-9999"></text><text x="455" style="color:#666666;cursor:default;font-size:11px;fill:#666666;width:1px;text-overflow:clip;" text-anchor="end" transform="translate(0,0)" y="262" opacity="1"><tspan>50</tspan><tspan dy="14" x="455">rps</tspan><title>50 rps</title></text><text x="455" style="color:#666666;cursor:default;font-size:11px;fill:#666666;width:1px;text-overflow:clip;" text-anchor="end" transform="translate(0,0)" y="217" opacity="1"><tspan>100</tspan><tspan dy="14" x="455">rps</tspan><title>100 rps</title></text><text x="455" style="color:#666666;cursor:default;font-size:11px;fill:#666666;width:1px;text-overflow:clip;" text-anchor="end" transform="translate(0,0)" y="172" opacity="1"><tspan>150</tspan><tspan dy="14" x="455">rps</tspan><title>150 rps</title></text><text x="455" style="color:#666666;cursor:default;font-size:11px;fill:#666666;width:1px;text-overflow:clip;" text-anchor="end" transform="translate(0,0)" y="127" opacity="1"><tspan>200</tspan><tspan dy="14" x="455">rps</tspan><title>200 rps</title></text><text x="455" style="color:#666666;cursor:default;font-size:11px;fill:#666666;width:1px;text-overflow:clip;" text-anchor="end" transform="translate(0,0)" y="82" opacity="1"><tspan>250</tspan><tspan dy="14" x="455">rps</tspan><title>250 rps</title></text><text x="0" style="color:#666666;cursor:default;font-size:11px;fill:#666666;width:1px;text-overflow:clip;" text-anchor="end" transform="translate(0,0)" y="-9999"><tspan>300</tspan><tspan dy="14" x="0">rps</tspan><title>300 rps</title></text></g><g class="highcharts-axis-labels highcharts-yaxis-labels "><text x="0" style="color:#666666;cursor:default;font-size:11px;fill:#666666;width:1px;text-overflow:clip;" text-anchor="start" transform="translate(0,0)" y="-9999"></text><text x="17" style="color:#666666;cursor:default;font-size:11px;fill:#666666;width:1px;text-overflow:clip;" text-anchor="start" transform="translate(0,0)" y="262" opacity="1"><tspan>100</tspan><tspan dy="14" x="17">ms</tspan><title>100 ms</title></text><text x="17" style="color:#666666;cursor:default;font-size:11px;fill:#666666;width:1px;text-overflow:clip;" text-anchor="start" transform="translate(0,0)" y="217" opacity="1"><tspan>200</tspan><tspan dy="14" x="17">ms</tspan><title>200 ms</title></text><text x="17" style="color:#666666;cursor:default;font-size:11px;fill:#666666;width:1px;text-overflow:clip;" text-anchor="start" transform="translate(0,0)" y="172" opacity="1"><tspan>300</tspan><tspan dy="14" x="17">ms</tspan><title>300 ms</title></text><text x="17" style="color:#666666;cursor:default;font-size:11px;fill:#666666;width:1px;text-overflow:clip;" text-anchor="start" transform="translate(0,0)" y="127" opacity="1"><tspan>400</tspan><tspan dy="14" x="17">ms</tspan><title>400 ms</title></text><text x="17" style="color:#666666;cursor:default;font-size:11px;fill:#666666;width:1px;text-overflow:clip;" text-anchor="start" transform="translate(0,0)" y="82" opacity="1"><tspan>500</tspan><tspan dy="14" x="17">ms</tspan><title>500 ms</title></text><text x="0" style="color:#666666;cursor:default;font-size:11px;fill:#666666;width:1px;text-overflow:clip;" text-anchor="start" transform="translate(0,0)" y="-9999"><tspan>600</tspan><tspan dy="14" x="0">ms</tspan><title>600 ms</title></text></g><text x="462" class="highcharts-credits" text-anchor="end" style="cursor:pointer;color:#999999;font-size:9px;fill:#999999;" y="395">Highcharts.com</text><g class="highcharts-label highcharts-tooltip highcharts-color-undefined" style="cursor:default;pointer-events:none;white-space:nowrap;" transform="translate(706,219)" opacity="1" visibility="hidden"><path fill="rgba(247,247,247,0.85)" class="highcharts-label-box highcharts-tooltip-box" d="M 4.5 0.5 L 103.5 0.5 C 107.5 0.5 107.5 0.5 107.5 4.5 L 107.5 76.5 C 107.5 80.5 107.5 80.5 103.5 80.5 L 4.5 80.5 C 0.5 80.5 0.5 80.5 0.5 76.5 L 0.5 4.5 C 0.5 0.5 0.5 0.5 4.5 0.5" stroke="#999" stroke-width="1"></path></g><path fill="none" class="highcharts-crosshair highcharts-crosshair-thin undefined" stroke="#BBB" stroke-width="1" visibility="hidden" d="M 828.5 41 L 828.5 327 M 828.5 41 L 828.5 327"></path></svg>