<svg xmlns="http://www.w3.org/2000/svg" xmlns:xlink="http://www.w3.org/1999/xlink" xmlns:lucid="lucid" width="2379.71" height="1229"><g transform="translate(-73.99999999999997 -20)" lucid:page-tab-id="hYY7eR6uiL1d"><path d="M0 0h2600.5v1288.36H0z" fill="#fff"/><path d="M1580 68c0-4.42 3.58-8 8-8h836.75c4.42 0 8 3.58 8 8v25.16c0 4.4-3.58 8-8 8H1588c-4.42 0-8-3.6-8-8z" stroke="#000" stroke-opacity="0" stroke-width="2" fill="#fff" fill-opacity="0"/><use xlink:href="#a" transform="matrix(1,0,0,1,1584,63.99999999999999) translate(307.3001234567901 25.782777777777778)"/><use xlink:href="#b" transform="matrix(1,0,0,1,1584,63.99999999999999) translate(394.5618518518518 25.782777777777778)"/><path d="M1755.5 99.8h505.85M1755.5 99.8h-1M2261.32 99.8h1.03" stroke="#a9afb8" stroke-width="2" fill="none"/><path d="M1580 109.16c0-4.42 3.58-8 8-8h837.7c4.43 0 8 3.58 8 8V112c0 4.42-3.57 8-8 8H1588c-4.42 0-8-3.58-8-8z" stroke="#000" stroke-opacity="0" stroke-width="2" fill="#fff" fill-opacity="0"/><use xlink:href="#c" transform="matrix(1,0,0,1,1584.0000000000005,105.15522395689881) translate(327.92507201646094 14.917037037037037)"/><use xlink:href="#d" transform="matrix(1,0,0,1,1584.0000000000005,105.15522395689881) translate(376.1933847736626 14.917037037037037)"/><use xlink:href="#e" transform="matrix(1,0,0,1,1584.0000000000005,105.15522395689881) translate(418.04575102880665 14.917037037037037)"/><use xlink:href="#f" transform="matrix(1,0,0,1,1584.0000000000005,105.15522395689881) translate(430.49523662551445 14.917037037037037)"/><use xlink:href="#g" transform="matrix(1,0,0,1,1584.0000000000005,105.15522395689881) translate(465.20933127572016 14.917037037037037)"/><use xlink:href="#h" transform="matrix(1,0,0,1,1584.0000000000005,105.15522395689881) translate(490.70315843621404 14.917037037037037)"/><path d="M1460.5 266c0-3.3 2.7-6 6-6h328c3.3 0 6 2.7 6 6v213c0 3.3-2.7 6-6 6h-328c-3.3 0-6-2.7-6-6z" fill="#fff"/><path d="M1460.5 266c0-3.3 2.7-6 6-6h328c3.3 0 6 2.7 6 6v213c0 3.3-2.7 6-6 6h-328c-3.3 0-6-2.7-6-6zM1460.5 300h340M1520.5 300v185M1681.77 300v185" stroke="#3a414a" fill="none"/><use xlink:href="#i" transform="matrix(1,0,0,1,1470.4999999999998,260) translate(131.0493827160494 24.444444444444443)"/><use xlink:href="#j" transform="matrix(1,0,0,1,1465.4999999999998,302.5) translate(10.185185185185187 20.444444444444443)"/><use xlink:href="#k" transform="matrix(1,0,0,1,1525.4999999999998,302.5) translate(0 20.444444444444443)"/><use xlink:href="#l" transform="matrix(1,0,0,1,1686.7745098039213,302.5) translate(0 20.444444444444443)"/><use xlink:href="#m" transform="matrix(1,0,0,1,1525.4999999999998,339.5) translate(0 20.444444444444443)"/><use xlink:href="#n" transform="matrix(1,0,0,1,1686.7745098039213,339.5) translate(0 20.444444444444443)"/><use xlink:href="#o" transform="matrix(1,0,0,1,1525.4999999999998,376.5) translate(0 20.444444444444443)"/><use xlink:href="#n" transform="matrix(1,0,0,1,1686.7745098039213,376.5) translate(0 20.444444444444443)"/><use xlink:href="#p" transform="matrix(1,0,0,1,1525.4999999999998,413.5) translate(0 20.444444444444443)"/><use xlink:href="#n" transform="matrix(1,0,0,1,1686.7745098039213,413.5) translate(0 20.444444444444443)"/><use xlink:href="#q" transform="matrix(1,0,0,1,1525.4999999999998,450.5) translate(0 20.444444444444443)"/><use xlink:href="#r" transform="matrix(1,0,0,1,1686.7745098039213,450.5) translate(0 20.444444444444443)"/><path d="M1680.5 966c0-3.3 2.7-6 6-6h328c3.3 0 6 2.7 6 6v102c0 3.3-2.7 6-6 6h-328c-3.3 0-6-2.7-6-6z" fill="#fff"/><path d="M1680.5 966c0-3.3 2.7-6 6-6h328c3.3 0 6 2.7 6 6v102c0 3.3-2.7 6-6 6h-328c-3.3 0-6-2.7-6-6zM1680.5 1000h340M1740.5 1000v74M1901.77 1000v74" stroke="#3a414a" fill="none"/><use xlink:href="#s" transform="matrix(1,0,0,1,1690.5,960) translate(134.16666666666666 24.444444444444443)"/><use xlink:href="#j" transform="matrix(1,0,0,1,1685.5,1002.5) translate(10.185185185185187 20.444444444444443)"/><use xlink:href="#m" transform="matrix(1,0,0,1,1745.5,1002.5) translate(0 20.444444444444443)"/><use xlink:href="#t" transform="matrix(1,0,0,1,1906.7745098039218,1002.5) translate(0 20.444444444444443)"/><use xlink:href="#u" transform="matrix(1,0,0,1,1685.5,1039.5) translate(10.833333333333336 20.444444444444443)"/><use xlink:href="#v" transform="matrix(1,0,0,1,1745.5,1039.5) translate(0 20.444444444444443)"/><use xlink:href="#t" transform="matrix(1,0,0,1,1906.7745098039218,1039.5) translate(0 20.444444444444443)"/><path d="M880.5 1121c0-3.32 2.7-6 6-6h328c3.3 0 6 2.68 6 6v102c0 3.3-2.7 6-6 6h-328c-3.3 0-6-2.7-6-6z" fill="#fff"/><path d="M880.5 1121c0-3.32 2.7-6 6-6h328c3.3 0 6 2.68 6 6v102c0 3.3-2.7 6-6 6h-328c-3.3 0-6-2.7-6-6zM880.5 1155h340M940.5 1155v74M1101.77 1155v74" stroke="#3a414a" fill="none"/><use xlink:href="#w" transform="matrix(1,0,0,1,890.5,1114.9951760280705) translate(133.5493827160494 24.444444444444443)"/><use xlink:href="#j" transform="matrix(1,0,0,1,885.5,1157.4951760280705) translate(10.185185185185187 20.444444444444443)"/><use xlink:href="#m" transform="matrix(1,0,0,1,945.5,1157.4951760280705) translate(0 20.444444444444443)"/><use xlink:href="#t" transform="matrix(1,0,0,1,1106.7745098039218,1157.4951760280705) translate(0 20.444444444444443)"/><use xlink:href="#x" transform="matrix(1,0,0,1,945.5,1194.4951760280705) translate(0 20.444444444444443)"/><use xlink:href="#y" transform="matrix(1,0,0,1,1106.7745098039218,1194.4951760280705) translate(0 20.444444444444443)"/><path d="M1880.5 653.5c0-3.3 2.7-6 6-6h288c3.3 0 6 2.7 6 6v139c0 3.3-2.7 6-6 6h-288c-3.3 0-6-2.7-6-6z" fill="#fff"/><path d="M1880.5 653.5c0-3.3 2.7-6 6-6h288c3.3 0 6 2.7 6 6v139c0 3.3-2.7 6-6 6h-288c-3.3 0-6-2.7-6-6zM1880.5 687.5h300M1940.5 687.5v111M2053.7 687.5v111" stroke="#3a414a" fill="none"/><use xlink:href="#z" transform="matrix(1,0,0,1,1890.5,647.4990424361727) translate(79.04320987654322 24.444444444444443)"/><use xlink:href="#j" transform="matrix(1,0,0,1,1885.5,689.9990424361727) translate(10.185185185185187 20.444444444444443)"/><use xlink:href="#k" transform="matrix(1,0,0,1,1945.5,689.9990424361727) translate(0 20.444444444444443)"/><use xlink:href="#l" transform="matrix(1,0,0,1,2058.6960784313724,689.9990424361727) translate(0 20.444444444444443)"/><use xlink:href="#u" transform="matrix(1,0,0,1,1885.5,726.9990424361727) translate(10.833333333333336 20.444444444444443)"/><use xlink:href="#A" transform="matrix(1,0,0,1,1945.5,726.9990424361727) translate(0 20.444444444444443)"/><use xlink:href="#B" transform="matrix(1,0,0,1,2058.6960784313724,726.9990424361727) translate(0 20.444444444444443)"/><use xlink:href="#u" transform="matrix(1,0,0,1,1885.5,763.9990424361727) translate(10.833333333333336 20.444444444444443)"/><use xlink:href="#C" transform="matrix(1,0,0,1,1945.5,763.9990424361727) translate(0 20.444444444444443)"/><use xlink:href="#D" transform="matrix(1,0,0,1,2058.6960784313724,763.9990424361727) translate(0 20.444444444444443)"/><path d="M1440 318.5h-14c-3.3 0-6 2.7-6 6v408c0 3.3 2.7 6 6 6h434.6" stroke="#3a414a" fill="none"/><path d="M1440 308.5v20M1460 318.5h-20" stroke="#3a414a" fill="#fff"/><path d="M1879.78 748.5l-20-10 20-10" stroke="#3a414a" fill="#fff" fill-opacity="0"/><path d="M1879.78 738.5h-20" stroke="#3a414a" fill="#fff"/><path d="M860 1173.5h-14c-3.3 0-6-2.7-6-6v-106c0-3.3 2.7-6 6-6h814.6" stroke="#3a414a" fill="none"/><path d="M860 1163.5v20M880 1173.5h-20" stroke="#3a414a" fill="#fff"/><path d="M1679.78 1065.5l-20-10 20-10" stroke="#3a414a" fill="#fff" fill-opacity="0"/><path d="M1679.78 1055.5h-20" stroke="#3a414a" fill="#fff"/><path d="M1120.5 46c0-3.3 2.7-6 6-6h288c3.3 0 6 2.7 6 6v213c0 3.3-2.7 6-6 6h-288c-3.3 0-6-2.7-6-6z" fill="#fff"/><path d="M1120.5 46c0-3.3 2.7-6 6-6h288c3.3 0 6 2.7 6 6v213c0 3.3-2.7 6-6 6h-288c-3.3 0-6-2.7-6-6zM1120.5 80h300M1180.5 80v185M1293.7 80v185" stroke="#3a414a" fill="none"/><use xlink:href="#E" transform="matrix(1,0,0,1,1130.5,40) translate(110 24.444444444444443)"/><use xlink:href="#j" transform="matrix(1,0,0,1,1125.5,82.5) translate(10.185185185185187 20.444444444444443)"/><use xlink:href="#k" transform="matrix(1,0,0,1,1185.5,82.5) translate(0 20.444444444444443)"/><use xlink:href="#l" transform="matrix(1,0,0,1,1298.6960784313726,82.5) translate(0 20.444444444444443)"/><use xlink:href="#u" transform="matrix(1,0,0,1,1125.5,119.5) translate(10.833333333333336 20.444444444444443)"/><use xlink:href="#C" transform="matrix(1,0,0,1,1185.5,119.5) translate(0 20.444444444444443)"/><use xlink:href="#D" transform="matrix(1,0,0,1,1298.6960784313726,119.5) translate(0 20.444444444444443)"/><use xlink:href="#F" transform="matrix(1,0,0,1,1185.5,156.5) translate(0 20.444444444444443)"/><use xlink:href="#r" transform="matrix(1,0,0,1,1298.6960784313726,156.5) translate(0 20.444444444444443)"/><use xlink:href="#u" transform="matrix(1,0,0,1,1125.5,193.5) translate(10.833333333333336 20.444444444444443)"/><use xlink:href="#G" transform="matrix(1,0,0,1,1185.5,193.5) translate(0 20.444444444444443)"/><use xlink:href="#B" transform="matrix(1,0,0,1,1298.6960784313726,193.5) translate(0 20.444444444444443)"/><use xlink:href="#u" transform="matrix(1,0,0,1,1125.5,230.5) translate(10.833333333333336 20.444444444444443)"/><use xlink:href="#H" transform="matrix(1,0,0,1,1185.5,230.5) translate(0 20.444444444444443)"/><use xlink:href="#B" transform="matrix(1,0,0,1,1298.6960784313726,230.5) translate(0 20.444444444444443)"/><path d="M1440 318.34h-354c-3.3 0-6-2.7-6-6V215.5c0-3.3 2.7-6 6-6h14.6" stroke="#3a414a" fill="none"/><path d="M1440 308.34v20M1460 318.34h-20" stroke="#3a414a" fill="#fff"/><path d="M1119.78 219.5l-20-10 20-10" stroke="#3a414a" fill="#fff" fill-opacity="0"/><path d="M1119.78 209.5h-20" stroke="#3a414a" fill="#fff"/><path d="M1440 318.34h-354c-3.3 0-6-2.7-6-6V141.5c0-3.3 2.7-6 6-6h14.6" stroke="#3a414a" fill="none"/><path d="M1440 308.34v20M1460 318.34h-20" stroke="#3a414a" fill="#fff"/><path d="M1119.78 145.5l-20-10 20-10" stroke="#3a414a" fill="#fff" fill-opacity="0"/><path d="M1119.78 135.5h-20" stroke="#3a414a" fill="#fff"/><path d="M1040.5 436.63c0-3.32 2.7-6 6-6h328c3.3 0 6 2.68 6 6v324c0 3.3-2.7 6-6 6h-328c-3.3 0-6-2.7-6-6z" fill="#fff"/><path d="M1040.5 436.63c0-3.32 2.7-6 6-6h328c3.3 0 6 2.68 6 6v324c0 3.3-2.7 6-6 6h-328c-3.3 0-6-2.7-6-6zM1040.5 470.63h340M1100.5 470.63v296M1261.77 470.63v296" stroke="#3a414a" fill="none"/><use xlink:href="#I" transform="matrix(1,0,0,1,1050.5,430.625) translate(132.2530864197531 24.444444444444443)"/><use xlink:href="#j" transform="matrix(1,0,0,1,1045.5,473.125) translate(10.185185185185187 20.444444444444443)"/><use xlink:href="#k" transform="matrix(1,0,0,1,1105.5,473.125) translate(0 20.444444444444443)"/><use xlink:href="#l" transform="matrix(1,0,0,1,1266.7745098039218,473.125) translate(0 20.444444444444443)"/><use xlink:href="#m" transform="matrix(1,0,0,1,1105.5,510.125) translate(0 20.444444444444443)"/><use xlink:href="#n" transform="matrix(1,0,0,1,1266.7745098039218,510.125) translate(0 20.444444444444443)"/><use xlink:href="#o" transform="matrix(1,0,0,1,1105.5,547.125) translate(0 20.444444444444443)"/><use xlink:href="#n" transform="matrix(1,0,0,1,1266.7745098039218,547.125) translate(0 20.444444444444443)"/><use xlink:href="#p" transform="matrix(1,0,0,1,1105.5,584.125) translate(0 20.444444444444443)"/><use xlink:href="#n" transform="matrix(1,0,0,1,1266.7745098039218,584.125) translate(0 20.444444444444443)"/><use xlink:href="#J" transform="matrix(1,0,0,1,1105.5,621.125) translate(0 20.444444444444443)"/><use xlink:href="#r" transform="matrix(1,0,0,1,1266.7745098039218,621.125) translate(0 20.444444444444443)"/><use xlink:href="#K" transform="matrix(1,0,0,1,1105.5,658.125) translate(0 20.444444444444443)"/><use xlink:href="#L" transform="matrix(1,0,0,1,1266.7745098039218,658.125) translate(0 20.444444444444443)"/><use xlink:href="#u" transform="matrix(1,0,0,1,1045.5,695.125) translate(10.833333333333336 20.444444444444443)"/><use xlink:href="#G" transform="matrix(1,0,0,1,1105.5,695.125) translate(0 20.444444444444443)"/><use xlink:href="#B" transform="matrix(1,0,0,1,1266.7745098039218,695.125) translate(0 20.444444444444443)"/><use xlink:href="#u" transform="matrix(1,0,0,1,1045.5,732.125) translate(10.833333333333336 20.444444444444443)"/><use xlink:href="#H" transform="matrix(1,0,0,1,1105.5,732.125) translate(0 20.444444444444443)"/><use xlink:href="#B" transform="matrix(1,0,0,1,1266.7745098039218,732.125) translate(0 20.444444444444443)"/><path d="M580.5 681.13c0-3.32 2.7-6 6-6h328c3.3 0 6 2.68 6 6v250c0 3.3-2.7 6-6 6h-328c-3.3 0-6-2.7-6-6z" fill="#fff"/><path d="M580.5 681.13c0-3.32 2.7-6 6-6h328c3.3 0 6 2.68 6 6v250c0 3.3-2.7 6-6 6h-328c-3.3 0-6-2.7-6-6zM580.5 715.13h340M640.5 715.13v222M801.77 715.13v222" stroke="#3a414a" fill="none"/><use xlink:href="#M" transform="matrix(1,0,0,1,590.5,675.1250090381982) translate(137.19135802469137 24.444444444444443)"/><use xlink:href="#j" transform="matrix(1,0,0,1,585.5,717.6250090381982) translate(10.185185185185187 20.444444444444443)"/><use xlink:href="#k" transform="matrix(1,0,0,1,645.5,717.6250090381982) translate(0 20.444444444444443)"/><use xlink:href="#l" transform="matrix(1,0,0,1,806.7745098039217,717.6250090381982) translate(0 20.444444444444443)"/><use xlink:href="#m" transform="matrix(1,0,0,1,645.5,754.6250090381982) translate(0 20.444444444444443)"/><use xlink:href="#t" transform="matrix(1,0,0,1,806.7745098039217,754.6250090381982) translate(0 20.444444444444443)"/><use xlink:href="#N" transform="matrix(1,0,0,1,645.5,791.6250090381982) translate(0 20.444444444444443)"/><use xlink:href="#n" transform="matrix(1,0,0,1,806.7745098039217,791.6250090381982) translate(0 20.444444444444443)"/><use xlink:href="#O" transform="matrix(1,0,0,1,645.5,828.6250090381982) translate(0 20.444444444444443)"/><use xlink:href="#P" transform="matrix(1,0,0,1,806.7745098039217,828.6250090381982) translate(0 19.84)"/><use xlink:href="#u" transform="matrix(1,0,0,1,585.5,865.6250090381982) translate(10.833333333333336 20.444444444444443)"/><use xlink:href="#F" transform="matrix(1,0,0,1,645.5,865.6250090381982) translate(0 20.444444444444443)"/><use xlink:href="#n" transform="matrix(1,0,0,1,806.7745098039217,865.6250090381982) translate(0 20.444444444444443)"/><use xlink:href="#u" transform="matrix(1,0,0,1,585.5,902.6250090381982) translate(10.833333333333336 20.444444444444443)"/><use xlink:href="#Q" transform="matrix(1,0,0,1,645.5,902.6250090381982) translate(0 20.444444444444443)"/><use xlink:href="#B" transform="matrix(1,0,0,1,806.7745098039217,902.6250090381982) translate(0 20.444444444444443)"/><path d="M1440 318.34h-434c-3.3 0-6 2.7-6 6v417.8c0 3.3 2.7 6 6 6h14.6" stroke="#3a414a" fill="none"/><path d="M1440 308.34v20M1460 318.34h-20" stroke="#3a414a" fill="#fff"/><path d="M1039.78 758.13l-20-10 20-10" stroke="#3a414a" fill="#fff" fill-opacity="0"/><path d="M1039.78 748.13h-20" stroke="#3a414a" fill="#fff"/><path d="M1020 711.13h-14c-3.3 0-6-2.7-6-6v-380.8c0-3.3 2.7-6 6-6h434" stroke="#3a414a" fill="none"/><path d="M1020 701.13v20M1040 711.13h-20M1440 308.34v20M1460 318.34h-20" stroke="#3a414a" fill="#fff"/><path d="M120.5 649.9c0-3.3 2.7-6 6-6h328c3.3 0 6 2.7 6 6v102c0 3.32-2.7 6-6 6h-328c-3.3 0-6-2.68-6-6z" fill="#fff"/><path d="M120.5 649.9c0-3.3 2.7-6 6-6h328c3.3 0 6 2.7 6 6v102c0 3.32-2.7 6-6 6h-328c-3.3 0-6-2.68-6-6zM120.5 683.9h340M180.5 683.9v74M374.36 683.9v74" stroke="#3a414a" fill="none"/><use xlink:href="#R" transform="matrix(1,0,0,1,130.5,643.9074317700042) translate(128.51851851851853 24.444444444444443)"/><use xlink:href="#j" transform="matrix(1,0,0,1,125.5,686.4074317700042) translate(10.185185185185187 20.444444444444443)"/><use xlink:href="#m" transform="matrix(1,0,0,1,185.5,686.4074317700042) translate(0 20.444444444444443)"/><use xlink:href="#t" transform="matrix(1,0,0,1,379.36273843300137,686.4074317700042) translate(0 20.444444444444443)"/><use xlink:href="#u" transform="matrix(1,0,0,1,125.5,723.4074317700042) translate(10.833333333333336 20.444444444444443)"/><use xlink:href="#v" transform="matrix(1,0,0,1,185.5,723.4074317700042) translate(0 20.444444444444443)"/><use xlink:href="#D" transform="matrix(1,0,0,1,379.36273843300137,723.4074317700042) translate(0 20.444444444444443)"/><path d="M100 702.4H86c-3.3 0-6 2.7-6 6v167.23c0 3.3 2.7 6 6 6h474.6" stroke="#3a414a" fill="none"/><path d="M100 692.4v20M120 702.4h-20" stroke="#3a414a" fill="#fff"/><path d="M579.78 891.63l-20-10 20-10" stroke="#3a414a" fill="#fff" fill-opacity="0"/><path d="M579.78 881.63h-20" stroke="#3a414a" fill="#fff"/><path d="M1020 489.13H546c-3.3 0-6 2.68-6 6v417.83c0 3.3 2.7 6 6 6h14.6" stroke="#3a414a" fill="none"/><path d="M1020 479.13v20M1040 489.13h-20" stroke="#3a414a" fill="#fff"/><path d="M579.78 928.96l-20-10 20-10" stroke="#3a414a" fill="#fff" fill-opacity="0"/><path d="M579.78 918.96h-20" stroke="#3a414a" fill="#fff"/><path d="M860 1173.5H86c-3.3 0-6-2.7-6-6V745.4c0-3.3 2.7-6 6-6h14.6" stroke="#3a414a" fill="none"/><path d="M860 1163.5v20M880 1173.5h-20" stroke="#3a414a" fill="#fff"/><path d="M119.78 749.4l-20-10 20-10" stroke="#3a414a" fill="#fff" fill-opacity="0"/><path d="M119.78 739.4h-20" stroke="#3a414a" fill="#fff"/><path d="M1440 318.34h-354c-3.3 0-6-2.7-6-6V252.8c0-3.3 2.7-6 6-6h14.6" stroke="#3a414a" fill="none"/><path d="M1440 308.34v20M1460 318.34h-20" stroke="#3a414a" fill="#fff"/><path d="M1119.78 256.8l-20-10 20-10" stroke="#3a414a" fill="#fff" fill-opacity="0"/><path d="M1119.78 246.8h-20" stroke="#3a414a" fill="#fff"/><path d="M1860.6 780.2H1646c-3.3 0-6 2.68-6 6v226.3c0 3.32 2.7 6 6 6h14" stroke="#3a414a" fill="none"/><path d="M1879.78 790.2l-20-10 20-10" stroke="#3a414a" fill="#fff" fill-opacity="0"/><path d="M1879.78 780.2h-20M1660 1008.5v20M1680 1018.5h-20" stroke="#3a414a" fill="#fff"/><defs><path fill="#a9afb8" d="M67-125c0 54 23 88 75 88 28 0 53-7 68-21v-34h-60v-39h108v91C232-14 192 4 140 4 58 4 20-42 15-125 8-236 126-280 215-234c19 10 29 26 37 47l-47 15c-11-23-29-39-63-39-53 1-75 33-75 86" id="S"/><path fill="#a9afb8" d="M185-48c-13 30-37 53-82 52C43 2 14-33 14-96s30-98 90-98c62 0 83 45 84 108H66c0 31 8 55 39 56 18 0 30-7 34-22zm-45-69c5-46-57-63-70-21-2 6-4 13-4 21h74" id="T"/><path fill="#a9afb8" d="M115-3C79 11 28 4 28-45v-112H4v-33h27l15-45h31v45h36v33H77v99c-1 23 16 31 38 25v30" id="U"/><path fill="#a9afb8" d="M230 0l2-204L168 0h-37L68-204 70 0H24v-248h70l56 185 57-185h69V0h-46" id="V"/><g id="a"><use transform="matrix(0.0728395061728395,0,0,0.0728395061728395,0,0)" xlink:href="#S"/><use transform="matrix(0.0728395061728395,0,0,0.0728395061728395,20.39506172839506,0)" xlink:href="#T"/><use transform="matrix(0.0728395061728395,0,0,0.0728395061728395,34.96296296296296,0)" xlink:href="#U"/><use transform="matrix(0.0728395061728395,0,0,0.0728395061728395,43.63086419753086,0)" xlink:href="#V"/><use transform="matrix(0.0728395061728395,0,0,0.0728395061728395,65.40987654320988,0)" xlink:href="#T"/></g><path fill="#a9afb8" d="M24 0v-248h195v40H76v63h132v40H76v65h150V0H24" id="W"/><path fill="#a9afb8" d="M240-174c0 40-23 61-54 70L253 0h-59l-57-94H76V0H24v-248c93 4 217-23 216 74zM76-134c48-2 112 12 112-38 0-48-66-32-112-35v73" id="X"/><path fill="#a9afb8" d="M14-72v-43h91v43H14" id="Y"/><path fill="#a9afb8" d="M24-248c120-7 223 5 221 122C244-46 201 0 124 0H24v-248zM76-40c74 7 117-18 117-86 0-67-45-88-117-82v168" id="Z"/><path fill="#a9afb8" d="M25-224v-37h50v37H25zM25 0v-190h50V0H25" id="aa"/><path fill="#a9afb8" d="M133-34C117-15 103 5 69 4 32 3 11-16 11-54c-1-60 55-63 116-61 1-26-3-47-28-47-18 1-26 9-28 27l-52-2c7-38 36-58 82-57s74 22 75 68l1 82c-1 14 12 18 25 15v27c-30 8-71 5-69-32zm-48 3c29 0 43-24 42-57-32 0-66-3-65 30 0 17 8 27 23 27" id="ab"/><path fill="#a9afb8" d="M195-6C206 82 75 100 31 46c-4-6-6-13-8-21l49-6c3 16 16 24 34 25 40 0 42-37 40-79-11 22-30 35-61 35-53 0-70-43-70-97 0-56 18-96 73-97 30 0 46 14 59 34l2-30h47zm-90-29c32 0 41-27 41-63 0-35-9-62-40-62-32 0-39 29-40 63 0 36 9 62 39 62" id="ac"/><path fill="#a9afb8" d="M135-150c-39-12-60 13-60 57V0H25l-1-190h47c2 13-1 29 3 40 6-28 27-53 61-41v41" id="ad"/><path fill="#a9afb8" d="M220-157c-53 9-28 100-34 157h-49v-107c1-27-5-49-29-50C55-147 81-57 75 0H25l-1-190h47c2 12-1 28 3 38 10-53 101-56 108 0 13-22 24-43 59-42 82 1 51 116 57 194h-49v-107c-1-25-5-48-29-50" id="ae"/><g id="b"><use transform="matrix(0.0728395061728395,0,0,0.0728395061728395,0,0)" xlink:href="#W"/><use transform="matrix(0.0728395061728395,0,0,0.0728395061728395,17.48148148148148,0)" xlink:href="#X"/><use transform="matrix(0.0728395061728395,0,0,0.0728395061728395,36.34691358024691,0)" xlink:href="#Y"/><use transform="matrix(0.0728395061728395,0,0,0.0728395061728395,45.01481481481481,0)" xlink:href="#Z"/><use transform="matrix(0.0728395061728395,0,0,0.0728395061728395,63.880246913580244,0)" xlink:href="#aa"/><use transform="matrix(0.0728395061728395,0,0,0.0728395061728395,71.1641975308642,0)" xlink:href="#ab"/><use transform="matrix(0.0728395061728395,0,0,0.0728395061728395,85.7320987654321,0)" xlink:href="#ac"/><use transform="matrix(0.0728395061728395,0,0,0.0728395061728395,101.68395061728395,0)" xlink:href="#ad"/><use transform="matrix(0.0728395061728395,0,0,0.0728395061728395,111.88148148148147,0)" xlink:href="#ab"/><use transform="matrix(0.0728395061728395,0,0,0.0728395061728395,126.44938271604939,0)" xlink:href="#ae"/></g><path fill="#a9afb8" d="M30-248c118-7 216 8 213 122C240-48 200 0 122 0H30v-248zM63-27c89 8 146-16 146-99s-60-101-146-95v194" id="af"/><path fill="#a9afb8" d="M210-169c-67 3-38 105-44 169h-31v-121c0-29-5-50-35-48C34-165 62-65 56 0H25l-1-190h30c1 10-1 24 2 32 10-44 99-50 107 0 11-21 27-35 58-36 85-2 47 119 55 194h-31v-121c0-29-5-49-35-48" id="ag"/><path fill="#a9afb8" d="M24-231v-30h32v30H24zM24 0v-190h32V0H24" id="ah"/><path fill="#a9afb8" d="M59-47c-2 24 18 29 38 22v24C64 9 27 4 27-40v-127H5v-23h24l9-43h21v43h35v23H59v120" id="ai"/><path fill="#a9afb8" d="M114-163C36-179 61-72 57 0H25l-1-190h30c1 12-1 29 2 39 6-27 23-49 58-41v29" id="aj"/><path fill="#a9afb8" d="M179-190L93 31C79 59 56 82 12 73V49c39 6 53-20 64-50L1-190h34L92-34l54-156h33" id="ak"/><g id="c"><use transform="matrix(0.04248971193415638,0,0,0.04248971193415638,0,0)" xlink:href="#af"/><use transform="matrix(0.04248971193415638,0,0,0.04248971193415638,11.004835390946502,0)" xlink:href="#ag"/><use transform="matrix(0.04248971193415638,0,0,0.04248971193415638,23.70925925925926,0)" xlink:href="#ah"/><use transform="matrix(0.04248971193415638,0,0,0.04248971193415638,27.065946502057614,0)" xlink:href="#ai"/><use transform="matrix(0.04248971193415638,0,0,0.04248971193415638,31.314917695473248,0)" xlink:href="#aj"/><use transform="matrix(0.04248971193415638,0,0,0.04248971193415638,36.37119341563786,0)" xlink:href="#ak"/></g><path fill="#a9afb8" d="M266 0h-40l-56-210L115 0H75L2-248h35L96-30l15-64 43-154h32l59 218 59-218h35" id="al"/><path fill="#a9afb8" d="M141-36C126-15 110 5 73 4 37 3 15-17 15-53c-1-64 63-63 125-63 3-35-9-54-41-54-24 1-41 7-42 31l-33-3c5-37 33-52 76-52 45 0 72 20 72 64v82c-1 20 7 32 28 27v20c-31 9-61-2-59-35zM48-53c0 20 12 33 32 33 41-3 63-29 60-74-43 2-92-5-92 41" id="am"/><path fill="#a9afb8" d="M24 0v-261h32V0H24" id="an"/><path fill="#a9afb8" d="M143 0L79-87 56-68V0H24v-261h32v163l83-92h37l-77 82L181 0h-38" id="ao"/><g id="d"><use transform="matrix(0.04248971193415638,0,0,0.04248971193415638,0,0)" xlink:href="#al"/><use transform="matrix(0.04248971193415638,0,0,0.04248971193415638,13.85164609053498,0)" xlink:href="#am"/><use transform="matrix(0.04248971193415638,0,0,0.04248971193415638,22.349588477366254,0)" xlink:href="#an"/><use transform="matrix(0.04248971193415638,0,0,0.04248971193415638,25.70627572016461,0)" xlink:href="#ao"/></g><path fill="#a9afb8" d="M32 76v-337h29V76H32" id="ap"/><use transform="matrix(0.04248971193415638,0,0,0.04248971193415638,0,0)" xlink:href="#ap" id="e"/><path fill="#a9afb8" d="M205 0l-28-72H64L36 0H1l101-248h38L239 0h-34zm-38-99l-47-123c-12 45-31 82-46 123h93" id="aq"/><path fill="#a9afb8" d="M115-194c55 1 70 41 70 98S169 2 115 4C84 4 66-9 55-30l1 105H24l-1-265h31l2 30c10-21 28-34 59-34zm-8 174c40 0 45-34 45-75s-6-73-45-74c-42 0-51 32-51 76 0 43 10 73 51 73" id="ar"/><g id="f"><use transform="matrix(0.04248971193415638,0,0,0.04248971193415638,0,0)" xlink:href="#aq"/><use transform="matrix(0.04248971193415638,0,0,0.04248971193415638,10.19753086419753,0)" xlink:href="#ar"/><use transform="matrix(0.04248971193415638,0,0,0.04248971193415638,18.695473251028805,0)" xlink:href="#aj"/><use transform="matrix(0.04248971193415638,0,0,0.04248971193415638,23.751748971193415,0)" xlink:href="#ah"/><use transform="matrix(0.04248971193415638,0,0,0.04248971193415638,27.10843621399177,0)" xlink:href="#an"/></g><path fill="#a9afb8" d="M27 0v-27h64v-190l-56 39v-29l58-41h29v221h61V0H27" id="as"/><path fill="#a9afb8" d="M155-56V0h-30v-56H8v-25l114-167h33v167h35v25h-35zm-30-156c-27 46-58 90-88 131h88v-131" id="at"/><path fill="#a9afb8" d="M68-38c1 34 0 65-14 84H32c9-13 17-26 17-46H33v-38h35" id="au"/><g id="g"><use transform="matrix(0.04248971193415638,0,0,0.04248971193415638,0,0)" xlink:href="#as"/><use transform="matrix(0.04248971193415638,0,0,0.04248971193415638,8.497942386831275,0)" xlink:href="#at"/><use transform="matrix(0.04248971193415638,0,0,0.04248971193415638,16.99588477366255,0)" xlink:href="#au"/></g><path fill="#a9afb8" d="M101-251c82-7 93 87 43 132L82-64C71-53 59-42 53-27h129V0H18c2-99 128-94 128-182 0-28-16-43-45-43s-46 15-49 41l-32-3c6-41 34-60 81-64" id="av"/><path fill="#a9afb8" d="M101-251c68 0 85 55 85 127S166 4 100 4C33 4 14-52 14-124c0-73 17-127 87-127zm-1 229c47 0 54-49 54-102s-4-102-53-102c-51 0-55 48-55 102 0 53 5 102 54 102" id="aw"/><g id="h"><use transform="matrix(0.04248971193415638,0,0,0.04248971193415638,0,0)" xlink:href="#av"/><use transform="matrix(0.04248971193415638,0,0,0.04248971193415638,8.497942386831275,0)" xlink:href="#aw"/><use transform="matrix(0.04248971193415638,0,0,0.04248971193415638,16.99588477366255,0)" xlink:href="#av"/><use transform="matrix(0.04248971193415638,0,0,0.04248971193415638,25.493827160493822,0)" xlink:href="#av"/></g><path fill="#3a414a" d="M232-93c-1 65-40 97-104 97C67 4 28-28 28-90v-158h33c8 89-33 224 67 224 102 0 64-133 71-224h33v155" id="ax"/><path fill="#3a414a" d="M135-143c-3-34-86-38-87 0 15 53 115 12 119 90S17 21 10-45l28-5c4 36 97 45 98 0-10-56-113-15-118-90-4-57 82-63 122-42 12 7 21 19 24 35" id="ay"/><path fill="#3a414a" d="M100-194c63 0 86 42 84 106H49c0 40 14 67 53 68 26 1 43-12 49-29l28 8c-11 28-37 45-77 45C44 4 14-33 15-96c1-61 26-98 85-98zm52 81c6-60-76-77-97-28-3 7-6 17-6 28h103" id="az"/><path fill="#3a414a" d="M114-163C36-179 61-72 57 0H25l-1-190h30c1 12-1 29 2 39 6-27 23-49 58-41v29" id="aA"/><g id="i"><use transform="matrix(0.06172839506172839,0,0,0.06172839506172839,0,0)" xlink:href="#ax"/><use transform="matrix(0.06172839506172839,0,0,0.06172839506172839,15.987654320987653,0)" xlink:href="#ay"/><use transform="matrix(0.06172839506172839,0,0,0.06172839506172839,27.098765432098766,0)" xlink:href="#az"/><use transform="matrix(0.06172839506172839,0,0,0.06172839506172839,39.44444444444444,0)" xlink:href="#aA"/><use transform="matrix(0.06172839506172839,0,0,0.06172839506172839,46.79012345679012,0)" xlink:href="#ay"/></g><path fill="#3a414a" d="M30-248c87 1 191-15 191 75 0 78-77 80-158 76V0H30v-248zm33 125c57 0 124 11 124-50 0-59-68-47-124-48v98" id="aB"/><path fill="#3a414a" d="M194 0L95-120 63-95V0H30v-248h33v124l119-124h40L117-140 236 0h-42" id="aC"/><g id="j"><use transform="matrix(0.06172839506172839,0,0,0.06172839506172839,0,0)" xlink:href="#aB"/><use transform="matrix(0.06172839506172839,0,0,0.06172839506172839,14.814814814814813,0)" xlink:href="#aC"/></g><path fill="#3a414a" d="M33 0v-248h34V0H33" id="aD"/><path fill="#3a414a" d="M30-248c118-7 216 8 213 122C240-48 200 0 122 0H30v-248zM63-27c89 8 146-16 146-99s-60-101-146-95v194" id="aE"/><g id="k"><use transform="matrix(0.06172839506172839,0,0,0.06172839506172839,0,0)" xlink:href="#aD"/><use transform="matrix(0.06172839506172839,0,0,0.06172839506172839,6.172839506172839,0)" xlink:href="#aE"/></g><path fill="#3a414a" d="M115-194c53 0 69 39 70 98 0 66-23 100-70 100C84 3 66-7 56-30L54 0H23l1-261h32v101c10-23 28-34 59-34zm-8 174c40 0 45-34 45-75 0-40-5-75-45-74-42 0-51 32-51 76 0 43 10 73 51 73" id="aF"/><path fill="#3a414a" d="M24-231v-30h32v30H24zM24 0v-190h32V0H24" id="aG"/><path fill="#3a414a" d="M177-190C167-65 218 103 67 71c-23-6-38-20-44-43l32-5c15 47 100 32 89-28v-30C133-14 115 1 83 1 29 1 15-40 15-95c0-56 16-97 71-98 29-1 48 16 59 35 1-10 0-23 2-32h30zM94-22c36 0 50-32 50-73 0-42-14-75-50-75-39 0-46 34-46 75s6 73 46 73" id="aH"/><path fill="#3a414a" d="M141-36C126-15 110 5 73 4 37 3 15-17 15-53c-1-64 63-63 125-63 3-35-9-54-41-54-24 1-41 7-42 31l-33-3c5-37 33-52 76-52 45 0 72 20 72 64v82c-1 20 7 32 28 27v20c-31 9-61-2-59-35zM48-53c0 20 12 33 32 33 41-3 63-29 60-74-43 2-92-5-92 41" id="aI"/><path fill="#3a414a" d="M24 0v-261h32V0H24" id="aJ"/><g id="l"><use transform="matrix(0.06172839506172839,0,0,0.06172839506172839,0,0)" xlink:href="#aF"/><use transform="matrix(0.06172839506172839,0,0,0.06172839506172839,12.345679012345679,0)" xlink:href="#aG"/><use transform="matrix(0.06172839506172839,0,0,0.06172839506172839,17.22222222222222,0)" xlink:href="#aH"/><use transform="matrix(0.06172839506172839,0,0,0.06172839506172839,29.5679012345679,0)" xlink:href="#ay"/><use transform="matrix(0.06172839506172839,0,0,0.06172839506172839,40.67901234567901,0)" xlink:href="#az"/><use transform="matrix(0.06172839506172839,0,0,0.06172839506172839,53.02469135802469,0)" xlink:href="#aA"/><use transform="matrix(0.06172839506172839,0,0,0.06172839506172839,60.37037037037037,0)" xlink:href="#aG"/><use transform="matrix(0.06172839506172839,0,0,0.06172839506172839,65.24691358024691,0)" xlink:href="#aI"/><use transform="matrix(0.06172839506172839,0,0,0.06172839506172839,77.5925925925926,0)" xlink:href="#aJ"/></g><path fill="#3a414a" d="M117-194c89-4 53 116 60 194h-32v-121c0-31-8-49-39-48C34-167 62-67 57 0H25l-1-190h30c1 10-1 24 2 32 11-22 29-35 61-36" id="aK"/><path fill="#3a414a" d="M210-169c-67 3-38 105-44 169h-31v-121c0-29-5-50-35-48C34-165 62-65 56 0H25l-1-190h30c1 10-1 24 2 32 10-44 99-50 107 0 11-21 27-35 58-36 85-2 47 119 55 194h-31v-121c0-29-5-49-35-48" id="aL"/><g id="m"><use transform="matrix(0.06172839506172839,0,0,0.06172839506172839,0,0)" xlink:href="#aK"/><use transform="matrix(0.06172839506172839,0,0,0.06172839506172839,12.345679012345679,0)" xlink:href="#aI"/><use transform="matrix(0.06172839506172839,0,0,0.06172839506172839,24.691358024691358,0)" xlink:href="#aL"/><use transform="matrix(0.06172839506172839,0,0,0.06172839506172839,43.148148148148145,0)" xlink:href="#az"/></g><path fill="#3a414a" d="M59-47c-2 24 18 29 38 22v24C64 9 27 4 27-40v-127H5v-23h24l9-43h21v43h35v23H59v120" id="aM"/><path fill="#3a414a" d="M141 0L90-78 38 0H4l68-98-65-92h35l48 74 47-74h35l-64 92 68 98h-35" id="aN"/><g id="n"><use transform="matrix(0.06172839506172839,0,0,0.06172839506172839,0,0)" xlink:href="#aM"/><use transform="matrix(0.06172839506172839,0,0,0.06172839506172839,6.172839506172839,0)" xlink:href="#az"/><use transform="matrix(0.06172839506172839,0,0,0.06172839506172839,18.51851851851852,0)" xlink:href="#aN"/><use transform="matrix(0.06172839506172839,0,0,0.06172839506172839,29.62962962962963,0)" xlink:href="#aM"/></g><path fill="#3a414a" d="M100-194c62-1 85 37 85 99 1 63-27 99-86 99S16-35 15-95c0-66 28-99 85-99zM99-20c44 1 53-31 53-75 0-43-8-75-51-75s-53 32-53 75 10 74 51 75" id="aO"/><path fill="#3a414a" d="M84 4C-5 8 30-112 23-190h32v120c0 31 7 50 39 49 72-2 45-101 50-169h31l1 190h-30c-1-10 1-25-2-33-11 22-28 36-60 37" id="aP"/><g id="o"><use transform="matrix(0.06172839506172839,0,0,0.06172839506172839,0,0)" xlink:href="#aI"/><use transform="matrix(0.06172839506172839,0,0,0.06172839506172839,12.345679012345679,0)" xlink:href="#aF"/><use transform="matrix(0.06172839506172839,0,0,0.06172839506172839,24.691358024691358,0)" xlink:href="#aO"/><use transform="matrix(0.06172839506172839,0,0,0.06172839506172839,37.03703703703704,0)" xlink:href="#aP"/><use transform="matrix(0.06172839506172839,0,0,0.06172839506172839,49.382716049382715,0)" xlink:href="#aM"/></g><path fill="#3a414a" d="M108 0H70L1-190h34L89-25l56-165h34" id="aQ"/><g id="p"><use transform="matrix(0.06172839506172839,0,0,0.06172839506172839,0,0)" xlink:href="#aI"/><use transform="matrix(0.06172839506172839,0,0,0.06172839506172839,12.345679012345679,0)" xlink:href="#aQ"/><use transform="matrix(0.06172839506172839,0,0,0.06172839506172839,23.45679012345679,0)" xlink:href="#aI"/><use transform="matrix(0.06172839506172839,0,0,0.06172839506172839,35.80246913580247,0)" xlink:href="#aM"/><use transform="matrix(0.06172839506172839,0,0,0.06172839506172839,41.97530864197531,0)" xlink:href="#aI"/><use transform="matrix(0.06172839506172839,0,0,0.06172839506172839,54.32098765432099,0)" xlink:href="#aA"/></g><path fill="#3a414a" d="M185-189c-5-48-123-54-124 2 14 75 158 14 163 119 3 78-121 87-175 55-17-10-28-26-33-46l33-7c5 56 141 63 141-1 0-78-155-14-162-118-5-82 145-84 179-34 5 7 8 16 11 25" id="aR"/><path fill="#3a414a" d="M96-169c-40 0-48 33-48 73s9 75 48 75c24 0 41-14 43-38l32 2c-6 37-31 61-74 61-59 0-76-41-82-99-10-93 101-131 147-64 4 7 5 14 7 22l-32 3c-4-21-16-35-41-35" id="aS"/><path fill="#3a414a" d="M106-169C34-169 62-67 57 0H25v-261h32l-1 103c12-21 28-36 61-36 89 0 53 116 60 194h-32v-121c2-32-8-49-39-48" id="aT"/><g id="q"><use transform="matrix(0.06172839506172839,0,0,0.06172839506172839,0,0)" xlink:href="#aG"/><use transform="matrix(0.06172839506172839,0,0,0.06172839506172839,4.876543209876543,0)" xlink:href="#ay"/><use transform="matrix(0.06172839506172839,0,0,0.06172839506172839,15.987654320987653,0)" xlink:href="#aR"/><use transform="matrix(0.06172839506172839,0,0,0.06172839506172839,30.80246913580247,0)" xlink:href="#az"/><use transform="matrix(0.06172839506172839,0,0,0.06172839506172839,43.148148148148145,0)" xlink:href="#aI"/><use transform="matrix(0.06172839506172839,0,0,0.06172839506172839,55.49382716049382,0)" xlink:href="#aA"/><use transform="matrix(0.06172839506172839,0,0,0.06172839506172839,62.8395061728395,0)" xlink:href="#aS"/><use transform="matrix(0.06172839506172839,0,0,0.06172839506172839,73.9506172839506,0)" xlink:href="#aT"/><use transform="matrix(0.06172839506172839,0,0,0.06172839506172839,86.29629629629629,0)" xlink:href="#aI"/><use transform="matrix(0.06172839506172839,0,0,0.06172839506172839,98.64197530864197,0)" xlink:href="#aF"/><use transform="matrix(0.06172839506172839,0,0,0.06172839506172839,110.98765432098766,0)" xlink:href="#aJ"/><use transform="matrix(0.06172839506172839,0,0,0.06172839506172839,115.8641975308642,0)" xlink:href="#az"/></g><g id="r"><use transform="matrix(0.06172839506172839,0,0,0.06172839506172839,0,0)" xlink:href="#aF"/><use transform="matrix(0.06172839506172839,0,0,0.06172839506172839,12.345679012345679,0)" xlink:href="#aO"/><use transform="matrix(0.06172839506172839,0,0,0.06172839506172839,24.691358024691358,0)" xlink:href="#aO"/><use transform="matrix(0.06172839506172839,0,0,0.06172839506172839,37.03703703703704,0)" xlink:href="#aJ"/><use transform="matrix(0.06172839506172839,0,0,0.06172839506172839,41.91358024691358,0)" xlink:href="#az"/><use transform="matrix(0.06172839506172839,0,0,0.06172839506172839,54.25925925925926,0)" xlink:href="#aI"/><use transform="matrix(0.06172839506172839,0,0,0.06172839506172839,66.60493827160494,0)" xlink:href="#aK"/></g><path fill="#3a414a" d="M143 0L79-87 56-68V0H24v-261h32v163l83-92h37l-77 82L181 0h-38" id="aU"/><g id="s"><use transform="matrix(0.06172839506172839,0,0,0.06172839506172839,0,0)" xlink:href="#aR"/><use transform="matrix(0.06172839506172839,0,0,0.06172839506172839,14.814814814814813,0)" xlink:href="#aU"/><use transform="matrix(0.06172839506172839,0,0,0.06172839506172839,25.925925925925924,0)" xlink:href="#aG"/><use transform="matrix(0.06172839506172839,0,0,0.06172839506172839,30.80246913580247,0)" xlink:href="#aJ"/><use transform="matrix(0.06172839506172839,0,0,0.06172839506172839,35.67901234567901,0)" xlink:href="#aJ"/><use transform="matrix(0.06172839506172839,0,0,0.06172839506172839,40.55555555555556,0)" xlink:href="#ay"/></g><g id="t"><use transform="matrix(0.06172839506172839,0,0,0.06172839506172839,0,0)" xlink:href="#aS"/><use transform="matrix(0.06172839506172839,0,0,0.06172839506172839,11.11111111111111,0)" xlink:href="#aG"/><use transform="matrix(0.06172839506172839,0,0,0.06172839506172839,15.987654320987653,0)" xlink:href="#aM"/><use transform="matrix(0.06172839506172839,0,0,0.06172839506172839,22.160493827160494,0)" xlink:href="#az"/><use transform="matrix(0.06172839506172839,0,0,0.06172839506172839,34.50617283950617,0)" xlink:href="#aN"/><use transform="matrix(0.06172839506172839,0,0,0.06172839506172839,45.61728395061728,0)" xlink:href="#aM"/></g><path fill="#3a414a" d="M63-220v92h138v28H63V0H30v-248h175v28H63" id="aV"/><g id="u"><use transform="matrix(0.06172839506172839,0,0,0.06172839506172839,0,0)" xlink:href="#aV"/><use transform="matrix(0.06172839506172839,0,0,0.06172839506172839,13.518518518518517,0)" xlink:href="#aC"/></g><g id="v"><use transform="matrix(0.06172839506172839,0,0,0.06172839506172839,0,0)" xlink:href="#aS"/><use transform="matrix(0.06172839506172839,0,0,0.06172839506172839,11.11111111111111,0)" xlink:href="#aO"/><use transform="matrix(0.06172839506172839,0,0,0.06172839506172839,23.45679012345679,0)" xlink:href="#aJ"/><use transform="matrix(0.06172839506172839,0,0,0.06172839506172839,28.333333333333336,0)" xlink:href="#aO"/><use transform="matrix(0.06172839506172839,0,0,0.06172839506172839,40.67901234567901,0)" xlink:href="#aA"/></g><path fill="#3a414a" d="M212-179c-10-28-35-45-73-45-59 0-87 40-87 99 0 60 29 101 89 101 43 0 62-24 78-52l27 14C228-24 195 4 139 4 59 4 22-46 18-125c-6-104 99-153 187-111 19 9 31 26 39 46" id="aW"/><g id="w"><use transform="matrix(0.06172839506172839,0,0,0.06172839506172839,0,0)" xlink:href="#aW"/><use transform="matrix(0.06172839506172839,0,0,0.06172839506172839,15.987654320987653,0)" xlink:href="#aO"/><use transform="matrix(0.06172839506172839,0,0,0.06172839506172839,28.333333333333332,0)" xlink:href="#aJ"/><use transform="matrix(0.06172839506172839,0,0,0.06172839506172839,33.20987654320987,0)" xlink:href="#aO"/><use transform="matrix(0.06172839506172839,0,0,0.06172839506172839,45.55555555555555,0)" xlink:href="#aA"/></g><g id="x"><use transform="matrix(0.06172839506172839,0,0,0.06172839506172839,0,0)" xlink:href="#aQ"/><use transform="matrix(0.06172839506172839,0,0,0.06172839506172839,11.11111111111111,0)" xlink:href="#aI"/><use transform="matrix(0.06172839506172839,0,0,0.06172839506172839,23.45679012345679,0)" xlink:href="#aJ"/><use transform="matrix(0.06172839506172839,0,0,0.06172839506172839,28.333333333333336,0)" xlink:href="#aP"/><use transform="matrix(0.06172839506172839,0,0,0.06172839506172839,40.67901234567901,0)" xlink:href="#az"/></g><g id="y"><use transform="matrix(0.06172839506172839,0,0,0.06172839506172839,0,0)" xlink:href="#aG"/><use transform="matrix(0.06172839506172839,0,0,0.06172839506172839,4.876543209876543,0)" xlink:href="#aK"/><use transform="matrix(0.06172839506172839,0,0,0.06172839506172839,17.22222222222222,0)" xlink:href="#aM"/><use transform="matrix(0.06172839506172839,0,0,0.06172839506172839,23.39506172839506,0)" xlink:href="#az"/><use transform="matrix(0.06172839506172839,0,0,0.06172839506172839,35.74074074074074,0)" xlink:href="#aH"/><use transform="matrix(0.06172839506172839,0,0,0.06172839506172839,48.08641975308642,0)" xlink:href="#az"/><use transform="matrix(0.06172839506172839,0,0,0.06172839506172839,60.432098765432094,0)" xlink:href="#aA"/></g><path fill="#3a414a" d="M-5 72V49h209v23H-5" id="aX"/><g id="z"><use transform="matrix(0.06172839506172839,0,0,0.06172839506172839,0,0)" xlink:href="#ax"/><use transform="matrix(0.06172839506172839,0,0,0.06172839506172839,15.987654320987653,0)" xlink:href="#ay"/><use transform="matrix(0.06172839506172839,0,0,0.06172839506172839,27.098765432098766,0)" xlink:href="#az"/><use transform="matrix(0.06172839506172839,0,0,0.06172839506172839,39.44444444444444,0)" xlink:href="#aA"/><use transform="matrix(0.06172839506172839,0,0,0.06172839506172839,46.79012345679012,0)" xlink:href="#ay"/><use transform="matrix(0.06172839506172839,0,0,0.06172839506172839,57.90123456790123,0)" xlink:href="#aX"/><use transform="matrix(0.06172839506172839,0,0,0.06172839506172839,70.24691358024691,0)" xlink:href="#aR"/><use transform="matrix(0.06172839506172839,0,0,0.06172839506172839,85.06172839506172,0)" xlink:href="#aU"/><use transform="matrix(0.06172839506172839,0,0,0.06172839506172839,96.17283950617283,0)" xlink:href="#aG"/><use transform="matrix(0.06172839506172839,0,0,0.06172839506172839,101.04938271604938,0)" xlink:href="#aJ"/><use transform="matrix(0.06172839506172839,0,0,0.06172839506172839,105.92592592592592,0)" xlink:href="#aJ"/><use transform="matrix(0.06172839506172839,0,0,0.06172839506172839,110.80246913580247,0)" xlink:href="#ay"/></g><path fill="#3a414a" d="M85-194c31 0 48 13 60 33l-1-100h32l1 261h-30c-2-10 0-23-3-31C134-8 116 4 85 4 32 4 16-35 15-94c0-66 23-100 70-100zm9 24c-40 0-46 34-46 75 0 40 6 74 45 74 42 0 51-32 51-76 0-42-9-74-50-73" id="aY"/><g id="A"><use transform="matrix(0.06172839506172839,0,0,0.06172839506172839,0,0)" xlink:href="#aP"/><use transform="matrix(0.06172839506172839,0,0,0.06172839506172839,12.345679012345679,0)" xlink:href="#ay"/><use transform="matrix(0.06172839506172839,0,0,0.06172839506172839,23.45679012345679,0)" xlink:href="#az"/><use transform="matrix(0.06172839506172839,0,0,0.06172839506172839,35.80246913580247,0)" xlink:href="#aA"/><use transform="matrix(0.06172839506172839,0,0,0.06172839506172839,43.148148148148145,0)" xlink:href="#aX"/><use transform="matrix(0.06172839506172839,0,0,0.06172839506172839,55.49382716049382,0)" xlink:href="#aG"/><use transform="matrix(0.06172839506172839,0,0,0.06172839506172839,60.37037037037037,0)" xlink:href="#aY"/></g><g id="B"><use transform="matrix(0.06172839506172839,0,0,0.06172839506172839,0,0)" xlink:href="#aF"/><use transform="matrix(0.06172839506172839,0,0,0.06172839506172839,12.345679012345679,0)" xlink:href="#aG"/><use transform="matrix(0.06172839506172839,0,0,0.06172839506172839,17.22222222222222,0)" xlink:href="#aH"/><use transform="matrix(0.06172839506172839,0,0,0.06172839506172839,29.5679012345679,0)" xlink:href="#aG"/><use transform="matrix(0.06172839506172839,0,0,0.06172839506172839,34.44444444444444,0)" xlink:href="#aK"/><use transform="matrix(0.06172839506172839,0,0,0.06172839506172839,46.79012345679012,0)" xlink:href="#aM"/></g><g id="C"><use transform="matrix(0.06172839506172839,0,0,0.06172839506172839,0,0)" xlink:href="#ay"/><use transform="matrix(0.06172839506172839,0,0,0.06172839506172839,11.11111111111111,0)" xlink:href="#aU"/><use transform="matrix(0.06172839506172839,0,0,0.06172839506172839,22.22222222222222,0)" xlink:href="#aG"/><use transform="matrix(0.06172839506172839,0,0,0.06172839506172839,27.098765432098766,0)" xlink:href="#aJ"/><use transform="matrix(0.06172839506172839,0,0,0.06172839506172839,31.975308641975307,0)" xlink:href="#aJ"/><use transform="matrix(0.06172839506172839,0,0,0.06172839506172839,36.851851851851855,0)" xlink:href="#aX"/><use transform="matrix(0.06172839506172839,0,0,0.06172839506172839,49.19753086419753,0)" xlink:href="#aK"/><use transform="matrix(0.06172839506172839,0,0,0.06172839506172839,61.54320987654321,0)" xlink:href="#aI"/><use transform="matrix(0.06172839506172839,0,0,0.06172839506172839,73.88888888888889,0)" xlink:href="#aL"/><use transform="matrix(0.06172839506172839,0,0,0.06172839506172839,92.34567901234567,0)" xlink:href="#az"/></g><g id="D"><use transform="matrix(0.06172839506172839,0,0,0.06172839506172839,0,0)" xlink:href="#aS"/><use transform="matrix(0.06172839506172839,0,0,0.06172839506172839,11.11111111111111,0)" xlink:href="#aG"/><use transform="matrix(0.06172839506172839,0,0,0.06172839506172839,15.987654320987653,0)" xlink:href="#aM"/><use transform="matrix(0.06172839506172839,0,0,0.06172839506172839,22.160493827160494,0)" xlink:href="#az"/><use transform="matrix(0.06172839506172839,0,0,0.06172839506172839,34.50617283950617,0)" xlink:href="#aN"/></g><path fill="#3a414a" d="M140-251c81 0 123 46 123 126C263-46 219 4 140 4 59 4 17-45 17-125s42-126 123-126zm0 227c63 0 89-41 89-101s-29-99-89-99c-61 0-89 39-89 99S79-25 140-24" id="aZ"/><path fill="#3a414a" d="M101-234c-31-9-42 10-38 44h38v23H63V0H32v-167H5v-23h27c-7-52 17-82 69-68v24" id="ba"/><g id="E"><use transform="matrix(0.06172839506172839,0,0,0.06172839506172839,0,0)" xlink:href="#aZ"/><use transform="matrix(0.06172839506172839,0,0,0.06172839506172839,17.28395061728395,0)" xlink:href="#ba"/><use transform="matrix(0.06172839506172839,0,0,0.06172839506172839,23.02469135802469,0)" xlink:href="#ba"/><use transform="matrix(0.06172839506172839,0,0,0.06172839506172839,29.197530864197528,0)" xlink:href="#az"/><use transform="matrix(0.06172839506172839,0,0,0.06172839506172839,41.54320987654321,0)" xlink:href="#aA"/><use transform="matrix(0.06172839506172839,0,0,0.06172839506172839,48.888888888888886,0)" xlink:href="#ay"/></g><g id="F"><use transform="matrix(0.06172839506172839,0,0,0.06172839506172839,0,0)" xlink:href="#ay"/><use transform="matrix(0.06172839506172839,0,0,0.06172839506172839,11.11111111111111,0)" xlink:href="#aM"/><use transform="matrix(0.06172839506172839,0,0,0.06172839506172839,17.28395061728395,0)" xlink:href="#aI"/><use transform="matrix(0.06172839506172839,0,0,0.06172839506172839,29.629629629629626,0)" xlink:href="#aM"/><use transform="matrix(0.06172839506172839,0,0,0.06172839506172839,35.80246913580247,0)" xlink:href="#aP"/><use transform="matrix(0.06172839506172839,0,0,0.06172839506172839,48.148148148148145,0)" xlink:href="#ay"/></g><g id="G"><use transform="matrix(0.06172839506172839,0,0,0.06172839506172839,0,0)" xlink:href="#aL"/><use transform="matrix(0.06172839506172839,0,0,0.06172839506172839,18.456790123456788,0)" xlink:href="#az"/><use transform="matrix(0.06172839506172839,0,0,0.06172839506172839,30.80246913580247,0)" xlink:href="#aK"/><use transform="matrix(0.06172839506172839,0,0,0.06172839506172839,43.148148148148145,0)" xlink:href="#aM"/><use transform="matrix(0.06172839506172839,0,0,0.06172839506172839,49.32098765432099,0)" xlink:href="#aO"/><use transform="matrix(0.06172839506172839,0,0,0.06172839506172839,61.666666666666664,0)" xlink:href="#aA"/><use transform="matrix(0.06172839506172839,0,0,0.06172839506172839,69.01234567901234,0)" xlink:href="#aX"/><use transform="matrix(0.06172839506172839,0,0,0.06172839506172839,81.35802469135803,0)" xlink:href="#aG"/><use transform="matrix(0.06172839506172839,0,0,0.06172839506172839,86.23456790123457,0)" xlink:href="#aY"/></g><g id="H"><use transform="matrix(0.06172839506172839,0,0,0.06172839506172839,0,0)" xlink:href="#aL"/><use transform="matrix(0.06172839506172839,0,0,0.06172839506172839,18.456790123456788,0)" xlink:href="#az"/><use transform="matrix(0.06172839506172839,0,0,0.06172839506172839,30.80246913580247,0)" xlink:href="#aK"/><use transform="matrix(0.06172839506172839,0,0,0.06172839506172839,43.148148148148145,0)" xlink:href="#aM"/><use transform="matrix(0.06172839506172839,0,0,0.06172839506172839,49.32098765432099,0)" xlink:href="#aG"/><use transform="matrix(0.06172839506172839,0,0,0.06172839506172839,54.19753086419753,0)" xlink:href="#aX"/><use transform="matrix(0.06172839506172839,0,0,0.06172839506172839,66.54320987654322,0)" xlink:href="#aG"/><use transform="matrix(0.06172839506172839,0,0,0.06172839506172839,71.41975308641976,0)" xlink:href="#aY"/></g><g id="I"><use transform="matrix(0.06172839506172839,0,0,0.06172839506172839,0,0)" xlink:href="#aB"/><use transform="matrix(0.06172839506172839,0,0,0.06172839506172839,14.814814814814813,0)" xlink:href="#aJ"/><use transform="matrix(0.06172839506172839,0,0,0.06172839506172839,19.691358024691354,0)" xlink:href="#aI"/><use transform="matrix(0.06172839506172839,0,0,0.06172839506172839,32.03703703703703,0)" xlink:href="#aK"/><use transform="matrix(0.06172839506172839,0,0,0.06172839506172839,44.38271604938271,0)" xlink:href="#ay"/></g><path fill="#3a414a" d="M205 0l-28-72H64L36 0H1l101-248h38L239 0h-34zm-38-99l-47-123c-12 45-31 82-46 123h93" id="bb"/><g id="J"><use transform="matrix(0.06172839506172839,0,0,0.06172839506172839,0,0)" xlink:href="#aG"/><use transform="matrix(0.06172839506172839,0,0,0.06172839506172839,4.876543209876543,0)" xlink:href="#ay"/><use transform="matrix(0.06172839506172839,0,0,0.06172839506172839,15.987654320987653,0)" xlink:href="#bb"/><use transform="matrix(0.06172839506172839,0,0,0.06172839506172839,30.80246913580247,0)" xlink:href="#aS"/><use transform="matrix(0.06172839506172839,0,0,0.06172839506172839,41.91358024691358,0)" xlink:href="#aM"/><use transform="matrix(0.06172839506172839,0,0,0.06172839506172839,48.086419753086425,0)" xlink:href="#aG"/><use transform="matrix(0.06172839506172839,0,0,0.06172839506172839,52.96296296296297,0)" xlink:href="#aQ"/><use transform="matrix(0.06172839506172839,0,0,0.06172839506172839,64.07407407407408,0)" xlink:href="#az"/></g><path fill="#3a414a" d="M115-194c55 1 70 41 70 98S169 2 115 4C84 4 66-9 55-30l1 105H24l-1-265h31l2 30c10-21 28-34 59-34zm-8 174c40 0 45-34 45-75s-6-73-45-74c-42 0-51 32-51 76 0 43 10 73 51 73" id="bc"/><g id="K"><use transform="matrix(0.06172839506172839,0,0,0.06172839506172839,0,0)" xlink:href="#bc"/><use transform="matrix(0.06172839506172839,0,0,0.06172839506172839,12.345679012345679,0)" xlink:href="#aA"/><use transform="matrix(0.06172839506172839,0,0,0.06172839506172839,19.691358024691358,0)" xlink:href="#aO"/><use transform="matrix(0.06172839506172839,0,0,0.06172839506172839,32.03703703703704,0)" xlink:href="#aH"/><use transform="matrix(0.06172839506172839,0,0,0.06172839506172839,44.382716049382715,0)" xlink:href="#aA"/><use transform="matrix(0.06172839506172839,0,0,0.06172839506172839,51.72839506172839,0)" xlink:href="#az"/><use transform="matrix(0.06172839506172839,0,0,0.06172839506172839,64.07407407407408,0)" xlink:href="#ay"/><use transform="matrix(0.06172839506172839,0,0,0.06172839506172839,75.18518518518519,0)" xlink:href="#ay"/></g><g id="L"><use transform="matrix(0.06172839506172839,0,0,0.06172839506172839,0,0)" xlink:href="#aK"/><use transform="matrix(0.06172839506172839,0,0,0.06172839506172839,12.345679012345679,0)" xlink:href="#aP"/><use transform="matrix(0.06172839506172839,0,0,0.06172839506172839,24.691358024691358,0)" xlink:href="#aL"/><use transform="matrix(0.06172839506172839,0,0,0.06172839506172839,43.148148148148145,0)" xlink:href="#az"/><use transform="matrix(0.06172839506172839,0,0,0.06172839506172839,55.49382716049382,0)" xlink:href="#aA"/><use transform="matrix(0.06172839506172839,0,0,0.06172839506172839,62.8395061728395,0)" xlink:href="#aG"/><use transform="matrix(0.06172839506172839,0,0,0.06172839506172839,67.71604938271604,0)" xlink:href="#aS"/></g><path fill="#3a414a" d="M127-220V0H93v-220H8v-28h204v28h-85" id="bd"/><g id="M"><use transform="matrix(0.06172839506172839,0,0,0.06172839506172839,0,0)" xlink:href="#bd"/><use transform="matrix(0.06172839506172839,0,0,0.06172839506172839,11.049382716049381,0)" xlink:href="#aI"/><use transform="matrix(0.06172839506172839,0,0,0.06172839506172839,23.39506172839506,0)" xlink:href="#ay"/><use transform="matrix(0.06172839506172839,0,0,0.06172839506172839,34.50617283950617,0)" xlink:href="#aU"/></g><g id="N"><use transform="matrix(0.06172839506172839,0,0,0.06172839506172839,0,0)" xlink:href="#aY"/><use transform="matrix(0.06172839506172839,0,0,0.06172839506172839,12.345679012345679,0)" xlink:href="#az"/><use transform="matrix(0.06172839506172839,0,0,0.06172839506172839,24.691358024691358,0)" xlink:href="#ay"/><use transform="matrix(0.06172839506172839,0,0,0.06172839506172839,35.80246913580247,0)" xlink:href="#aS"/><use transform="matrix(0.06172839506172839,0,0,0.06172839506172839,46.91358024691358,0)" xlink:href="#aA"/><use transform="matrix(0.06172839506172839,0,0,0.06172839506172839,54.25925925925926,0)" xlink:href="#aG"/><use transform="matrix(0.06172839506172839,0,0,0.06172839506172839,59.135802469135804,0)" xlink:href="#bc"/><use transform="matrix(0.06172839506172839,0,0,0.06172839506172839,71.48148148148148,0)" xlink:href="#aM"/><use transform="matrix(0.06172839506172839,0,0,0.06172839506172839,77.65432098765432,0)" xlink:href="#aG"/><use transform="matrix(0.06172839506172839,0,0,0.06172839506172839,82.53086419753086,0)" xlink:href="#aO"/><use transform="matrix(0.06172839506172839,0,0,0.06172839506172839,94.87654320987654,0)" xlink:href="#aK"/></g><g id="O"><use transform="matrix(0.06172839506172839,0,0,0.06172839506172839,0,0)" xlink:href="#aY"/><use transform="matrix(0.06172839506172839,0,0,0.06172839506172839,12.345679012345679,0)" xlink:href="#az"/><use transform="matrix(0.06172839506172839,0,0,0.06172839506172839,24.691358024691358,0)" xlink:href="#aI"/><use transform="matrix(0.06172839506172839,0,0,0.06172839506172839,37.03703703703704,0)" xlink:href="#aY"/><use transform="matrix(0.06172839506172839,0,0,0.06172839506172839,49.382716049382715,0)" xlink:href="#aJ"/><use transform="matrix(0.06172839506172839,0,0,0.06172839506172839,54.25925925925926,0)" xlink:href="#aG"/><use transform="matrix(0.06172839506172839,0,0,0.06172839506172839,59.135802469135804,0)" xlink:href="#aK"/><use transform="matrix(0.06172839506172839,0,0,0.06172839506172839,71.48148148148148,0)" xlink:href="#az"/></g><path d="M59-47c-2 24 18 29 38 22v24C64 9 27 4 27-40v-127H5v-23h24l9-43h21v43h35v23H59v120" id="be"/><path d="M24-231v-30h32v30H24zM24 0v-190h32V0H24" id="bf"/><path d="M210-169c-67 3-38 105-44 169h-31v-121c0-29-5-50-35-48C34-165 62-65 56 0H25l-1-190h30c1 10-1 24 2 32 10-44 99-50 107 0 11-21 27-35 58-36 85-2 47 119 55 194h-31v-121c0-29-5-49-35-48" id="bg"/><path d="M100-194c63 0 86 42 84 106H49c0 40 14 67 53 68 26 1 43-12 49-29l28 8c-11 28-37 45-77 45C44 4 14-33 15-96c1-61 26-98 85-98zm52 81c6-60-76-77-97-28-3 7-6 17-6 28h103" id="bh"/><path d="M135-143c-3-34-86-38-87 0 15 53 115 12 119 90S17 21 10-45l28-5c4 36 97 45 98 0-10-56-113-15-118-90-4-57 82-63 122-42 12 7 21 19 24 35" id="bi"/><path d="M141-36C126-15 110 5 73 4 37 3 15-17 15-53c-1-64 63-63 125-63 3-35-9-54-41-54-24 1-41 7-42 31l-33-3c5-37 33-52 76-52 45 0 72 20 72 64v82c-1 20 7 32 28 27v20c-31 9-61-2-59-35zM48-53c0 20 12 33 32 33 41-3 63-29 60-74-43 2-92-5-92 41" id="bj"/><path d="M115-194c55 1 70 41 70 98S169 2 115 4C84 4 66-9 55-30l1 105H24l-1-265h31l2 30c10-21 28-34 59-34zm-8 174c40 0 45-34 45-75s-6-73-45-74c-42 0-51 32-51 76 0 43 10 73 51 73" id="bk"/><path d="M9 0v-24l116-142H16v-24h144v24L44-24h123V0H9" id="bl"/><g id="P"><use transform="matrix(0.05333333333333333,0,0,0.05333333333333333,0,0)" xlink:href="#be"/><use transform="matrix(0.05333333333333333,0,0,0.05333333333333333,5.333333333333333,0)" xlink:href="#bf"/><use transform="matrix(0.05333333333333333,0,0,0.05333333333333333,9.546666666666667,0)" xlink:href="#bg"/><use transform="matrix(0.05333333333333333,0,0,0.05333333333333333,25.493333333333332,0)" xlink:href="#bh"/><use transform="matrix(0.05333333333333333,0,0,0.05333333333333333,36.16,0)" xlink:href="#bi"/><use transform="matrix(0.05333333333333333,0,0,0.05333333333333333,45.76,0)" xlink:href="#be"/><use transform="matrix(0.05333333333333333,0,0,0.05333333333333333,51.093333333333334,0)" xlink:href="#bj"/><use transform="matrix(0.05333333333333333,0,0,0.05333333333333333,61.76,0)" xlink:href="#bg"/><use transform="matrix(0.05333333333333333,0,0,0.05333333333333333,77.70666666666666,0)" xlink:href="#bk"/><use transform="matrix(0.05333333333333333,0,0,0.05333333333333333,88.37333333333333,0)" xlink:href="#be"/><use transform="matrix(0.05333333333333333,0,0,0.05333333333333333,93.70666666666666,0)" xlink:href="#bl"/></g><g id="Q"><use transform="matrix(0.06172839506172839,0,0,0.06172839506172839,0,0)" xlink:href="#bc"/><use transform="matrix(0.06172839506172839,0,0,0.06172839506172839,12.345679012345679,0)" xlink:href="#aJ"/><use transform="matrix(0.06172839506172839,0,0,0.06172839506172839,17.22222222222222,0)" xlink:href="#aI"/><use transform="matrix(0.06172839506172839,0,0,0.06172839506172839,29.5679012345679,0)" xlink:href="#aK"/><use transform="matrix(0.06172839506172839,0,0,0.06172839506172839,41.913580246913575,0)" xlink:href="#aX"/><use transform="matrix(0.06172839506172839,0,0,0.06172839506172839,54.25925925925925,0)" xlink:href="#aG"/><use transform="matrix(0.06172839506172839,0,0,0.06172839506172839,59.1358024691358,0)" xlink:href="#aY"/></g><g id="R"><use transform="matrix(0.06172839506172839,0,0,0.06172839506172839,0,0)" xlink:href="#aR"/><use transform="matrix(0.06172839506172839,0,0,0.06172839506172839,14.814814814814813,0)" xlink:href="#aM"/><use transform="matrix(0.06172839506172839,0,0,0.06172839506172839,20.98765432098765,0)" xlink:href="#aI"/><use transform="matrix(0.06172839506172839,0,0,0.06172839506172839,33.33333333333333,0)" xlink:href="#aM"/><use transform="matrix(0.06172839506172839,0,0,0.06172839506172839,39.50617283950617,0)" xlink:href="#aP"/><use transform="matrix(0.06172839506172839,0,0,0.06172839506172839,51.85185185185185,0)" xlink:href="#ay"/></g></defs></g></svg>