<?xml version="1.0" encoding="UTF-8" standalone="no"?><svg xmlns="http://www.w3.org/2000/svg" xmlns:xlink="http://www.w3.org/1999/xlink" contentScriptType="application/ecmascript" contentStyleType="text/css" height="475px" preserveAspectRatio="none" style="width:3029px;height:475px;background:#FFFFFF;" version="1.1" viewBox="0 0 3029 475" width="3029px" zoomAndPan="magnify"><defs><filter height="300%" id="f1shw5bwjwlu9f" width="300%" x="-1" y="-1"><feGaussianBlur result="blurOut" stdDeviation="2.0"/><feColorMatrix in="blurOut" result="blurOut2" type="matrix" values="0 0 0 0 0 0 0 0 0 0 0 0 0 0 0 0 0 0 .4 0"/><feOffset dx="4.0" dy="4.0" in="blurOut2" result="blurOut3"/><feBlend in="SourceGraphic" in2="blurOut3" mode="normal"/></filter></defs><g><!--MD5=[e6eced616a98d47334dd1aaaa829ffd5]
cluster dto--><polygon fill="#FFFFFF" filter="url(#f1shw5bwjwlu9f)" points="16,19,46,19,53,41.4883,664,41.4883,664,468.5,16,468.5,16,19" style="stroke:#000000;stroke-width:1.5;"/><line style="stroke:#000000;stroke-width:1.5;" x1="16" x2="53" y1="41.4883" y2="41.4883"/><text fill="#000000" font-family="sans-serif" font-size="14" font-weight="bold" lengthAdjust="spacing" textLength="24" x="20" y="34.5352">dto</text><!--MD5=[2a013135f1f90689be40a3c084fed702]
cluster entities--><polygon fill="#FFFFFF" filter="url(#f1shw5bwjwlu9f)" points="688,6,749,6,756,28.4883,858,28.4883,858,248,688,248,688,6" style="stroke:#000000;stroke-width:1.5;"/><line style="stroke:#000000;stroke-width:1.5;" x1="688" x2="756" y1="28.4883" y2="28.4883"/><text fill="#000000" font-family="sans-serif" font-size="14" font-weight="bold" lengthAdjust="spacing" textLength="55" x="692" y="21.5352">entities</text><!--MD5=[794a38223425d07b195b83baf66428df]
cluster repository_postgresql--><polygon fill="#FFFFFF" filter="url(#f1shw5bwjwlu9f)" points="882,298,1046,298,1053,320.4883,1348,320.4883,1348,436,882,436,882,298" style="stroke:#000000;stroke-width:1.5;"/><line style="stroke:#000000;stroke-width:1.5;" x1="882" x2="1053" y1="320.4883" y2="320.4883"/><text fill="#000000" font-family="sans-serif" font-size="14" font-weight="bold" lengthAdjust="spacing" textLength="158" x="886" y="313.5352">repository_postgresql</text><!--MD5=[3f7e124b5a8aa38cac2b85c07130595b]
cluster user_repository--><polygon fill="#FFFFFF" filter="url(#f1shw5bwjwlu9f)" points="882,64.5,1000,64.5,1007,86.9883,1348,86.9883,1348,189.5,882,189.5,882,64.5" style="stroke:#000000;stroke-width:1.5;"/><line style="stroke:#000000;stroke-width:1.5;" x1="882" x2="1007" y1="86.9883" y2="86.9883"/><text fill="#000000" font-family="sans-serif" font-size="14" font-weight="bold" lengthAdjust="spacing" textLength="112" x="886" y="80.0352">user_repository</text><!--MD5=[2d31396eca8ae8b60bd6bcc47b871ed6]
cluster telegram_checker--><polygon fill="#FFFFFF" filter="url(#f1shw5bwjwlu9f)" points="2061,272,2192,272,2199,294.4883,2738,294.4883,2738,462,2061,462,2061,272" style="stroke:#000000;stroke-width:1.5;"/><line style="stroke:#000000;stroke-width:1.5;" x1="2061" x2="2199" y1="294.4883" y2="294.4883"/><text fill="#000000" font-family="sans-serif" font-size="14" font-weight="bold" lengthAdjust="spacing" textLength="125" x="2065" y="287.5352">telegram_checker</text><!--MD5=[c60cb08e027ad1bc5b0341e808b02b6b]
cluster user_usecase--><polygon fill="#FFFFFF" filter="url(#f1shw5bwjwlu9f)" points="1372,71,1472,71,1479,93.4883,2037,93.4883,2037,436,1372,436,1372,71" style="stroke:#000000;stroke-width:1.5;"/><line style="stroke:#000000;stroke-width:1.5;" x1="1372" x2="1479" y1="93.4883" y2="93.4883"/><text fill="#000000" font-family="sans-serif" font-size="14" font-weight="bold" lengthAdjust="spacing" textLength="94" x="1376" y="86.5352">user_usecase</text><!--MD5=[b5a5bf1901fe6f355957709725a72931]
cluster user_auth_handler--><polygon fill="#FFFFFF" filter="url(#f1shw5bwjwlu9f)" points="2762,304.5,2899,304.5,2906,326.9883,3012,326.9883,3012,429.5,2762,429.5,2762,304.5" style="stroke:#000000;stroke-width:1.5;"/><line style="stroke:#000000;stroke-width:1.5;" x1="2762" x2="2906" y1="326.9883" y2="326.9883"/><text fill="#000000" font-family="sans-serif" font-size="14" font-weight="bold" lengthAdjust="spacing" textLength="131" x="2766" y="320.0352">user_auth_handler</text><!--MD5=[5336d0432c5753478f8bb0248199b33b]
cluster handler--><polygon fill="#FFFFFF" filter="url(#f1shw5bwjwlu9f)" points="2818,77.5,2878,77.5,2885,99.9883,2956,99.9883,2956,176.5,2818,176.5,2818,77.5" style="stroke:#000000;stroke-width:1.5;"/><line style="stroke:#000000;stroke-width:1.5;" x1="2818" x2="2885" y1="99.9883" y2="99.9883"/><text fill="#000000" font-family="sans-serif" font-size="14" font-weight="bold" lengthAdjust="spacing" textLength="54" x="2822" y="93.0352">handler</text><!--MD5=[21c5c2a1c798b4eba681ca0aa0d71a24]
class dto.UserAuthRequest--><rect codeLine="2" fill="#FEFECE" filter="url(#f1shw5bwjwlu9f)" height="151.6406" id="dto.UserAuthRequest" style="stroke:#A80036;stroke-width:1.5;" width="246" x="189" y="60.5"/><ellipse cx="258.25" cy="76.5" fill="#7FFFD4" rx="11" ry="11" style="stroke:#A80036;stroke-width:1.0;"/><path d="M257.9834,77.563 Q256.1323,76.8574 255.4766,76.0813 Q254.8208,75.3052 254.8208,73.9937 Q254.8208,72.3086 255.8999,71.3457 Q256.979,70.3828 258.8633,70.3828 Q259.7183,70.3828 260.5732,70.5779 Q261.4282,70.7729 262.2666,71.1548 L262.2666,73.5454 Q261.478,72.9893 260.6646,72.6987 Q259.8511,72.4082 259.0542,72.4082 Q258.166,72.4082 257.6929,72.7651 Q257.2197,73.1221 257.2197,73.7861 Q257.2197,74.3008 257.5642,74.637 Q257.9087,74.9731 259.0044,75.3799 L260.0586,75.7783 Q261.5527,76.3262 262.2583,77.231 Q262.9639,78.1357 262.9639,79.5137 Q262.9639,81.3896 261.8557,82.3152 Q260.7476,83.2407 258.5063,83.2407 Q257.585,83.2407 256.6594,83.0208 Q255.7339,82.8008 254.8706,82.3691 L254.8706,79.8374 Q255.8501,80.5347 256.7673,80.875 Q257.6846,81.2153 258.5811,81.2153 Q259.4858,81.2153 259.9839,80.8044 Q260.4819,80.3936 260.4819,79.6548 Q260.4819,79.0986 260.1499,78.6794 Q259.8179,78.2603 259.187,78.0195 Z " fill="#000000"/><text fill="#000000" font-family="sans-serif" font-size="12" lengthAdjust="spacing" textLength="99" x="278.75" y="81.0352">UserAuthRequest</text><line style="stroke:#A80036;stroke-width:1.5;" x1="190" x2="434" y1="92.5" y2="92.5"/><ellipse cx="200" cy="103.5" fill="none" rx="3" ry="3" style="stroke:#038048;stroke-width:1.0;"/><text fill="#000000" font-family="sans-serif" font-size="11" lengthAdjust="spacing" textLength="42" x="209" y="107.1348">ID int64</text><ellipse cx="200" cy="116.4551" fill="none" rx="3" ry="3" style="stroke:#038048;stroke-width:1.0;"/><text fill="#000000" font-family="sans-serif" font-size="11" lengthAdjust="spacing" textLength="81" x="209" y="120.0898">AuthDate int64</text><ellipse cx="200" cy="129.4102" fill="none" rx="3" ry="3" style="stroke:#038048;stroke-width:1.0;"/><text fill="#000000" font-family="sans-serif" font-size="11" lengthAdjust="spacing" textLength="89" x="209" y="133.0449">FirstName string</text><ellipse cx="200" cy="142.3652" fill="none" rx="3" ry="3" style="stroke:#038048;stroke-width:1.0;"/><text fill="#000000" font-family="sans-serif" font-size="11" lengthAdjust="spacing" textLength="87" x="209" y="146">LastName string</text><ellipse cx="200" cy="155.3203" fill="none" rx="3" ry="3" style="stroke:#038048;stroke-width:1.0;"/><text fill="#000000" font-family="sans-serif" font-size="11" lengthAdjust="spacing" textLength="89" x="209" y="158.9551">Username string</text><ellipse cx="200" cy="168.2754" fill="none" rx="3" ry="3" style="stroke:#038048;stroke-width:1.0;"/><text fill="#000000" font-family="sans-serif" font-size="11" lengthAdjust="spacing" textLength="70" x="209" y="171.9102">Avatar string</text><ellipse cx="200" cy="181.2305" fill="none" rx="3" ry="3" style="stroke:#038048;stroke-width:1.0;"/><text fill="#000000" font-family="sans-serif" font-size="11" lengthAdjust="spacing" textLength="62" x="209" y="184.8652">Hash string</text><line style="stroke:#A80036;stroke-width:1.5;" x1="190" x2="434" y1="191.1855" y2="191.1855"/><ellipse cx="200" cy="202.1855" fill="#84BE84" rx="3" ry="3" style="stroke:#038048;stroke-width:1.0;"/><text fill="#000000" font-family="sans-serif" font-size="11" lengthAdjust="spacing" textLength="220" x="209" y="205.8203">ToUserAuthUsecase() *UserAuthUsecase</text><!--MD5=[a834a233ed011e9da7121bbd7fdc058a]
class dto.UserAuthUsecase--><rect codeLine="14" fill="#FEFECE" filter="url(#f1shw5bwjwlu9f)" height="164.5957" id="dto.UserAuthUsecase" style="stroke:#A80036;stroke-width:1.5;" width="178" x="470" y="54"/><ellipse cx="506.15" cy="70" fill="#7FFFD4" rx="11" ry="11" style="stroke:#A80036;stroke-width:1.0;"/><path d="M505.8834,71.063 Q504.0323,70.3574 503.3766,69.5813 Q502.7208,68.8052 502.7208,67.4937 Q502.7208,65.8086 503.7999,64.8457 Q504.879,63.8828 506.7633,63.8828 Q507.6183,63.8828 508.4732,64.0779 Q509.3282,64.2729 510.1666,64.6548 L510.1666,67.0454 Q509.378,66.4893 508.5646,66.1987 Q507.7511,65.9082 506.9542,65.9082 Q506.066,65.9082 505.5929,66.2651 Q505.1197,66.6221 505.1197,67.2861 Q505.1197,67.8008 505.4642,68.137 Q505.8087,68.4731 506.9044,68.8799 L507.9586,69.2783 Q509.4527,69.8262 510.1583,70.731 Q510.8639,71.6357 510.8639,73.0137 Q510.8639,74.8896 509.7557,75.8152 Q508.6476,76.7407 506.4063,76.7407 Q505.485,76.7407 504.5594,76.5208 Q503.6339,76.3008 502.7706,75.8691 L502.7706,73.3374 Q503.7501,74.0347 504.6673,74.375 Q505.5846,74.7153 506.4811,74.7153 Q507.3858,74.7153 507.8839,74.3044 Q508.3819,73.8936 508.3819,73.1548 Q508.3819,72.5986 508.0499,72.1794 Q507.7179,71.7603 507.087,71.5195 Z " fill="#000000"/><text fill="#000000" font-family="sans-serif" font-size="12" lengthAdjust="spacing" textLength="99" x="524.85" y="74.5352">UserAuthUsecase</text><line style="stroke:#A80036;stroke-width:1.5;" x1="471" x2="647" y1="86" y2="86"/><ellipse cx="481" cy="97" fill="none" rx="3" ry="3" style="stroke:#038048;stroke-width:1.0;"/><text fill="#000000" font-family="sans-serif" font-size="11" lengthAdjust="spacing" textLength="42" x="490" y="100.6348">ID int64</text><ellipse cx="481" cy="109.9551" fill="none" rx="3" ry="3" style="stroke:#038048;stroke-width:1.0;"/><text fill="#000000" font-family="sans-serif" font-size="11" lengthAdjust="spacing" textLength="92" x="490" y="113.5898">TelegramID int64</text><ellipse cx="481" cy="122.9102" fill="none" rx="3" ry="3" style="stroke:#038048;stroke-width:1.0;"/><text fill="#000000" font-family="sans-serif" font-size="11" lengthAdjust="spacing" textLength="81" x="490" y="126.5449">AuthDate int64</text><ellipse cx="481" cy="135.8652" fill="none" rx="3" ry="3" style="stroke:#038048;stroke-width:1.0;"/><text fill="#000000" font-family="sans-serif" font-size="11" lengthAdjust="spacing" textLength="89" x="490" y="139.5">FirstName string</text><ellipse cx="481" cy="148.8203" fill="none" rx="3" ry="3" style="stroke:#038048;stroke-width:1.0;"/><text fill="#000000" font-family="sans-serif" font-size="11" lengthAdjust="spacing" textLength="87" x="490" y="152.4551">LastName string</text><ellipse cx="481" cy="161.7754" fill="none" rx="3" ry="3" style="stroke:#038048;stroke-width:1.0;"/><text fill="#000000" font-family="sans-serif" font-size="11" lengthAdjust="spacing" textLength="89" x="490" y="165.4102">Username string</text><ellipse cx="481" cy="174.7305" fill="none" rx="3" ry="3" style="stroke:#038048;stroke-width:1.0;"/><text fill="#000000" font-family="sans-serif" font-size="11" lengthAdjust="spacing" textLength="70" x="490" y="178.3652">Avatar string</text><ellipse cx="481" cy="187.6855" fill="none" rx="3" ry="3" style="stroke:#038048;stroke-width:1.0;"/><text fill="#000000" font-family="sans-serif" font-size="11" lengthAdjust="spacing" textLength="62" x="490" y="191.3203">Hash string</text><line style="stroke:#A80036;stroke-width:1.5;" x1="471" x2="647" y1="197.6406" y2="197.6406"/><ellipse cx="481" cy="208.6406" fill="#84BE84" rx="3" ry="3" style="stroke:#038048;stroke-width:1.0;"/><text fill="#000000" font-family="sans-serif" font-size="11" lengthAdjust="spacing" textLength="152" x="490" y="212.2754">ToUserEntity() *entities.User</text><!--MD5=[5a97f0a7b7104fc3b7e79e09bb7540ee]
class dto.UserResponse--><rect codeLine="27" fill="#FEFECE" filter="url(#f1shw5bwjwlu9f)" height="151.6406" id="dto.UserResponse" style="stroke:#A80036;stroke-width:1.5;" width="216" x="283" y="300.5"/><ellipse cx="345.75" cy="316.5" fill="#7FFFD4" rx="11" ry="11" style="stroke:#A80036;stroke-width:1.0;"/><path d="M345.4834,317.563 Q343.6323,316.8574 342.9766,316.0813 Q342.3208,315.3052 342.3208,313.9937 Q342.3208,312.3086 343.3999,311.3457 Q344.479,310.3828 346.3633,310.3828 Q347.2183,310.3828 348.0732,310.5779 Q348.9282,310.7729 349.7666,311.1548 L349.7666,313.5454 Q348.978,312.9893 348.1646,312.6987 Q347.3511,312.4082 346.5542,312.4082 Q345.666,312.4082 345.1929,312.7651 Q344.7197,313.1221 344.7197,313.7861 Q344.7197,314.3008 345.0642,314.637 Q345.4087,314.9731 346.5044,315.3799 L347.5586,315.7783 Q349.0527,316.3262 349.7583,317.231 Q350.4639,318.1357 350.4639,319.5137 Q350.4639,321.3896 349.3557,322.3152 Q348.2476,323.2407 346.0063,323.2407 Q345.085,323.2407 344.1594,323.0208 Q343.2339,322.8008 342.3706,322.3691 L342.3706,319.8374 Q343.3501,320.5347 344.2673,320.875 Q345.1846,321.2153 346.0811,321.2153 Q346.9858,321.2153 347.4839,320.8044 Q347.9819,320.3936 347.9819,319.6548 Q347.9819,319.0986 347.6499,318.6794 Q347.3179,318.2603 346.687,318.0195 Z " fill="#000000"/><text fill="#000000" font-family="sans-serif" font-size="12" lengthAdjust="spacing" textLength="82" x="366.25" y="321.0352">UserResponse</text><line style="stroke:#A80036;stroke-width:1.5;" x1="284" x2="498" y1="332.5" y2="332.5"/><ellipse cx="294" cy="343.5" fill="none" rx="3" ry="3" style="stroke:#038048;stroke-width:1.0;"/><text fill="#000000" font-family="sans-serif" font-size="11" lengthAdjust="spacing" textLength="87" x="303" y="347.1348">Nickname string</text><ellipse cx="294" cy="356.4551" fill="none" rx="3" ry="3" style="stroke:#038048;stroke-width:1.0;"/><text fill="#000000" font-family="sans-serif" font-size="11" lengthAdjust="spacing" textLength="83" x="303" y="360.0898">Fullname string</text><ellipse cx="294" cy="369.4102" fill="none" rx="3" ry="3" style="stroke:#038048;stroke-width:1.0;"/><text fill="#000000" font-family="sans-serif" font-size="11" lengthAdjust="spacing" textLength="68" x="303" y="373.0449">About string</text><ellipse cx="294" cy="382.3652" fill="none" rx="3" ry="3" style="stroke:#038048;stroke-width:1.0;"/><text fill="#000000" font-family="sans-serif" font-size="11" lengthAdjust="spacing" textLength="63" x="303" y="386">Email string</text><line style="stroke:#A80036;stroke-width:1.5;" x1="284" x2="498" y1="392.3203" y2="392.3203"/><ellipse cx="294" cy="403.3203" fill="#84BE84" rx="3" ry="3" style="stroke:#038048;stroke-width:1.0;"/><text fill="#000000" font-family="sans-serif" font-size="11" lengthAdjust="spacing" textLength="152" x="303" y="406.9551">MarshalJSON() ([]byte, error)</text><ellipse cx="294" cy="416.2754" fill="#84BE84" rx="3" ry="3" style="stroke:#038048;stroke-width:1.0;"/><text fill="#000000" font-family="sans-serif" font-size="11" lengthAdjust="spacing" textLength="185" x="303" y="419.9102">MarshalEasyJSON(w *jwriter.Writer)</text><ellipse cx="294" cy="429.2305" fill="#84BE84" rx="3" ry="3" style="stroke:#038048;stroke-width:1.0;"/><text fill="#000000" font-family="sans-serif" font-size="11" lengthAdjust="spacing" textLength="180" x="303" y="432.8652">UnmarshalJSON(data []byte) error</text><ellipse cx="294" cy="442.1855" fill="#84BE84" rx="3" ry="3" style="stroke:#038048;stroke-width:1.0;"/><text fill="#000000" font-family="sans-serif" font-size="11" lengthAdjust="spacing" textLength="190" x="303" y="445.8203">UnmarshalEasyJSON(l *jlexer.Lexer)</text><!--MD5=[6a5f17bb9957752855f6bf828496d322]
class dto.UsersResponse--><rect codeLine="46" fill="#FEFECE" filter="url(#f1shw5bwjwlu9f)" height="99.8203" id="dto.UsersResponse" style="stroke:#A80036;stroke-width:1.5;" width="216" x="32" y="326.5"/><ellipse cx="91.75" cy="342.5" fill="#FF7700" rx="11" ry="11" style="stroke:#A80036;stroke-width:1.0;"/><path d="M93.0918,349.75 L90.6431,349.75 L90.6431,339.4985 L87.4971,339.4985 L87.4971,337.3569 L96.2378,337.3569 L96.2378,339.4985 L93.0918,339.4985 Z " fill="#000000"/><text fill="#000000" font-family="sans-serif" font-size="12" lengthAdjust="spacing" textLength="88" x="112.25" y="347.0352">UsersResponse</text><line style="stroke:#A80036;stroke-width:1.5;" x1="33" x2="247" y1="358.5" y2="358.5"/><line style="stroke:#A80036;stroke-width:1.5;" x1="33" x2="247" y1="366.5" y2="366.5"/><ellipse cx="43" cy="377.5" fill="#84BE84" rx="3" ry="3" style="stroke:#038048;stroke-width:1.0;"/><text fill="#000000" font-family="sans-serif" font-size="11" lengthAdjust="spacing" textLength="152" x="52" y="381.1348">MarshalJSON() ([]byte, error)</text><ellipse cx="43" cy="390.4551" fill="#84BE84" rx="3" ry="3" style="stroke:#038048;stroke-width:1.0;"/><text fill="#000000" font-family="sans-serif" font-size="11" lengthAdjust="spacing" textLength="185" x="52" y="394.0898">MarshalEasyJSON(w *jwriter.Writer)</text><ellipse cx="43" cy="403.4102" fill="#84BE84" rx="3" ry="3" style="stroke:#038048;stroke-width:1.0;"/><text fill="#000000" font-family="sans-serif" font-size="11" lengthAdjust="spacing" textLength="180" x="52" y="407.0449">UnmarshalJSON(data []byte) error</text><ellipse cx="43" cy="416.3652" fill="#84BE84" rx="3" ry="3" style="stroke:#038048;stroke-width:1.0;"/><text fill="#000000" font-family="sans-serif" font-size="11" lengthAdjust="spacing" textLength="190" x="52" y="420">UnmarshalEasyJSON(l *jlexer.Lexer)</text><!--MD5=[5fb8f2c3043860ad22624f277b2e5dae]
class dto.[]UserResponse--><rect fill="#FEFECE" filter="url(#f1shw5bwjwlu9f)" height="48" id="dto.[]UserResponse" style="stroke:#A80036;stroke-width:1.5;" width="122" x="32" y="112.5"/><ellipse cx="47" cy="128.5" fill="#ADD1B2" rx="11" ry="11" style="stroke:#A80036;stroke-width:1.0;"/><path d="M49.4731,134.6431 Q48.8921,134.9419 48.2529,135.0913 Q47.6138,135.2407 46.9082,135.2407 Q44.4014,135.2407 43.0815,133.5889 Q41.7617,131.937 41.7617,128.8159 Q41.7617,125.6865 43.0815,124.0347 Q44.4014,122.3828 46.9082,122.3828 Q47.6138,122.3828 48.2612,122.5322 Q48.9087,122.6816 49.4731,122.9805 L49.4731,125.7031 Q48.8423,125.1221 48.2488,124.8523 Q47.6553,124.5825 47.0244,124.5825 Q45.6797,124.5825 44.9949,125.6492 Q44.3101,126.7158 44.3101,128.8159 Q44.3101,130.9077 44.9949,131.9744 Q45.6797,133.041 47.0244,133.041 Q47.6553,133.041 48.2488,132.7712 Q48.8423,132.5015 49.4731,131.9204 Z " fill="#000000"/><text fill="#000000" font-family="sans-serif" font-size="12" lengthAdjust="spacing" textLength="90" x="61" y="133.0352">[]UserResponse</text><line style="stroke:#A80036;stroke-width:1.5;" x1="33" x2="153" y1="144.5" y2="144.5"/><line style="stroke:#A80036;stroke-width:1.5;" x1="33" x2="153" y1="152.5" y2="152.5"/><!--MD5=[c954c641b0305bdc07d1cd5fc7ad2662]
class entities.User--><rect codeLine="52" fill="#FEFECE" filter="url(#f1shw5bwjwlu9f)" height="190.5059" id="entities.User" style="stroke:#A80036;stroke-width:1.5;" width="138" x="704" y="41"/><ellipse cx="755.75" cy="57" fill="#7FFFD4" rx="11" ry="11" style="stroke:#A80036;stroke-width:1.0;"/><path d="M755.4834,58.063 Q753.6323,57.3574 752.9766,56.5813 Q752.3208,55.8052 752.3208,54.4937 Q752.3208,52.8086 753.3999,51.8457 Q754.479,50.8828 756.3633,50.8828 Q757.2183,50.8828 758.0732,51.0779 Q758.9282,51.2729 759.7666,51.6548 L759.7666,54.0454 Q758.978,53.4893 758.1646,53.1987 Q757.3511,52.9082 756.5542,52.9082 Q755.666,52.9082 755.1929,53.2651 Q754.7197,53.6221 754.7197,54.2861 Q754.7197,54.8008 755.0642,55.137 Q755.4087,55.4731 756.5044,55.8799 L757.5586,56.2783 Q759.0527,56.8262 759.7583,57.731 Q760.4639,58.6357 760.4639,60.0137 Q760.4639,61.8896 759.3557,62.8152 Q758.2476,63.7407 756.0063,63.7407 Q755.085,63.7407 754.1594,63.5208 Q753.2339,63.3008 752.3706,62.8691 L752.3706,60.3374 Q753.3501,61.0347 754.2673,61.375 Q755.1846,61.7153 756.0811,61.7153 Q756.9858,61.7153 757.4839,61.3044 Q757.9819,60.8936 757.9819,60.1548 Q757.9819,59.5986 757.6499,59.1794 Q757.3179,58.7603 756.687,58.5195 Z " fill="#000000"/><text fill="#000000" font-family="sans-serif" font-size="12" lengthAdjust="spacing" textLength="26" x="776.25" y="61.5352">User</text><line style="stroke:#A80036;stroke-width:1.5;" x1="705" x2="841" y1="73" y2="73"/><ellipse cx="715" cy="84" fill="none" rx="3" ry="3" style="stroke:#038048;stroke-width:1.0;"/><text fill="#000000" font-family="sans-serif" font-size="11" lengthAdjust="spacing" textLength="42" x="724" y="87.6348">ID int64</text><ellipse cx="715" cy="96.9551" fill="none" rx="3" ry="3" style="stroke:#038048;stroke-width:1.0;"/><text fill="#000000" font-family="sans-serif" font-size="11" lengthAdjust="spacing" textLength="92" x="724" y="100.5898">TelegramID int64</text><ellipse cx="715" cy="109.9102" fill="none" rx="3" ry="3" style="stroke:#038048;stroke-width:1.0;"/><text fill="#000000" font-family="sans-serif" font-size="11" lengthAdjust="spacing" textLength="89" x="724" y="113.5449">FirstName string</text><ellipse cx="715" cy="122.8652" fill="none" rx="3" ry="3" style="stroke:#038048;stroke-width:1.0;"/><text fill="#000000" font-family="sans-serif" font-size="11" lengthAdjust="spacing" textLength="87" x="724" y="126.5">LastName string</text><ellipse cx="715" cy="135.8203" fill="none" rx="3" ry="3" style="stroke:#038048;stroke-width:1.0;"/><text fill="#000000" font-family="sans-serif" font-size="11" lengthAdjust="spacing" textLength="87" x="724" y="139.4551">Nickname string</text><ellipse cx="715" cy="148.7754" fill="none" rx="3" ry="3" style="stroke:#038048;stroke-width:1.0;"/><text fill="#000000" font-family="sans-serif" font-size="11" lengthAdjust="spacing" textLength="68" x="724" y="152.4102">About string</text><ellipse cx="715" cy="161.7305" fill="none" rx="3" ry="3" style="stroke:#038048;stroke-width:1.0;"/><text fill="#000000" font-family="sans-serif" font-size="11" lengthAdjust="spacing" textLength="70" x="724" y="165.3652">Avatar string</text><ellipse cx="715" cy="174.6855" fill="none" rx="3" ry="3" style="stroke:#038048;stroke-width:1.0;"/><text fill="#000000" font-family="sans-serif" font-size="11" lengthAdjust="spacing" textLength="63" x="724" y="178.3203">Email string</text><ellipse cx="715" cy="187.6406" fill="none" rx="3" ry="3" style="stroke:#038048;stroke-width:1.0;"/><text fill="#000000" font-family="sans-serif" font-size="11" lengthAdjust="spacing" textLength="94" x="724" y="191.2754">IsSearchable bool</text><ellipse cx="715" cy="200.5957" fill="none" rx="3" ry="3" style="stroke:#038048;stroke-width:1.0;"/><text fill="#000000" font-family="sans-serif" font-size="11" lengthAdjust="spacing" textLength="109" x="724" y="204.2305">CreatedAt time.Time</text><ellipse cx="715" cy="213.5508" fill="none" rx="3" ry="3" style="stroke:#038048;stroke-width:1.0;"/><text fill="#000000" font-family="sans-serif" font-size="11" lengthAdjust="spacing" textLength="112" x="724" y="217.1855">UpdatedAt time.Time</text><line style="stroke:#A80036;stroke-width:1.5;" x1="705" x2="841" y1="223.5059" y2="223.5059"/><!--MD5=[9b3aa1c590a158409a44ec50f560e3c0]
class repository_postgresql.UserRepository--><rect codeLine="70" fill="#FEFECE" filter="url(#f1shw5bwjwlu9f)" height="86.8652" id="repository_postgresql.UserRepository" style="stroke:#A80036;stroke-width:1.5;" width="433" x="898.5" y="333"/><ellipse cx="1067.25" cy="349" fill="#7FFFD4" rx="11" ry="11" style="stroke:#A80036;stroke-width:1.0;"/><path d="M1066.9834,350.063 Q1065.1323,349.3574 1064.4766,348.5813 Q1063.8208,347.8052 1063.8208,346.4937 Q1063.8208,344.8086 1064.8999,343.8457 Q1065.979,342.8828 1067.8633,342.8828 Q1068.7183,342.8828 1069.5732,343.0779 Q1070.4282,343.2729 1071.2666,343.6548 L1071.2666,346.0454 Q1070.478,345.4893 1069.6646,345.1987 Q1068.8511,344.9082 1068.0542,344.9082 Q1067.166,344.9082 1066.6929,345.2651 Q1066.2197,345.6221 1066.2197,346.2861 Q1066.2197,346.8008 1066.5642,347.137 Q1066.9087,347.4731 1068.0044,347.8799 L1069.0586,348.2783 Q1070.5527,348.8262 1071.2583,349.731 Q1071.9639,350.6357 1071.9639,352.0137 Q1071.9639,353.8896 1070.8557,354.8152 Q1069.7476,355.7407 1067.5063,355.7407 Q1066.585,355.7407 1065.6594,355.5208 Q1064.7339,355.3008 1063.8706,354.8691 L1063.8706,352.3374 Q1064.8501,353.0347 1065.7673,353.375 Q1066.6846,353.7153 1067.5811,353.7153 Q1068.4858,353.7153 1068.9839,353.3044 Q1069.4819,352.8936 1069.4819,352.1548 Q1069.4819,351.5986 1069.1499,351.1794 Q1068.8179,350.7603 1068.187,350.5195 Z " fill="#000000"/><text fill="#000000" font-family="sans-serif" font-size="12" lengthAdjust="spacing" textLength="87" x="1087.75" y="353.5352">UserRepository</text><line style="stroke:#A80036;stroke-width:1.5;" x1="899.5" x2="1330.5" y1="365" y2="365"/><rect fill="none" height="6" style="stroke:#C82930;stroke-width:1.0;" width="6" x="906.5" y="373"/><text fill="#000000" font-family="sans-serif" font-size="11" lengthAdjust="spacing" textLength="76" x="918.5" y="379.6348">store *sqlx.DB</text><line style="stroke:#A80036;stroke-width:1.5;" x1="899.5" x2="1330.5" y1="385.9551" y2="385.9551"/><ellipse cx="909.5" cy="396.9551" fill="#84BE84" rx="3" ry="3" style="stroke:#038048;stroke-width:1.0;"/><text fill="#000000" font-family="sans-serif" font-size="11" lengthAdjust="spacing" textLength="372" x="918.5" y="400.5898">Create(ctx context.Context, user *entities.User) (*entities.User, error)</text><ellipse cx="909.5" cy="409.9102" fill="#84BE84" rx="3" ry="3" style="stroke:#038048;stroke-width:1.0;"/><text fill="#000000" font-family="sans-serif" font-size="11" lengthAdjust="spacing" textLength="407" x="918.5" y="413.5449">GetUserByTelegramID(ctx context.Context, tgID int64) (*entities.User, error)</text><!--MD5=[b548b84feb5433132b77f911f8e8ee68]
class user_repository.Repository--><rect codeLine="117" fill="#FEFECE" filter="url(#f1shw5bwjwlu9f)" height="73.9102" id="user_repository.Repository" style="stroke:#A80036;stroke-width:1.5;" width="433" x="898.5" y="99.5"/><ellipse cx="1080.25" cy="115.5" fill="#B4A7E5" rx="11" ry="11" style="stroke:#A80036;stroke-width:1.0;"/><path d="M1076.6777,111.7651 L1076.6777,109.6069 L1084.0571,109.6069 L1084.0571,111.7651 L1081.5918,111.7651 L1081.5918,119.8418 L1084.0571,119.8418 L1084.0571,122 L1076.6777,122 L1076.6777,119.8418 L1079.1431,119.8418 L1079.1431,111.7651 Z " fill="#000000"/><text fill="#000000" font-family="sans-serif" font-size="12" font-style="italic" lengthAdjust="spacing" textLength="61" x="1100.75" y="120.0352">Repository</text><line style="stroke:#A80036;stroke-width:1.5;" x1="899.5" x2="1330.5" y1="131.5" y2="131.5"/><line style="stroke:#A80036;stroke-width:1.5;" x1="899.5" x2="1330.5" y1="139.5" y2="139.5"/><ellipse cx="909.5" cy="150.5" fill="#84BE84" rx="3" ry="3" style="stroke:#038048;stroke-width:1.0;"/><text fill="#000000" font-family="sans-serif" font-size="11" lengthAdjust="spacing" textLength="372" x="918.5" y="154.1348">Create(ctx context.Context, user *entities.User) (*entities.User, error)</text><ellipse cx="909.5" cy="163.4551" fill="#84BE84" rx="3" ry="3" style="stroke:#038048;stroke-width:1.0;"/><text fill="#000000" font-family="sans-serif" font-size="11" lengthAdjust="spacing" textLength="407" x="918.5" y="167.0898">GetUserByTelegramID(ctx context.Context, tgID int64) (*entities.User, error)</text><!--MD5=[5fa81cb628d0a798b42fbbda5335ba9d]
class telegram_checker.CheckerData--><rect codeLine="82" fill="#FEFECE" filter="url(#f1shw5bwjwlu9f)" height="138.6855" id="telegram_checker.CheckerData" style="stroke:#A80036;stroke-width:1.5;" width="367" x="2354.5" y="307"/><ellipse cx="2496.75" cy="323" fill="#7FFFD4" rx="11" ry="11" style="stroke:#A80036;stroke-width:1.0;"/><path d="M2496.4834,324.063 Q2494.6323,323.3574 2493.9766,322.5813 Q2493.3208,321.8052 2493.3208,320.4937 Q2493.3208,318.8086 2494.3999,317.8457 Q2495.479,316.8828 2497.3633,316.8828 Q2498.2183,316.8828 2499.0732,317.0779 Q2499.9282,317.2729 2500.7666,317.6548 L2500.7666,320.0454 Q2499.978,319.4893 2499.1646,319.1987 Q2498.3511,318.9082 2497.5542,318.9082 Q2496.666,318.9082 2496.1929,319.2651 Q2495.7197,319.6221 2495.7197,320.2861 Q2495.7197,320.8008 2496.0642,321.137 Q2496.4087,321.4731 2497.5044,321.8799 L2498.5586,322.2783 Q2500.0527,322.8262 2500.7583,323.731 Q2501.4639,324.6357 2501.4639,326.0137 Q2501.4639,327.8896 2500.3557,328.8152 Q2499.2476,329.7407 2497.0063,329.7407 Q2496.085,329.7407 2495.1594,329.5208 Q2494.2339,329.3008 2493.3706,328.8691 L2493.3706,326.3374 Q2494.3501,327.0347 2495.2673,327.375 Q2496.1846,327.7153 2497.0811,327.7153 Q2497.9858,327.7153 2498.4839,327.3044 Q2498.9819,326.8936 2498.9819,326.1548 Q2498.9819,325.5986 2498.6499,325.1794 Q2498.3179,324.7603 2497.687,324.5195 Z " fill="#000000"/><text fill="#000000" font-family="sans-serif" font-size="12" lengthAdjust="spacing" textLength="74" x="2517.25" y="327.5352">CheckerData</text><line style="stroke:#A80036;stroke-width:1.5;" x1="2355.5" x2="2720.5" y1="339" y2="339"/><ellipse cx="2365.5" cy="350" fill="none" rx="3" ry="3" style="stroke:#038048;stroke-width:1.0;"/><text fill="#000000" font-family="sans-serif" font-size="11" lengthAdjust="spacing" textLength="42" x="2374.5" y="353.6348">ID int64</text><ellipse cx="2365.5" cy="362.9551" fill="none" rx="3" ry="3" style="stroke:#038048;stroke-width:1.0;"/><text fill="#000000" font-family="sans-serif" font-size="11" lengthAdjust="spacing" textLength="81" x="2374.5" y="366.5898">AuthDate int64</text><ellipse cx="2365.5" cy="375.9102" fill="none" rx="3" ry="3" style="stroke:#038048;stroke-width:1.0;"/><text fill="#000000" font-family="sans-serif" font-size="11" lengthAdjust="spacing" textLength="89" x="2374.5" y="379.5449">FirstName string</text><ellipse cx="2365.5" cy="388.8652" fill="none" rx="3" ry="3" style="stroke:#038048;stroke-width:1.0;"/><text fill="#000000" font-family="sans-serif" font-size="11" lengthAdjust="spacing" textLength="87" x="2374.5" y="392.5">LastName string</text><ellipse cx="2365.5" cy="401.8203" fill="none" rx="3" ry="3" style="stroke:#038048;stroke-width:1.0;"/><text fill="#000000" font-family="sans-serif" font-size="11" lengthAdjust="spacing" textLength="89" x="2374.5" y="405.4551">Username string</text><ellipse cx="2365.5" cy="414.7754" fill="none" rx="3" ry="3" style="stroke:#038048;stroke-width:1.0;"/><text fill="#000000" font-family="sans-serif" font-size="11" lengthAdjust="spacing" textLength="70" x="2374.5" y="418.4102">Avatar string</text><line style="stroke:#A80036;stroke-width:1.5;" x1="2355.5" x2="2720.5" y1="424.7305" y2="424.7305"/><ellipse cx="2365.5" cy="435.7305" fill="#84BE84" rx="3" ry="3" style="stroke:#038048;stroke-width:1.0;"/><text fill="#000000" font-family="sans-serif" font-size="11" lengthAdjust="spacing" textLength="341" x="2374.5" y="439.3652">UserAuthToChecker(user *dto.UserAuthUsecase) *CheckerData</text><!--MD5=[2c3735a78ac38e713f21bdd5ed409a2d]
class telegram_checker.TelegramChecker--><rect codeLine="93" fill="#FEFECE" filter="url(#f1shw5bwjwlu9f)" height="99.8203" id="telegram_checker.TelegramChecker" style="stroke:#A80036;stroke-width:1.5;" width="242" x="2077" y="326.5"/><ellipse cx="2142.75" cy="342.5" fill="#7FFFD4" rx="11" ry="11" style="stroke:#A80036;stroke-width:1.0;"/><path d="M2142.4834,343.563 Q2140.6323,342.8574 2139.9766,342.0813 Q2139.3208,341.3052 2139.3208,339.9937 Q2139.3208,338.3086 2140.3999,337.3457 Q2141.479,336.3828 2143.3633,336.3828 Q2144.2183,336.3828 2145.0732,336.5779 Q2145.9282,336.7729 2146.7666,337.1548 L2146.7666,339.5454 Q2145.978,338.9893 2145.1646,338.6987 Q2144.3511,338.4082 2143.5542,338.4082 Q2142.666,338.4082 2142.1929,338.7651 Q2141.7197,339.1221 2141.7197,339.7861 Q2141.7197,340.3008 2142.0642,340.637 Q2142.4087,340.9731 2143.5044,341.3799 L2144.5586,341.7783 Q2146.0527,342.3262 2146.7583,343.231 Q2147.4639,344.1357 2147.4639,345.5137 Q2147.4639,347.3896 2146.3557,348.3152 Q2145.2476,349.2407 2143.0063,349.2407 Q2142.085,349.2407 2141.1594,349.0208 Q2140.2339,348.8008 2139.3706,348.3691 L2139.3706,345.8374 Q2140.3501,346.5347 2141.2673,346.875 Q2142.1846,347.2153 2143.0811,347.2153 Q2143.9858,347.2153 2144.4839,346.8044 Q2144.9819,346.3936 2144.9819,345.6548 Q2144.9819,345.0986 2144.6499,344.6794 Q2144.3179,344.2603 2143.687,344.0195 Z " fill="#000000"/><text fill="#000000" font-family="sans-serif" font-size="12" lengthAdjust="spacing" textLength="102" x="2163.25" y="347.0352">TelegramChecker</text><line style="stroke:#A80036;stroke-width:1.5;" x1="2078" x2="2318" y1="358.5" y2="358.5"/><rect fill="none" height="6" style="stroke:#C82930;stroke-width:1.0;" width="6" x="2085" y="366.5"/><text fill="#000000" font-family="sans-serif" font-size="11" lengthAdjust="spacing" textLength="101" x="2097" y="373.1348">log *logrus.Logger</text><rect fill="none" height="6" style="stroke:#C82930;stroke-width:1.0;" width="6" x="2085" y="379.4551"/><text fill="#000000" font-family="sans-serif" font-size="11" lengthAdjust="spacing" textLength="65" x="2097" y="386.0898">token string</text><rect fill="none" height="6" style="stroke:#C82930;stroke-width:1.0;" width="6" x="2085" y="392.4102"/><text fill="#000000" font-family="sans-serif" font-size="11" lengthAdjust="spacing" textLength="116" x="2097" y="399.0449">tokenHash hash.Hash</text><line style="stroke:#A80036;stroke-width:1.5;" x1="2078" x2="2318" y1="405.3652" y2="405.3652"/><ellipse cx="2088" cy="416.3652" fill="#84BE84" rx="3" ry="3" style="stroke:#038048;stroke-width:1.0;"/><text fill="#000000" font-family="sans-serif" font-size="11" lengthAdjust="spacing" textLength="216" x="2097" y="420">Check(user *dto.UserAuthUsecase) bool</text><!--MD5=[20762f7cb8e9c542fcaf39583928e263]
class user_usecase.authChecker--><rect codeLine="137" fill="#FEFECE" filter="url(#f1shw5bwjwlu9f)" height="60.9551" id="user_usecase.authChecker" style="stroke:#A80036;stroke-width:1.5;" width="241" x="1779.5" y="106"/><ellipse cx="1859.75" cy="122" fill="#B4A7E5" rx="11" ry="11" style="stroke:#A80036;stroke-width:1.0;"/><path d="M1856.1777,118.2651 L1856.1777,116.1069 L1863.5571,116.1069 L1863.5571,118.2651 L1861.0918,118.2651 L1861.0918,126.3418 L1863.5571,126.3418 L1863.5571,128.5 L1856.1777,128.5 L1856.1777,126.3418 L1858.6431,126.3418 L1858.6431,118.2651 Z " fill="#000000"/><text fill="#000000" font-family="sans-serif" font-size="12" font-style="italic" lengthAdjust="spacing" textLength="72" x="1880.25" y="126.5352">authChecker</text><line style="stroke:#A80036;stroke-width:1.5;" x1="1780.5" x2="2019.5" y1="138" y2="138"/><line style="stroke:#A80036;stroke-width:1.5;" x1="1780.5" x2="2019.5" y1="146" y2="146"/><ellipse cx="1790.5" cy="157" fill="#84BE84" rx="3" ry="3" style="stroke:#038048;stroke-width:1.0;"/><text fill="#000000" font-family="sans-serif" font-size="11" lengthAdjust="spacing" textLength="215" x="1799.5" y="160.6348">Check(data *dto.UserAuthUsecase) bool</text><!--MD5=[a4731d413799520b75c7429d69da3051]
class user_usecase.Usecase--><rect codeLine="126" fill="#FEFECE" filter="url(#f1shw5bwjwlu9f)" height="60.9551" id="user_usecase.Usecase" style="stroke:#A80036;stroke-width:1.5;" width="356" x="1388" y="106"/><ellipse cx="1538.25" cy="122" fill="#B4A7E5" rx="11" ry="11" style="stroke:#A80036;stroke-width:1.0;"/><path d="M1534.6777,118.2651 L1534.6777,116.1069 L1542.0571,116.1069 L1542.0571,118.2651 L1539.5918,118.2651 L1539.5918,126.3418 L1542.0571,126.3418 L1542.0571,128.5 L1534.6777,128.5 L1534.6777,126.3418 L1537.1431,126.3418 L1537.1431,118.2651 Z " fill="#000000"/><text fill="#000000" font-family="sans-serif" font-size="12" font-style="italic" lengthAdjust="spacing" textLength="47" x="1558.75" y="126.5352">Usecase</text><line style="stroke:#A80036;stroke-width:1.5;" x1="1389" x2="1743" y1="138" y2="138"/><line style="stroke:#A80036;stroke-width:1.5;" x1="1389" x2="1743" y1="146" y2="146"/><ellipse cx="1399" cy="157" fill="#84BE84" rx="3" ry="3" style="stroke:#038048;stroke-width:1.0;"/><text fill="#000000" font-family="sans-serif" font-size="11" lengthAdjust="spacing" textLength="330" x="1408" y="160.6348">Auth(user *dto.UserAuthUsecase) (*dto.UserResponse, error)</text><!--MD5=[46869b1b58175c3a132fa64a5bce50c6]
class user_usecase.UserUsecase--><rect codeLine="130" fill="#FEFECE" filter="url(#f1shw5bwjwlu9f)" height="86.8652" id="user_usecase.UserUsecase" style="stroke:#A80036;stroke-width:1.5;" width="356" x="1388" y="333"/><ellipse cx="1525.25" cy="349" fill="#7FFFD4" rx="11" ry="11" style="stroke:#A80036;stroke-width:1.0;"/><path d="M1524.9834,350.063 Q1523.1323,349.3574 1522.4766,348.5813 Q1521.8208,347.8052 1521.8208,346.4937 Q1521.8208,344.8086 1522.8999,343.8457 Q1523.979,342.8828 1525.8633,342.8828 Q1526.7183,342.8828 1527.5732,343.0779 Q1528.4282,343.2729 1529.2666,343.6548 L1529.2666,346.0454 Q1528.478,345.4893 1527.6646,345.1987 Q1526.8511,344.9082 1526.0542,344.9082 Q1525.166,344.9082 1524.6929,345.2651 Q1524.2197,345.6221 1524.2197,346.2861 Q1524.2197,346.8008 1524.5642,347.137 Q1524.9087,347.4731 1526.0044,347.8799 L1527.0586,348.2783 Q1528.5527,348.8262 1529.2583,349.731 Q1529.9639,350.6357 1529.9639,352.0137 Q1529.9639,353.8896 1528.8557,354.8152 Q1527.7476,355.7407 1525.5063,355.7407 Q1524.585,355.7407 1523.6594,355.5208 Q1522.7339,355.3008 1521.8706,354.8691 L1521.8706,352.3374 Q1522.8501,353.0347 1523.7673,353.375 Q1524.6846,353.7153 1525.5811,353.7153 Q1526.4858,353.7153 1526.9839,353.3044 Q1527.4819,352.8936 1527.4819,352.1548 Q1527.4819,351.5986 1527.1499,351.1794 Q1526.8179,350.7603 1526.187,350.5195 Z " fill="#000000"/><text fill="#000000" font-family="sans-serif" font-size="12" lengthAdjust="spacing" textLength="73" x="1545.75" y="353.5352">UserUsecase</text><line style="stroke:#A80036;stroke-width:1.5;" x1="1389" x2="1743" y1="365" y2="365"/><rect fill="none" height="6" style="stroke:#C82930;stroke-width:1.0;" width="6" x="1396" y="373"/><text fill="#000000" font-family="sans-serif" font-size="11" lengthAdjust="spacing" textLength="232" x="1408" y="379.6348">userRepository user_repository.Repository</text><rect fill="none" height="6" style="stroke:#C82930;stroke-width:1.0;" width="6" x="1396" y="385.9551"/><text fill="#000000" font-family="sans-serif" font-size="11" lengthAdjust="spacing" textLength="139" x="1408" y="392.5898">authChecker authChecker</text><line style="stroke:#A80036;stroke-width:1.5;" x1="1389" x2="1743" y1="398.9102" y2="398.9102"/><ellipse cx="1399" cy="409.9102" fill="#84BE84" rx="3" ry="3" style="stroke:#038048;stroke-width:1.0;"/><text fill="#000000" font-family="sans-serif" font-size="11" lengthAdjust="spacing" textLength="330" x="1408" y="413.5449">Auth(user *dto.UserAuthUsecase) (*dto.UserResponse, error)</text><!--MD5=[0ee2b366944ce483016d40bc4e972dde]
class user_auth_handler.UserAuthHandler--><rect codeLine="106" fill="#FEFECE" filter="url(#f1shw5bwjwlu9f)" height="73.9102" id="user_auth_handler.UserAuthHandler" style="stroke:#A80036;stroke-width:1.5;" width="217" x="2778.5" y="339.5"/><ellipse cx="2833.75" cy="355.5" fill="#7FFFD4" rx="11" ry="11" style="stroke:#A80036;stroke-width:1.0;"/><path d="M2833.4834,356.563 Q2831.6323,355.8574 2830.9766,355.0813 Q2830.3208,354.3052 2830.3208,352.9937 Q2830.3208,351.3086 2831.3999,350.3457 Q2832.479,349.3828 2834.3633,349.3828 Q2835.2183,349.3828 2836.0732,349.5779 Q2836.9282,349.7729 2837.7666,350.1548 L2837.7666,352.5454 Q2836.978,351.9893 2836.1646,351.6987 Q2835.3511,351.4082 2834.5542,351.4082 Q2833.666,351.4082 2833.1929,351.7651 Q2832.7197,352.1221 2832.7197,352.7861 Q2832.7197,353.3008 2833.0642,353.637 Q2833.4087,353.9731 2834.5044,354.3799 L2835.5586,354.7783 Q2837.0527,355.3262 2837.7583,356.231 Q2838.4639,357.1357 2838.4639,358.5137 Q2838.4639,360.3896 2837.3557,361.3152 Q2836.2476,362.2407 2834.0063,362.2407 Q2833.085,362.2407 2832.1594,362.0208 Q2831.2339,361.8008 2830.3706,361.3691 L2830.3706,358.8374 Q2831.3501,359.5347 2832.2673,359.875 Q2833.1846,360.2153 2834.0811,360.2153 Q2834.9858,360.2153 2835.4839,359.8044 Q2835.9819,359.3936 2835.9819,358.6548 Q2835.9819,358.0986 2835.6499,357.6794 Q2835.3179,357.2603 2834.687,357.0195 Z " fill="#000000"/><text fill="#000000" font-family="sans-serif" font-size="12" lengthAdjust="spacing" textLength="98" x="2854.25" y="360.0352">UserAuthHandler</text><line style="stroke:#A80036;stroke-width:1.5;" x1="2779.5" x2="2994.5" y1="371.5" y2="371.5"/><rect fill="none" height="6" style="stroke:#C82930;stroke-width:1.0;" width="6" x="2786.5" y="379.5"/><text fill="#000000" font-family="sans-serif" font-size="11" lengthAdjust="spacing" textLength="191" x="2798.5" y="386.1348">userUsecase user_usecase.Usecase</text><line style="stroke:#A80036;stroke-width:1.5;" x1="2779.5" x2="2994.5" y1="392.4551" y2="392.4551"/><ellipse cx="2789.5" cy="403.4551" fill="#84BE84" rx="3" ry="3" style="stroke:#038048;stroke-width:1.0;"/><text fill="#000000" font-family="sans-serif" font-size="11" lengthAdjust="spacing" textLength="152" x="2798.5" y="407.0898">GET(ctx echo.Context) error</text><!--MD5=[cfdb7b6535ca79d032dbdc0f18b265bf]
class handler.BaseHandler--><rect fill="#FEFECE" filter="url(#f1shw5bwjwlu9f)" height="48" id="handler.BaseHandler" style="stroke:#A80036;stroke-width:1.5;" width="105" x="2834.5" y="112.5"/><ellipse cx="2849.5" cy="128.5" fill="#ADD1B2" rx="11" ry="11" style="stroke:#A80036;stroke-width:1.0;"/><path d="M2851.9731,134.6431 Q2851.3921,134.9419 2850.7529,135.0913 Q2850.1138,135.2407 2849.4082,135.2407 Q2846.9014,135.2407 2845.5815,133.5889 Q2844.2617,131.937 2844.2617,128.8159 Q2844.2617,125.6865 2845.5815,124.0347 Q2846.9014,122.3828 2849.4082,122.3828 Q2850.1138,122.3828 2850.7612,122.5322 Q2851.4087,122.6816 2851.9731,122.9805 L2851.9731,125.7031 Q2851.3423,125.1221 2850.7488,124.8523 Q2850.1553,124.5825 2849.5244,124.5825 Q2848.1797,124.5825 2847.4949,125.6492 Q2846.8101,126.7158 2846.8101,128.8159 Q2846.8101,130.9077 2847.4949,131.9744 Q2848.1797,133.041 2849.5244,133.041 Q2850.1553,133.041 2850.7488,132.7712 Q2851.3423,132.5015 2851.9731,131.9204 Z " fill="#000000"/><text fill="#000000" font-family="sans-serif" font-size="12" lengthAdjust="spacing" textLength="73" x="2863.5" y="133.0352">BaseHandler</text><line style="stroke:#A80036;stroke-width:1.5;" x1="2835.5" x2="2938.5" y1="144.5" y2="144.5"/><line style="stroke:#A80036;stroke-width:1.5;" x1="2835.5" x2="2938.5" y1="152.5" y2="152.5"/><!--MD5=[e6a658d3b9089ef8309d6f8b17b6619b]
reverse link user_repository.Repository to repository_postgresql.UserRepository--><path codeLine="79" d="M1115,193.81 C1115,236.46 1115,294.14 1115,332.97 " fill="none" id="user_repository.Repository-backto-repository_postgresql.UserRepository" style="stroke:#A80036;stroke-width:1.0;"/><polygon fill="none" points="1108,193.65,1115,173.65,1122,193.65,1108,193.65" style="stroke:#A80036;stroke-width:1.0;"/><!--MD5=[058c160e4d1b5cf9c4e98b1abe1924bd]
reverse link user_usecase.authChecker to telegram_checker.TelegramChecker--><path codeLine="103" d="M1952.83,179.69 C2004.25,220.76 2082.35,283.13 2136.53,326.4 " fill="none" id="user_usecase.authChecker-backto-telegram_checker.TelegramChecker" style="stroke:#A80036;stroke-width:1.0;"/><polygon fill="none" points="1948.4,185.11,1937.14,167.16,1957.14,174.17,1948.4,185.11" style="stroke:#A80036;stroke-width:1.0;"/><!--MD5=[88d021d5a9dcb5446eb3f41aaba7c384]
reverse link handler.BaseHandler to user_auth_handler.UserAuthHandler--><path codeLine="113" d="M2887,173.9 C2887,218.8 2887,294.69 2887,339.44 " fill="none" id="handler.BaseHandler-backto-user_auth_handler.UserAuthHandler" style="stroke:#A80036;stroke-width:1.0;"/><polygon fill="#A80036" points="2887,160.75,2883,166.75,2887,172.75,2891,166.75,2887,160.75" style="stroke:#A80036;stroke-width:1.0;"/><!--MD5=[760c6fd61f068fe9c22dfa703c57f4c5]
reverse link user_usecase.Usecase to user_usecase.UserUsecase--><path codeLine="143" d="M1566,187.24 C1566,230.37 1566,292.12 1566,332.99 " fill="none" id="user_usecase.Usecase-backto-user_usecase.UserUsecase" style="stroke:#A80036;stroke-width:1.0;"/><polygon fill="none" points="1559,187.16,1566,167.16,1573,187.16,1559,187.16" style="stroke:#A80036;stroke-width:1.0;"/><!--MD5=[e57e7c57090cad6c32ae6a53adde3bc3]
reverse link dto.[]UserResponse to dto.UsersResponse--><path codeLine="145" d="M98.6,165.88 C106.41,205.42 120.69,277.7 130.26,326.17 " fill="none" id="dto.[]UserResponse-backto-dto.UsersResponse" style="stroke:#A80036;stroke-width:1.0;stroke-dasharray:7.0,7.0;"/><rect fill="#FFFFFF" height="10" style="stroke:#A80036;stroke-width:1.5;" width="10" x="92.59" y="155.75"/><!--MD5=[2d4f309815b5b3917de14082cf314315]
link dto.UserAuthRequest to dto.UserAuthUsecase--><!--MD5=[61c4cec69b0a30cc5597fd0cc538f8ef]
link dto.UserAuthRequest to dto.UserResponse--><!--MD5=[5416c9532bbf63788190c79365961cab]
@startuml
namespace dto {
    class UserAuthRequest << (S,Aquamarine) >> {
        + ID int64
        + AuthDate int64
        + FirstName string
        + LastName string
        + Username string
        + Avatar string
        + Hash string

        + ToUserAuthUsecase() *UserAuthUsecase

    }
    class UserAuthUsecase << (S,Aquamarine) >> {
        + ID int64
        + TelegramID int64
        + AuthDate int64
        + FirstName string
        + LastName string
        + Username string
        + Avatar string
        + Hash string

        + ToUserEntity() *entities.User

    }
    class UserResponse << (S,Aquamarine) >> {
        + Nickname string
        + Fullname string
        + About string
        + Email string

        + MarshalJSON() ([]byte, error)
        + MarshalEasyJSON(w *jwriter.Writer) 
        + UnmarshalJSON(data []byte) error
        + UnmarshalEasyJSON(l *jlexer.Lexer) 

    }
    class UsersResponse << (S,Aquamarine) >> {
        + MarshalJSON() ([]byte, error)
        + MarshalEasyJSON(w *jwriter.Writer) 
        + UnmarshalJSON(data []byte) error
        + UnmarshalEasyJSON(l *jlexer.Lexer) 

    }
    class dto.UsersResponse << (T, #FF7700) >>  {
    }
}


namespace entities {
    class User << (S,Aquamarine) >> {
        + ID int64
        + TelegramID int64
        + FirstName string
        + LastName string
        + Nickname string
        + About string
        + Avatar string
        + Email string
        + IsSearchable bool
        + CreatedAt time.Time
        + UpdatedAt time.Time

    }
}


namespace repository_postgresql {
    class UserRepository << (S,Aquamarine) >> {
        - store *sqlx.DB

        + Create(ctx context.Context, user *entities.User) (*entities.User, error)
        + GetUserByTelegramID(ctx context.Context, tgID int64) (*entities.User, error)

    }
}

"user_repository.Repository" <|- - "repository_postgresql.UserRepository"

namespace telegram_checker {
    class CheckerData << (S,Aquamarine) >> {
        + ID int64
        + AuthDate int64
        + FirstName string
        + LastName string
        + Username string
        + Avatar string

        + UserAuthToChecker(user *dto.UserAuthUsecase) *CheckerData

    }
    class TelegramChecker << (S,Aquamarine) >> {
        - log *logrus.Logger
        - token string
        - tokenHash hash.Hash

        + Check(user *dto.UserAuthUsecase) bool

    }
}

"user_usecase.authChecker" <|- - "telegram_checker.TelegramChecker"

namespace user_auth_handler {
    class UserAuthHandler << (S,Aquamarine) >> {
        - userUsecase user_usecase.Usecase

        + GET(ctx echo.Context) error

    }
}
"handler.BaseHandler" *- - "user_auth_handler.UserAuthHandler"


namespace user_repository {
    interface Repository  {
        + Create(ctx context.Context, user *entities.User) (*entities.User, error)
        + GetUserByTelegramID(ctx context.Context, tgID int64) (*entities.User, error)

    }
}


namespace user_usecase {
    interface Usecase  {
        + Auth(user *dto.UserAuthUsecase) (*dto.UserResponse, error)

    }
    class UserUsecase << (S,Aquamarine) >> {
        - userRepository user_repository.Repository
        - authChecker authChecker

        + Auth(user *dto.UserAuthUsecase) (*dto.UserResponse, error)

    }
    interface authChecker  {
        + Check(data *dto.UserAuthUsecase) bool

    }
}

"user_usecase.Usecase" <|- - "user_usecase.UserUsecase"

"dto.[]UserResponse" #.. "dto.UsersResponse"
@enduml

PlantUML version 1.2022.1(Tue Feb 01 21:19:58 MSK 2022)
(GPL source distribution)
Java Runtime: OpenJDK Runtime Environment
JVM: OpenJDK 64-Bit Server VM
Default Encoding: UTF-8
Language: ru
Country: RU
--></g></svg>